<?xml version="1.0" encoding="us-ascii" standalone="no"?><svg xmlns="http://www.w3.org/2000/svg" xmlns:xlink="http://www.w3.org/1999/xlink" contentStyleType="text/css" height="170px" preserveAspectRatio="none" style="width:255px;height:170px;background:#FFFFFF;" version="1.1" viewBox="0 0 255 170" width="255px" zoomAndPan="magnify"><defs/><g><!--class ColourChanger--><g id="elem_ColourChanger"><rect codeLine="1" fill="#F1F1F1" height="48" id="ColourChanger" rx="2.5" ry="2.5" style="stroke:#181818;stroke-width:0.5;" width="136" x="9" y="115"/><ellipse cx="24" cy="131" fill="#ADD1B2" rx="11" ry="11" style="stroke:#181818;stroke-width:1.0;"/><path d="M26.9688,136.6406 Q26.3906,136.9375 25.75,137.0781 Q25.1094,137.2344 24.4063,137.2344 Q21.9063,137.2344 20.5781,135.5938 Q19.2656,133.9375 19.2656,130.8125 Q19.2656,127.6875 20.5781,126.0313 Q21.9063,124.375 24.4063,124.375 Q25.1094,124.375 25.75,124.5313 Q26.4063,124.6875 26.9688,124.9844 L26.9688,127.7031 Q26.3438,127.125 25.75,126.8594 Q25.1563,126.5781 24.5313,126.5781 Q23.1875,126.5781 22.5,127.6563 Q21.8125,128.7188 21.8125,130.8125 Q21.8125,132.9063 22.5,133.9844 Q23.1875,135.0469 24.5313,135.0469 Q25.1563,135.0469 25.75,134.7813 Q26.3438,134.5 26.9688,133.9219 L26.9688,136.6406 Z " fill="#000000"/><text fill="#000000" font-family="sans-serif" font-size="14" lengthAdjust="spacing" textLength="104" x="38" y="135.8467">ColourChanger</text><line style="stroke:#181818;stroke-width:0.5;" x1="10" x2="144" y1="147" y2="147"/><line style="stroke:#181818;stroke-width:0.5;" x1="10" x2="144" y1="155" y2="155"/></g><!--class MonoBehaviour--><g id="elem_MonoBehaviour"><rect fill="#F1F1F1" height="48" id="MonoBehaviour" rx="2.5" ry="2.5" style="stroke:#181818;stroke-width:0.5;" width="140" x="7" y="7"/><ellipse cx="22" cy="23" fill="#ADD1B2" rx="11" ry="11" style="stroke:#181818;stroke-width:1.0;"/><path d="M24.9688,28.6406 Q24.3906,28.9375 23.75,29.0781 Q23.1094,29.2344 22.4063,29.2344 Q19.9063,29.2344 18.5781,27.5938 Q17.2656,25.9375 17.2656,22.8125 Q17.2656,19.6875 18.5781,18.0313 Q19.9063,16.375 22.4063,16.375 Q23.1094,16.375 23.75,16.5313 Q24.4063,16.6875 24.9688,16.9844 L24.9688,19.7031 Q24.3438,19.125 23.75,18.8594 Q23.1563,18.5781 22.5313,18.5781 Q21.1875,18.5781 20.5,19.6563 Q19.8125,20.7188 19.8125,22.8125 Q19.8125,24.9063 20.5,25.9844 Q21.1875,27.0469 22.5313,27.0469 Q23.1563,27.0469 23.75,26.7813 Q24.3438,26.5 24.9688,25.9219 L24.9688,28.6406 Z " fill="#000000"/><text fill="#000000" font-family="sans-serif" font-size="14" lengthAdjust="spacing" textLength="108" x="36" y="27.8467">MonoBehaviour</text><line style="stroke:#181818;stroke-width:0.5;" x1="8" x2="146" y1="39" y2="39"/><line style="stroke:#181818;stroke-width:0.5;" x1="8" x2="146" y1="47" y2="47"/></g><!--class Color--><g id="elem_Color"><rect fill="#F1F1F1" height="48" id="Color" rx="2.5" ry="2.5" style="stroke:#181818;stroke-width:0.5;" width="68" x="180" y="115"/><ellipse cx="195" cy="131" fill="#ADD1B2" rx="11" ry="11" style="stroke:#181818;stroke-width:1.0;"/><path d="M197.9688,136.6406 Q197.3906,136.9375 196.75,137.0781 Q196.1094,137.2344 195.4063,137.2344 Q192.9063,137.2344 191.5781,135.5938 Q190.2656,133.9375 190.2656,130.8125 Q190.2656,127.6875 191.5781,126.0313 Q192.9063,124.375 195.4063,124.375 Q196.1094,124.375 196.75,124.5313 Q197.4063,124.6875 197.9688,124.9844 L197.9688,127.7031 Q197.3438,127.125 196.75,126.8594 Q196.1563,126.5781 195.5313,126.5781 Q194.1875,126.5781 193.5,127.6563 Q192.8125,128.7188 192.8125,130.8125 Q192.8125,132.9063 193.5,133.9844 Q194.1875,135.0469 195.5313,135.0469 Q196.1563,135.0469 196.75,134.7813 Q197.3438,134.5 197.9688,133.9219 L197.9688,136.6406 Z " fill="#000000"/><text fill="#000000" font-family="sans-serif" font-size="14" lengthAdjust="spacing" textLength="36" x="209" y="135.8467">Color</text><line style="stroke:#181818;stroke-width:0.5;" x1="181" x2="247" y1="147" y2="147"/><line style="stroke:#181818;stroke-width:0.5;" x1="181" x2="247" y1="155" y2="155"/></g><!--reverse link MonoBehaviour to ColourChanger--><g id="link_MonoBehaviour_ColourChanger"><path codeLine="3" d="M77,75.02 C77,88.58 77,103.04 77,114.68 " fill="none" id="MonoBehaviour-backto-ColourChanger" style="stroke:#181818;stroke-width:1.0;"/><polygon fill="none" points="70,75,77,55,84,75,70,75" style="stroke:#181818;stroke-width:1.0;"/></g><!--link ColourChanger to Color--><g id="link_ColourChanger_Color"><path codeLine="4" d="M158.5,139 C161.28,139 164.07,139 166.85,139 " fill="none" id="ColourChanger-Color" style="stroke:#181818;stroke-width:1.0;"/><polygon fill="none" points="145.23,139,151.23,143,157.23,139,151.23,135,145.23,139" style="stroke:#181818;stroke-width:1.0;"/><polygon fill="#181818" points="179.88,139,170.88,135,174.88,139,170.88,143,179.88,139" style="stroke:#181818;stroke-width:1.0;"/><line style="stroke:#181818;stroke-width:1.0;" x1="174.88" x2="166.88" y1="139" y2="139"/><text fill="#000000" font-family="sans-serif" font-size="13" lengthAdjust="spacing" textLength="31" x="140.9146" y="133.6123">color</text></g><!--SRC=[Iyv9B2vMSCxFoIyjSiv8p4jFBLAevghbyitFotTApKWiomHAADZKwEgYAk92rPAlQwUWb0mKAb82goi20000]--></g></svg>