<?xml version="1.0" encoding="us-ascii" standalone="no"?><svg xmlns="http://www.w3.org/2000/svg" xmlns:xlink="http://www.w3.org/1999/xlink" contentStyleType="text/css" height="117px" preserveAspectRatio="none" style="width:259px;height:117px;background:#FFFFFF;" version="1.1" viewBox="0 0 259 117" width="259px" zoomAndPan="magnify"><defs/><g><!--class Bullet--><g id="elem_Bullet"><rect codeLine="1" fill="#F1F1F1" height="96.8906" id="Bullet" rx="2.5" ry="2.5" style="stroke:#181818;stroke-width:0.5;" width="238" x="7" y="7"/><ellipse cx="42.7" cy="23" fill="#ADD1B2" rx="11" ry="11" style="stroke:#181818;stroke-width:1.0;"/><path d="M45.6688,28.6406 Q45.0906,28.9375 44.45,29.0781 Q43.8094,29.2344 43.1063,29.2344 Q40.6063,29.2344 39.2781,27.5938 Q37.9656,25.9375 37.9656,22.8125 Q37.9656,19.6875 39.2781,18.0313 Q40.6063,16.375 43.1063,16.375 Q43.8094,16.375 44.45,16.5313 Q45.1063,16.6875 45.6688,16.9844 L45.6688,19.7031 Q45.0438,19.125 44.45,18.8594 Q43.8563,18.5781 43.2313,18.5781 Q41.8875,18.5781 41.2,19.6563 Q40.5125,20.7188 40.5125,22.8125 Q40.5125,24.9063 41.2,25.9844 Q41.8875,27.0469 43.2313,27.0469 Q43.8563,27.0469 44.45,26.7813 Q45.0438,26.5 45.6688,25.9219 L45.6688,28.6406 Z " fill="#000000"/><text fill="#000000" font-family="sans-serif" font-size="14" lengthAdjust="spacing" textLength="160" x="61.3" y="27.8467">Bullet : MonoBehaviour</text><line style="stroke:#181818;stroke-width:0.5;" x1="8" x2="244" y1="39" y2="39"/><ellipse cx="18" cy="52.6484" fill="none" rx="3" ry="3" style="stroke:#038048;stroke-width:1.0;"/><text fill="#000000" font-family="sans-serif" font-size="14" lengthAdjust="spacing" textLength="124" x="27" y="55.9951">damage : int = 10</text><rect fill="none" height="6" style="stroke:#C82930;stroke-width:1.0;" width="6" x="15" y="65.9453"/><text fill="#000000" font-family="sans-serif" font-size="14" lengthAdjust="spacing" textLength="128" x="27" y="72.292">speed : float = 10f</text><ellipse cx="18" cy="85.2422" fill="none" rx="3" ry="3" style="stroke:#038048;stroke-width:1.0;"/><text fill="#000000" font-family="sans-serif" font-size="14" lengthAdjust="spacing" textLength="212" x="27" y="88.5889">OnEnemyHit : Action&lt;Enemy&gt;</text><line style="stroke:#181818;stroke-width:0.5;" x1="8" x2="244" y1="95.8906" y2="95.8906"/></g><!--SRC=[Iyv9B2vMK78gpSb9BL6mKl3DpyjtIir8BClCBorIKaWiLe1ALNCf086sGafYRc9wAb1bPbw9Wgs2eG5ON5UXk20rDGKed9QJdmYHI8FgyCzppKlDhVJ819dlc5oIcPzd0nQnuwe50000]--></g></svg>