<?xml version="1.0" encoding="us-ascii" standalone="no"?><svg xmlns="http://www.w3.org/2000/svg" xmlns:xlink="http://www.w3.org/1999/xlink" contentStyleType="text/css" height="359px" preserveAspectRatio="none" style="width:326px;height:359px;background:#FFFFFF;" version="1.1" viewBox="0 0 326 359" width="326px" zoomAndPan="magnify"><defs/><g><!--class Bullet--><g id="elem_Bullet"><rect codeLine="1" fill="#F1F1F1" height="129.4844" id="Bullet" rx="2.5" ry="2.5" style="stroke:#181818;stroke-width:0.5;" width="299" x="20.2938" y="115"/><ellipse cx="146.0438" cy="131" fill="#ADD1B2" rx="11" ry="11" style="stroke:#181818;stroke-width:1.0;"/><path d="M149.0125,136.6406 Q148.4344,136.9375 147.7938,137.0781 Q147.1531,137.2344 146.45,137.2344 Q143.95,137.2344 142.6219,135.5938 Q141.3094,133.9375 141.3094,130.8125 Q141.3094,127.6875 142.6219,126.0313 Q143.95,124.375 146.45,124.375 Q147.1531,124.375 147.7938,124.5313 Q148.45,124.6875 149.0125,124.9844 L149.0125,127.7031 Q148.3875,127.125 147.7938,126.8594 Q147.2,126.5781 146.575,126.5781 Q145.2313,126.5781 144.5438,127.6563 Q143.8563,128.7188 143.8563,130.8125 Q143.8563,132.9063 144.5438,133.9844 Q145.2313,135.0469 146.575,135.0469 Q147.2,135.0469 147.7938,134.7813 Q148.3875,134.5 149.0125,133.9219 L149.0125,136.6406 Z " fill="#000000"/><text fill="#000000" font-family="sans-serif" font-size="14" lengthAdjust="spacing" textLength="39" x="166.5438" y="135.8467">Bullet</text><line style="stroke:#181818;stroke-width:0.5;" x1="21.2938" x2="318.2938" y1="147" y2="147"/><ellipse cx="31.2938" cy="160.6484" fill="none" rx="3" ry="3" style="stroke:#038048;stroke-width:1.0;"/><text fill="#000000" font-family="sans-serif" font-size="14" lengthAdjust="spacing" textLength="124" x="40.2938" y="163.9951">damage : int = 10</text><rect fill="none" height="6" style="stroke:#C82930;stroke-width:1.0;" width="6" x="28.2938" y="173.9453"/><text fill="#000000" font-family="sans-serif" font-size="14" lengthAdjust="spacing" textLength="128" x="40.2938" y="180.292">speed : float = 10f</text><rect fill="none" height="6" style="stroke:#C82930;stroke-width:1.0;" width="6" x="28.2938" y="190.2422"/><text fill="#000000" font-family="sans-serif" font-size="14" lengthAdjust="spacing" textLength="190" x="40.2938" y="196.5889">_hasAlreadyHitEnemy : bool</text><line style="stroke:#181818;stroke-width:0.5;" x1="21.2938" x2="318.2938" y1="203.8906" y2="203.8906"/><rect fill="#F24D5C" height="6" style="stroke:#C82930;stroke-width:1.0;" width="6" x="28.2938" y="214.5391"/><text fill="#000000" font-family="sans-serif" font-size="14" lengthAdjust="spacing" textLength="101" x="40.2938" y="220.8857">Update() : void</text><rect fill="#F24D5C" height="6" style="stroke:#C82930;stroke-width:1.0;" width="6" x="28.2938" y="230.8359"/><text fill="#000000" font-family="sans-serif" font-size="14" lengthAdjust="spacing" textLength="273" x="40.2938" y="237.1826">OnTriggerEnter2D(col:Collider2D) : void</text></g><!--class Action`1--><g id="elem_Action`1"><rect codeLine="8" fill="#F1F1F1" height="48" id="Action`1" rx="2.5" ry="2.5" style="stroke:#181818;stroke-width:0.5;" width="102" x="118.7938" y="304"/><ellipse cx="133.7938" cy="320" fill="#ADD1B2" rx="11" ry="11" style="stroke:#181818;stroke-width:1.0;"/><path d="M136.7625,325.6406 Q136.1844,325.9375 135.5438,326.0781 Q134.9031,326.2344 134.2,326.2344 Q131.7,326.2344 130.3719,324.5938 Q129.0594,322.9375 129.0594,319.8125 Q129.0594,316.6875 130.3719,315.0313 Q131.7,313.375 134.2,313.375 Q134.9031,313.375 135.5438,313.5313 Q136.2,313.6875 136.7625,313.9844 L136.7625,316.7031 Q136.1375,316.125 135.5438,315.8594 Q134.95,315.5781 134.325,315.5781 Q132.9813,315.5781 132.2938,316.6563 Q131.6063,317.7188 131.6063,319.8125 Q131.6063,321.9063 132.2938,322.9844 Q132.9813,324.0469 134.325,324.0469 Q134.95,324.0469 135.5438,323.7813 Q136.1375,323.5 136.7625,322.9219 L136.7625,325.6406 Z " fill="#000000"/><text fill="#000000" font-family="sans-serif" font-size="14" lengthAdjust="spacing" textLength="59" x="147.7938" y="324.8467">Action`1</text><rect fill="#FFFFFF" height="15.9688" style="stroke:#181818;stroke-width:1.0;stroke-dasharray:2.0,2.0;" width="9" x="214.7938" y="301"/><text fill="#000000" font-family="sans-serif" font-size="12" font-style="italic" lengthAdjust="spacing" textLength="7" x="215.7938" y="313.1387">T</text><line style="stroke:#181818;stroke-width:0.5;" x1="119.7938" x2="219.7938" y1="336" y2="336"/><line style="stroke:#181818;stroke-width:0.5;" x1="119.7938" x2="219.7938" y1="344" y2="344"/></g><!--class MonoBehaviour--><g id="elem_MonoBehaviour"><rect fill="#F1F1F1" height="48" id="MonoBehaviour" rx="2.5" ry="2.5" style="stroke:#181818;stroke-width:0.5;" width="140" x="99.7938" y="7"/><ellipse cx="114.7938" cy="23" fill="#ADD1B2" rx="11" ry="11" style="stroke:#181818;stroke-width:1.0;"/><path d="M117.7625,28.6406 Q117.1844,28.9375 116.5438,29.0781 Q115.9031,29.2344 115.2,29.2344 Q112.7,29.2344 111.3719,27.5938 Q110.0594,25.9375 110.0594,22.8125 Q110.0594,19.6875 111.3719,18.0313 Q112.7,16.375 115.2,16.375 Q115.9031,16.375 116.5438,16.5313 Q117.2,16.6875 117.7625,16.9844 L117.7625,19.7031 Q117.1375,19.125 116.5438,18.8594 Q115.95,18.5781 115.325,18.5781 Q113.9813,18.5781 113.2938,19.6563 Q112.6063,20.7188 112.6063,22.8125 Q112.6063,24.9063 113.2938,25.9844 Q113.9813,27.0469 115.325,27.0469 Q115.95,27.0469 116.5438,26.7813 Q117.1375,26.5 117.7625,25.9219 L117.7625,28.6406 Z " fill="#000000"/><text fill="#000000" font-family="sans-serif" font-size="14" lengthAdjust="spacing" textLength="108" x="128.7938" y="27.8467">MonoBehaviour</text><line style="stroke:#181818;stroke-width:0.5;" x1="100.7938" x2="238.7938" y1="39" y2="39"/><line style="stroke:#181818;stroke-width:0.5;" x1="100.7938" x2="238.7938" y1="47" y2="47"/></g><!--reverse link MonoBehaviour to Bullet--><g id="link_MonoBehaviour_Bullet"><path codeLine="10" d="M169.7938,75.6 C169.7938,87.95 169.7938,101.66 169.7938,114.93 " fill="none" id="MonoBehaviour-backto-Bullet" style="stroke:#181818;stroke-width:1.0;"/><polygon fill="none" points="162.7938,75.21,169.7938,55.21,176.7938,75.21,162.7938,75.21" style="stroke:#181818;stroke-width:1.0;"/></g><!--link Bullet to Action`1--><g id="link_Bullet_Action`1"><path codeLine="11" d="M169.7938,244.33 C169.7938,263.31 169.7938,283.15 169.7938,298.64 " fill="none" id="Bullet-to-Action`1" style="stroke:#181818;stroke-width:1.0;"/><polygon fill="#181818" points="169.7938,303.71,173.7938,294.71,169.7938,298.71,165.7938,294.71,169.7938,303.71" style="stroke:#181818;stroke-width:1.0;"/><text fill="#000000" font-family="sans-serif" font-size="13" lengthAdjust="spacing" textLength="146" x="6" y="293.0443">OnEnemyHit&lt;Enemy&gt;</text></g><!--SRC=[JO_D2i8m48JlVOgbfue4r6Ef1V_0YtYfPutDsWQssPAc1L7VtLY3kAVTRuPbfYJPTR3kYT318m8_Kr2oaHL22jeuMC9yDd81NOkeFBuHowzm2ygvbjsAB4frtsktCzZSlU_AJC5mQfLqc4my7LYhG8-ciBggqEwCGxlO9YLJkc4YhJxdp_sAoZ5dl2gTPdEPnrcH-xYlwC26rrZBGNDl8NiA4Sf4ePCGESH7CqRoqR9noUE_Lsy0]--></g></svg>