<?xml version="1.0" encoding="us-ascii" standalone="no"?><svg xmlns="http://www.w3.org/2000/svg" xmlns:xlink="http://www.w3.org/1999/xlink" contentStyleType="text/css" height="117px" preserveAspectRatio="none" style="width:250px;height:117px;background:#FFFFFF;" version="1.1" viewBox="0 0 250 117" width="250px" zoomAndPan="magnify"><defs/><g><!--class CashNotif--><g id="elem_CashNotif"><rect codeLine="1" fill="#F1F1F1" height="96.8906" id="CashNotif" rx="2.5" ry="2.5" style="stroke:#181818;stroke-width:0.5;" width="229" x="7" y="7"/><ellipse cx="26.5" cy="23" fill="#ADD1B2" rx="11" ry="11" style="stroke:#181818;stroke-width:1.0;"/><path d="M29.4688,28.6406 Q28.8906,28.9375 28.25,29.0781 Q27.6094,29.2344 26.9063,29.2344 Q24.4063,29.2344 23.0781,27.5938 Q21.7656,25.9375 21.7656,22.8125 Q21.7656,19.6875 23.0781,18.0313 Q24.4063,16.375 26.9063,16.375 Q27.6094,16.375 28.25,16.5313 Q28.9063,16.6875 29.4688,16.9844 L29.4688,19.7031 Q28.8438,19.125 28.25,18.8594 Q27.6563,18.5781 27.0313,18.5781 Q25.6875,18.5781 25,19.6563 Q24.3125,20.7188 24.3125,22.8125 Q24.3125,24.9063 25,25.9844 Q25.6875,27.0469 27.0313,27.0469 Q27.6563,27.0469 28.25,26.7813 Q28.8438,26.5 29.4688,25.9219 L29.4688,28.6406 Z " fill="#000000"/><text fill="#000000" font-family="sans-serif" font-size="14" lengthAdjust="spacing" textLength="187" x="41.5" y="27.8467">CashNotif : MonoBehaviour</text><line style="stroke:#181818;stroke-width:0.5;" x1="8" x2="235" y1="39" y2="39"/><rect fill="none" height="6" style="stroke:#C82930;stroke-width:1.0;" width="6" x="15" y="49.6484"/><text fill="#000000" font-family="sans-serif" font-size="14" lengthAdjust="spacing" textLength="168" x="27" y="55.9951">timeToDisplay : float = 1</text><rect fill="none" height="6" style="stroke:#C82930;stroke-width:1.0;" width="6" x="15" y="65.9453"/><text fill="#000000" font-family="sans-serif" font-size="14" lengthAdjust="spacing" textLength="173" x="27" y="72.292">moveUpSpeed : float = 1</text><line style="stroke:#181818;stroke-width:0.5;" x1="8" x2="235" y1="79.5938" y2="79.5938"/><ellipse cx="18" cy="93.2422" fill="#84BE84" rx="3" ry="3" style="stroke:#038048;stroke-width:1.0;"/><text fill="#000000" font-family="sans-serif" font-size="14" lengthAdjust="spacing" textLength="203" x="27" y="96.5889">SetAmount(amount:int) : void</text></g><!--SRC=[Iyv9B2vMK79EBCxmoo_9J5EmKl3DpyjtIir8BClCBorIKaWiLa38LdCf086kGabcRcf8lajcSK5EOYLGJrfEVcA9Wgs28LG-DxyiDRGWk20rDGL3LbiXEBN4CJU_DAz48n5CMMNcbMW2rPNbPwPmrG80]--></g></svg>