<?xml version="1.0" encoding="us-ascii" standalone="no"?><svg xmlns="http://www.w3.org/2000/svg" xmlns:xlink="http://www.w3.org/1999/xlink" contentStyleType="text/css" height="376px" preserveAspectRatio="none" style="width:243px;height:376px;background:#FFFFFF;" version="1.1" viewBox="0 0 243 376" width="243px" zoomAndPan="magnify"><defs/><g><!--class CashNotif--><g id="elem_CashNotif"><rect codeLine="1" fill="#F1F1F1" height="145.7813" id="CashNotif" rx="2.5" ry="2.5" style="stroke:#181818;stroke-width:0.5;" width="229" x="7" y="115"/><ellipse cx="84.25" cy="131" fill="#ADD1B2" rx="11" ry="11" style="stroke:#181818;stroke-width:1.0;"/><path d="M87.2188,136.6406 Q86.6406,136.9375 86,137.0781 Q85.3594,137.2344 84.6563,137.2344 Q82.1563,137.2344 80.8281,135.5938 Q79.5156,133.9375 79.5156,130.8125 Q79.5156,127.6875 80.8281,126.0313 Q82.1563,124.375 84.6563,124.375 Q85.3594,124.375 86,124.5313 Q86.6563,124.6875 87.2188,124.9844 L87.2188,127.7031 Q86.5938,127.125 86,126.8594 Q85.4063,126.5781 84.7813,126.5781 Q83.4375,126.5781 82.75,127.6563 Q82.0625,128.7188 82.0625,130.8125 Q82.0625,132.9063 82.75,133.9844 Q83.4375,135.0469 84.7813,135.0469 Q85.4063,135.0469 86,134.7813 Q86.5938,134.5 87.2188,133.9219 L87.2188,136.6406 Z " fill="#000000"/><text fill="#000000" font-family="sans-serif" font-size="14" lengthAdjust="spacing" textLength="66" x="104.75" y="135.8467">CashNotif</text><line style="stroke:#181818;stroke-width:0.5;" x1="8" x2="235" y1="147" y2="147"/><rect fill="none" height="6" style="stroke:#C82930;stroke-width:1.0;" width="6" x="15" y="157.6484"/><text fill="#000000" font-family="sans-serif" font-size="14" lengthAdjust="spacing" textLength="168" x="27" y="163.9951">timeToDisplay : float = 1</text><rect fill="none" height="6" style="stroke:#C82930;stroke-width:1.0;" width="6" x="15" y="173.9453"/><text fill="#000000" font-family="sans-serif" font-size="14" lengthAdjust="spacing" textLength="173" x="27" y="180.292">moveUpSpeed : float = 1</text><line style="stroke:#181818;stroke-width:0.5;" x1="8" x2="235" y1="187.5938" y2="187.5938"/><rect fill="#F24D5C" height="6" style="stroke:#C82930;stroke-width:1.0;" width="6" x="15" y="198.2422"/><text fill="#000000" font-family="sans-serif" font-size="14" lengthAdjust="spacing" textLength="96" x="27" y="204.5889">Awake() : void</text><ellipse cx="18" cy="217.5391" fill="#84BE84" rx="3" ry="3" style="stroke:#038048;stroke-width:1.0;"/><text fill="#000000" font-family="sans-serif" font-size="14" lengthAdjust="spacing" textLength="203" x="27" y="220.8857">SetAmount(amount:int) : void</text><rect fill="#F24D5C" height="6" style="stroke:#C82930;stroke-width:1.0;" width="6" x="15" y="230.8359"/><text fill="#000000" font-family="sans-serif" font-size="14" lengthAdjust="spacing" textLength="101" x="27" y="237.1826">Update() : void</text><rect fill="#F24D5C" height="6" style="stroke:#C82930;stroke-width:1.0;" width="6" x="15" y="247.1328"/><text fill="#000000" font-family="sans-serif" font-size="14" lengthAdjust="spacing" textLength="177" x="27" y="253.4795">Disappear() : IEnumerator</text></g><!--class MonoBehaviour--><g id="elem_MonoBehaviour"><rect fill="#F1F1F1" height="48" id="MonoBehaviour" rx="2.5" ry="2.5" style="stroke:#181818;stroke-width:0.5;" width="140" x="51.5" y="7"/><ellipse cx="66.5" cy="23" fill="#ADD1B2" rx="11" ry="11" style="stroke:#181818;stroke-width:1.0;"/><path d="M69.4688,28.6406 Q68.8906,28.9375 68.25,29.0781 Q67.6094,29.2344 66.9063,29.2344 Q64.4063,29.2344 63.0781,27.5938 Q61.7656,25.9375 61.7656,22.8125 Q61.7656,19.6875 63.0781,18.0313 Q64.4063,16.375 66.9063,16.375 Q67.6094,16.375 68.25,16.5313 Q68.9063,16.6875 69.4688,16.9844 L69.4688,19.7031 Q68.8438,19.125 68.25,18.8594 Q67.6563,18.5781 67.0313,18.5781 Q65.6875,18.5781 65,19.6563 Q64.3125,20.7188 64.3125,22.8125 Q64.3125,24.9063 65,25.9844 Q65.6875,27.0469 67.0313,27.0469 Q67.6563,27.0469 68.25,26.7813 Q68.8438,26.5 69.4688,25.9219 L69.4688,28.6406 Z " fill="#000000"/><text fill="#000000" font-family="sans-serif" font-size="14" lengthAdjust="spacing" textLength="108" x="80.5" y="27.8467">MonoBehaviour</text><line style="stroke:#181818;stroke-width:0.5;" x1="52.5" x2="190.5" y1="39" y2="39"/><line style="stroke:#181818;stroke-width:0.5;" x1="52.5" x2="190.5" y1="47" y2="47"/></g><!--class TMP_Text--><g id="elem_TMP_Text"><rect fill="#F1F1F1" height="48" id="TMP_Text" rx="2.5" ry="2.5" style="stroke:#181818;stroke-width:0.5;" width="99" x="72" y="321"/><ellipse cx="87" cy="337" fill="#ADD1B2" rx="11" ry="11" style="stroke:#181818;stroke-width:1.0;"/><path d="M89.9688,342.6406 Q89.3906,342.9375 88.75,343.0781 Q88.1094,343.2344 87.4063,343.2344 Q84.9063,343.2344 83.5781,341.5938 Q82.2656,339.9375 82.2656,336.8125 Q82.2656,333.6875 83.5781,332.0313 Q84.9063,330.375 87.4063,330.375 Q88.1094,330.375 88.75,330.5313 Q89.4063,330.6875 89.9688,330.9844 L89.9688,333.7031 Q89.3438,333.125 88.75,332.8594 Q88.1563,332.5781 87.5313,332.5781 Q86.1875,332.5781 85.5,333.6563 Q84.8125,334.7188 84.8125,336.8125 Q84.8125,338.9063 85.5,339.9844 Q86.1875,341.0469 87.5313,341.0469 Q88.1563,341.0469 88.75,340.7813 Q89.3438,340.5 89.9688,339.9219 L89.9688,342.6406 Z " fill="#000000"/><text fill="#000000" font-family="sans-serif" font-size="14" lengthAdjust="spacing" textLength="67" x="101" y="341.8467">TMP_Text</text><line style="stroke:#181818;stroke-width:0.5;" x1="73" x2="170" y1="353" y2="353"/><line style="stroke:#181818;stroke-width:0.5;" x1="73" x2="170" y1="361" y2="361"/></g><!--reverse link MonoBehaviour to CashNotif--><g id="link_MonoBehaviour_CashNotif"><path codeLine="9" d="M121.5,75.41 C121.5,87.69 121.5,101.39 121.5,114.88 " fill="none" id="MonoBehaviour-backto-CashNotif" style="stroke:#181818;stroke-width:1.0;"/><polygon fill="none" points="114.5,75.21,121.5,55.21,128.5,75.21,114.5,75.21" style="stroke:#181818;stroke-width:1.0;"/></g><!--link CashNotif to TMP_Text--><g id="link_CashNotif_TMP_Text"><path codeLine="10" d="M121.5,261.05 C121.5,280.52 121.5,300.44 121.5,315.88 " fill="none" id="CashNotif-to-TMP_Text" style="stroke:#181818;stroke-width:1.0;"/><polygon fill="#181818" points="121.5,320.94,125.5,311.94,121.5,315.94,117.5,311.94,121.5,320.94" style="stroke:#181818;stroke-width:1.0;"/><text fill="#000000" font-family="sans-serif" font-size="13" lengthAdjust="spacing" textLength="32" x="85.4" y="309.9367">_text</text></g><!--SRC=[ROzF2u904CNlVeh1an5xw2eLs9z31oDGppBaY4lgBBkZ5TLtJoIGehdCy7xpuBrpZSx15brrPD4bF3mOHe7eXbBUQMTgl4C8PSqei8B5XpVSKsOIGrJyeT4LBnJC1jApBaPn3Wb9r73NIe3Z2dKhNoyACbEW_1WL32dG648xWiE-xHgoA6ozbnTponkgiDVSMLW-bPhAU5CjfTRWvq8tyI6DJtawN6y0]--></g></svg>