<?xml version="1.0" encoding="us-ascii" standalone="no"?><svg xmlns="http://www.w3.org/2000/svg" xmlns:xlink="http://www.w3.org/1999/xlink" contentStyleType="text/css" height="555px" preserveAspectRatio="none" style="width:876px;height:555px;background:#FFFFFF;" version="1.1" viewBox="0 0 876 555" width="876px" zoomAndPan="magnify"><defs/><g><!--class Enemy--><g id="elem_Enemy"><rect codeLine="1" fill="#F1F1F1" height="325.0469" id="Enemy" rx="2.5" ry="2.5" style="stroke:#181818;stroke-width:0.5;" width="556" x="7" y="115"/><ellipse cx="257.25" cy="131" fill="#ADD1B2" rx="11" ry="11" style="stroke:#181818;stroke-width:1.0;"/><path d="M260.2188,136.6406 Q259.6406,136.9375 259,137.0781 Q258.3594,137.2344 257.6563,137.2344 Q255.1563,137.2344 253.8281,135.5938 Q252.5156,133.9375 252.5156,130.8125 Q252.5156,127.6875 253.8281,126.0313 Q255.1563,124.375 257.6563,124.375 Q258.3594,124.375 259,124.5313 Q259.6563,124.6875 260.2188,124.9844 L260.2188,127.7031 Q259.5938,127.125 259,126.8594 Q258.4063,126.5781 257.7813,126.5781 Q256.4375,126.5781 255.75,127.6563 Q255.0625,128.7188 255.0625,130.8125 Q255.0625,132.9063 255.75,133.9844 Q256.4375,135.0469 257.7813,135.0469 Q258.4063,135.0469 259,134.7813 Q259.5938,134.5 260.2188,133.9219 L260.2188,136.6406 Z " fill="#000000"/><text fill="#000000" font-family="sans-serif" font-size="14" lengthAdjust="spacing" textLength="47" x="277.75" y="135.8467">Enemy</text><line style="stroke:#181818;stroke-width:0.5;" x1="8" x2="562" y1="147" y2="147"/><rect fill="none" height="6" style="stroke:#C82930;stroke-width:1.0;" width="6" x="15" y="157.6484"/><text fill="#000000" font-family="sans-serif" font-size="14" lengthAdjust="spacing" textLength="119" x="27" y="163.9951">speed : float = 5f</text><rect fill="none" height="6" style="stroke:#C82930;stroke-width:1.0;" width="6" x="15" y="173.9453"/><text fill="#000000" font-family="sans-serif" font-size="14" lengthAdjust="spacing" textLength="168" x="27" y="180.292">startHealth : float = 100f</text><rect fill="none" height="6" style="stroke:#C82930;stroke-width:1.0;" width="6" x="15" y="190.2422"/><text fill="#000000" font-family="sans-serif" font-size="14" lengthAdjust="spacing" textLength="92" x="27" y="196.5889">_health : float</text><rect fill="none" height="6" style="stroke:#C82930;stroke-width:1.0;" width="6" x="15" y="206.5391"/><text fill="#000000" font-family="sans-serif" font-size="14" lengthAdjust="spacing" textLength="246" x="27" y="212.8857">bodyCornerTurnSpeed : float = 0.1f</text><rect fill="none" height="6" style="stroke:#C82930;stroke-width:1.0;" width="6" x="15" y="222.8359"/><text fill="#000000" font-family="sans-serif" font-size="14" lengthAdjust="spacing" textLength="250" x="27" y="229.1826">turretCornerTurnSpeed : float = 0.1f</text><rect fill="none" height="6" style="stroke:#C82930;stroke-width:1.0;" width="6" x="15" y="239.1328"/><text fill="#000000" font-family="sans-serif" font-size="14" lengthAdjust="spacing" textLength="234" x="27" y="245.4795">turretRotationAmount : float = 45f</text><rect fill="none" height="6" style="stroke:#C82930;stroke-width:1.0;" width="6" x="15" y="255.4297"/><text fill="#000000" font-family="sans-serif" font-size="14" lengthAdjust="spacing" textLength="190" x="27" y="261.7764">_turretRotationSpeed : float</text><rect fill="none" height="6" style="stroke:#C82930;stroke-width:1.0;" width="6" x="15" y="271.7266"/><text fill="#000000" font-family="sans-serif" font-size="14" lengthAdjust="spacing" textLength="128" x="27" y="278.0732">_turretOffset : float</text><rect fill="none" height="6" style="stroke:#C82930;stroke-width:1.0;" width="6" x="15" y="288.0234"/><text fill="#000000" font-family="sans-serif" font-size="14" lengthAdjust="spacing" textLength="153" x="27" y="294.3701">moneyValue : int = 10</text><rect fill="none" height="6" style="stroke:#C82930;stroke-width:1.0;" width="6" x="15" y="304.3203"/><text fill="#000000" font-family="sans-serif" font-size="14" lengthAdjust="spacing" textLength="125" x="27" y="310.667">_isDebuffed : bool</text><line style="stroke:#181818;stroke-width:0.5;" x1="8" x2="562" y1="317.9688" y2="317.9688"/><rect fill="#F24D5C" height="6" style="stroke:#C82930;stroke-width:1.0;" width="6" x="15" y="328.6172"/><text fill="#000000" font-family="sans-serif" font-size="14" lengthAdjust="spacing" textLength="83" x="27" y="334.9639">Start() : void</text><rect fill="#F24D5C" height="6" style="stroke:#C82930;stroke-width:1.0;" width="6" x="15" y="344.9141"/><text fill="#000000" font-family="sans-serif" font-size="14" lengthAdjust="spacing" textLength="101" x="27" y="351.2607">Update() : void</text><rect fill="#F24D5C" height="6" style="stroke:#C82930;stroke-width:1.0;" width="6" x="15" y="361.2109"/><text fill="#000000" font-family="sans-serif" font-size="14" lengthAdjust="spacing" textLength="182" x="27" y="367.5576">ChooseNextNode() : Node</text><ellipse cx="18" cy="380.5078" fill="#84BE84" rx="3" ry="3" style="stroke:#038048;stroke-width:1.0;"/><text fill="#000000" font-family="sans-serif" font-size="14" lengthAdjust="spacing" textLength="196" x="27" y="383.8545">Damage(amount:float) : void</text><ellipse cx="18" cy="396.8047" fill="#84BE84" rx="3" ry="3" style="stroke:#038048;stroke-width:1.0;"/><text fill="#000000" font-family="sans-serif" font-size="14" lengthAdjust="spacing" textLength="406" x="27" y="400.1514">Debuff(factor:float, duration:float, visual:GameObject) : void</text><rect fill="#F24D5C" height="6" style="stroke:#C82930;stroke-width:1.0;" width="6" x="15" y="410.1016"/><text fill="#000000" font-family="sans-serif" font-size="14" lengthAdjust="spacing" textLength="530" x="27" y="416.4482">DebuffCoroutine(factor:float, duration:float, visual:GameObject) : IEnumerator</text><rect fill="#F24D5C" height="6" style="stroke:#C82930;stroke-width:1.0;" width="6" x="15" y="426.3984"/><text fill="#000000" font-family="sans-serif" font-size="14" lengthAdjust="spacing" textLength="74" x="27" y="432.7451">Die() : void</text></g><!--class MonoBehaviour--><g id="elem_MonoBehaviour"><rect fill="#F1F1F1" height="48" id="MonoBehaviour" rx="2.5" ry="2.5" style="stroke:#181818;stroke-width:0.5;" width="140" x="215" y="7"/><ellipse cx="230" cy="23" fill="#ADD1B2" rx="11" ry="11" style="stroke:#181818;stroke-width:1.0;"/><path d="M232.9688,28.6406 Q232.3906,28.9375 231.75,29.0781 Q231.1094,29.2344 230.4063,29.2344 Q227.9063,29.2344 226.5781,27.5938 Q225.2656,25.9375 225.2656,22.8125 Q225.2656,19.6875 226.5781,18.0313 Q227.9063,16.375 230.4063,16.375 Q231.1094,16.375 231.75,16.5313 Q232.4063,16.6875 232.9688,16.9844 L232.9688,19.7031 Q232.3438,19.125 231.75,18.8594 Q231.1563,18.5781 230.5313,18.5781 Q229.1875,18.5781 228.5,19.6563 Q227.8125,20.7188 227.8125,22.8125 Q227.8125,24.9063 228.5,25.9844 Q229.1875,27.0469 230.5313,27.0469 Q231.1563,27.0469 231.75,26.7813 Q232.3438,26.5 232.9688,25.9219 L232.9688,28.6406 Z " fill="#000000"/><text fill="#000000" font-family="sans-serif" font-size="14" lengthAdjust="spacing" textLength="108" x="244" y="27.8467">MonoBehaviour</text><line style="stroke:#181818;stroke-width:0.5;" x1="216" x2="354" y1="39" y2="39"/><line style="stroke:#181818;stroke-width:0.5;" x1="216" x2="354" y1="47" y2="47"/></g><!--class Node--><g id="elem_Node"><rect fill="#F1F1F1" height="48" id="Node" rx="2.5" ry="2.5" style="stroke:#181818;stroke-width:0.5;" width="69" x="198.5" y="500"/><ellipse cx="213.5" cy="516" fill="#ADD1B2" rx="11" ry="11" style="stroke:#181818;stroke-width:1.0;"/><path d="M216.4688,521.6406 Q215.8906,521.9375 215.25,522.0781 Q214.6094,522.2344 213.9063,522.2344 Q211.4063,522.2344 210.0781,520.5938 Q208.7656,518.9375 208.7656,515.8125 Q208.7656,512.6875 210.0781,511.0313 Q211.4063,509.375 213.9063,509.375 Q214.6094,509.375 215.25,509.5313 Q215.9063,509.6875 216.4688,509.9844 L216.4688,512.7031 Q215.8438,512.125 215.25,511.8594 Q214.6563,511.5781 214.0313,511.5781 Q212.6875,511.5781 212,512.6563 Q211.3125,513.7188 211.3125,515.8125 Q211.3125,517.9063 212,518.9844 Q212.6875,520.0469 214.0313,520.0469 Q214.6563,520.0469 215.25,519.7813 Q215.8438,519.5 216.4688,518.9219 L216.4688,521.6406 Z " fill="#000000"/><text fill="#000000" font-family="sans-serif" font-size="14" lengthAdjust="spacing" textLength="37" x="227.5" y="520.8467">Node</text><line style="stroke:#181818;stroke-width:0.5;" x1="199.5" x2="266.5" y1="532" y2="532"/><line style="stroke:#181818;stroke-width:0.5;" x1="199.5" x2="266.5" y1="540" y2="540"/></g><!--class Slider--><g id="elem_Slider"><rect fill="#F1F1F1" height="48" id="Slider" rx="2.5" ry="2.5" style="stroke:#181818;stroke-width:0.5;" width="70" x="303" y="500"/><ellipse cx="318" cy="516" fill="#ADD1B2" rx="11" ry="11" style="stroke:#181818;stroke-width:1.0;"/><path d="M320.9688,521.6406 Q320.3906,521.9375 319.75,522.0781 Q319.1094,522.2344 318.4063,522.2344 Q315.9063,522.2344 314.5781,520.5938 Q313.2656,518.9375 313.2656,515.8125 Q313.2656,512.6875 314.5781,511.0313 Q315.9063,509.375 318.4063,509.375 Q319.1094,509.375 319.75,509.5313 Q320.4063,509.6875 320.9688,509.9844 L320.9688,512.7031 Q320.3438,512.125 319.75,511.8594 Q319.1563,511.5781 318.5313,511.5781 Q317.1875,511.5781 316.5,512.6563 Q315.8125,513.7188 315.8125,515.8125 Q315.8125,517.9063 316.5,518.9844 Q317.1875,520.0469 318.5313,520.0469 Q319.1563,520.0469 319.75,519.7813 Q320.3438,519.5 320.9688,518.9219 L320.9688,521.6406 Z " fill="#000000"/><text fill="#000000" font-family="sans-serif" font-size="14" lengthAdjust="spacing" textLength="38" x="332" y="520.8467">Slider</text><line style="stroke:#181818;stroke-width:0.5;" x1="304" x2="372" y1="532" y2="532"/><line style="stroke:#181818;stroke-width:0.5;" x1="304" x2="372" y1="540" y2="540"/></g><!--class Transform--><g id="elem_Transform"><rect fill="#F1F1F1" height="48" id="Transform" rx="2.5" ry="2.5" style="stroke:#181818;stroke-width:0.5;" width="102" x="408" y="500"/><ellipse cx="423" cy="516" fill="#ADD1B2" rx="11" ry="11" style="stroke:#181818;stroke-width:1.0;"/><path d="M425.9688,521.6406 Q425.3906,521.9375 424.75,522.0781 Q424.1094,522.2344 423.4063,522.2344 Q420.9063,522.2344 419.5781,520.5938 Q418.2656,518.9375 418.2656,515.8125 Q418.2656,512.6875 419.5781,511.0313 Q420.9063,509.375 423.4063,509.375 Q424.1094,509.375 424.75,509.5313 Q425.4063,509.6875 425.9688,509.9844 L425.9688,512.7031 Q425.3438,512.125 424.75,511.8594 Q424.1563,511.5781 423.5313,511.5781 Q422.1875,511.5781 421.5,512.6563 Q420.8125,513.7188 420.8125,515.8125 Q420.8125,517.9063 421.5,518.9844 Q422.1875,520.0469 423.5313,520.0469 Q424.1563,520.0469 424.75,519.7813 Q425.3438,519.5 425.9688,518.9219 L425.9688,521.6406 Z " fill="#000000"/><text fill="#000000" font-family="sans-serif" font-size="14" lengthAdjust="spacing" textLength="70" x="437" y="520.8467">Transform</text><line style="stroke:#181818;stroke-width:0.5;" x1="409" x2="509" y1="532" y2="532"/><line style="stroke:#181818;stroke-width:0.5;" x1="409" x2="509" y1="540" y2="540"/></g><!--class Vector2--><g id="elem_Vector2"><rect fill="#F1F1F1" height="48" id="Vector2" rx="2.5" ry="2.5" style="stroke:#181818;stroke-width:0.5;" width="86" x="598" y="253.5"/><ellipse cx="613" cy="269.5" fill="#ADD1B2" rx="11" ry="11" style="stroke:#181818;stroke-width:1.0;"/><path d="M615.9688,275.1406 Q615.3906,275.4375 614.75,275.5781 Q614.1094,275.7344 613.4063,275.7344 Q610.9063,275.7344 609.5781,274.0938 Q608.2656,272.4375 608.2656,269.3125 Q608.2656,266.1875 609.5781,264.5313 Q610.9063,262.875 613.4063,262.875 Q614.1094,262.875 614.75,263.0313 Q615.4063,263.1875 615.9688,263.4844 L615.9688,266.2031 Q615.3438,265.625 614.75,265.3594 Q614.1563,265.0781 613.5313,265.0781 Q612.1875,265.0781 611.5,266.1563 Q610.8125,267.2188 610.8125,269.3125 Q610.8125,271.4063 611.5,272.4844 Q612.1875,273.5469 613.5313,273.5469 Q614.1563,273.5469 614.75,273.2813 Q615.3438,273 615.9688,272.4219 L615.9688,275.1406 Z " fill="#000000"/><text fill="#000000" font-family="sans-serif" font-size="14" lengthAdjust="spacing" textLength="54" x="627" y="274.3467">Vector2</text><line style="stroke:#181818;stroke-width:0.5;" x1="599" x2="683" y1="285.5" y2="285.5"/><line style="stroke:#181818;stroke-width:0.5;" x1="599" x2="683" y1="293.5" y2="293.5"/></g><!--class GameObject--><g id="elem_GameObject"><rect fill="#F1F1F1" height="48" id="GameObject" rx="2.5" ry="2.5" style="stroke:#181818;stroke-width:0.5;" width="118" x="545" y="500"/><ellipse cx="560" cy="516" fill="#ADD1B2" rx="11" ry="11" style="stroke:#181818;stroke-width:1.0;"/><path d="M562.9688,521.6406 Q562.3906,521.9375 561.75,522.0781 Q561.1094,522.2344 560.4063,522.2344 Q557.9063,522.2344 556.5781,520.5938 Q555.2656,518.9375 555.2656,515.8125 Q555.2656,512.6875 556.5781,511.0313 Q557.9063,509.375 560.4063,509.375 Q561.1094,509.375 561.75,509.5313 Q562.4063,509.6875 562.9688,509.9844 L562.9688,512.7031 Q562.3438,512.125 561.75,511.8594 Q561.1563,511.5781 560.5313,511.5781 Q559.1875,511.5781 558.5,512.6563 Q557.8125,513.7188 557.8125,515.8125 Q557.8125,517.9063 558.5,518.9844 Q559.1875,520.0469 560.5313,520.0469 Q561.1563,520.0469 561.75,519.7813 Q562.3438,519.5 562.9688,518.9219 L562.9688,521.6406 Z " fill="#000000"/><text fill="#000000" font-family="sans-serif" font-size="14" lengthAdjust="spacing" textLength="86" x="574" y="520.8467">GameObject</text><line style="stroke:#181818;stroke-width:0.5;" x1="546" x2="662" y1="532" y2="532"/><line style="stroke:#181818;stroke-width:0.5;" x1="546" x2="662" y1="540" y2="540"/></g><!--reverse link MonoBehaviour to Enemy--><g id="link_MonoBehaviour_Enemy"><path codeLine="20" d="M285,75.27 C285,87.02 285,100.48 285,114.74 " fill="none" id="MonoBehaviour-backto-Enemy" style="stroke:#181818;stroke-width:1.0;"/><polygon fill="none" points="278,75,285,55,292,75,278,75" style="stroke:#181818;stroke-width:1.0;"/></g><!--link Enemy to Node--><g id="link_Enemy_Node"><path codeLine="21" d="M213.47,440.22 C211.09,460.95 210.72,479.97 212.94,494.55 " fill="none" id="Enemy-to-Node" style="stroke:#181818;stroke-width:1.0;"/><polygon fill="#181818" points="213.87,499.71,216.2102,490.1432,212.9831,494.7893,208.3371,491.5622,213.87,499.71" style="stroke:#181818;stroke-width:1.0;"/><text fill="#000000" font-family="sans-serif" font-size="13" lengthAdjust="spacing" textLength="76" x="123.9446" y="489.0443">_beginNode</text></g><!--link Enemy to Node--><g id="link_Enemy_Node"><path codeLine="22" d="M238.46,440.22 C234.72,460.95 231.87,479.97 230.51,494.55 " fill="none" id="Enemy-to-Node-1" style="stroke:#181818;stroke-width:1.0;"/><polygon fill="#181818" points="230.08,499.71,234.8136,491.0733,230.4952,494.7273,226.8412,490.4089,230.08,499.71" style="stroke:#181818;stroke-width:1.0;"/><text fill="#000000" font-family="sans-serif" font-size="13" lengthAdjust="spacing" textLength="65" x="237.1835" y="488.9826">_endNode</text></g><!--link Enemy to Node--><g id="link_Enemy_Node"><path codeLine="23" d="M263.46,440.22 C258.31,461.13 252.94,480.31 247.96,494.93 " fill="none" id="Enemy-to-Node-2" style="stroke:#181818;stroke-width:1.0;"/><polygon fill="#181818" points="246.29,499.71,253.0483,492.5458,247.9481,494.9929,245.501,489.8928,246.29,499.71" style="stroke:#181818;stroke-width:1.0;"/><text fill="#000000" font-family="sans-serif" font-size="13" lengthAdjust="spacing" textLength="87" x="117.7512" y="488.782">_currentNode</text></g><!--link Enemy to Node--><g id="link_Enemy_Node"><path codeLine="24" d="M288.45,440.22 C281.87,461.31 273.92,480.64 265.22,495.31 " fill="none" id="Enemy-to-Node-3" style="stroke:#181818;stroke-width:1.0;"/><polygon fill="#181818" points="262.5,499.71,270.6318,494.1536,265.1269,495.4556,263.8248,489.9507,262.5,499.71" style="stroke:#181818;stroke-width:1.0;"/><text fill="#000000" font-family="sans-serif" font-size="13" lengthAdjust="spacing" textLength="69" x="274.7878" y="488.9783">_nextNode</text></g><!--link Enemy to Slider--><g id="link_Enemy_Slider"><path codeLine="25" d="M320.06,440.22 C324.55,460.95 328.67,479.97 331.83,494.55 " fill="none" id="Enemy-to-Slider" style="stroke:#181818;stroke-width:1.0;"/><polygon fill="#181818" points="332.95,499.71,334.9562,490.0676,331.8926,494.8231,327.1371,491.7595,332.95,499.71" style="stroke:#181818;stroke-width:1.0;"/><text fill="#000000" font-family="sans-serif" font-size="13" lengthAdjust="spacing" textLength="69" x="339.9966" y="488.9826">_healthBar</text></g><!--link Enemy to Transform--><g id="link_Enemy_Transform"><path codeLine="26" d="M387.95,440.22 C403.77,461.49 418.88,480.97 431.16,495.69 " fill="none" id="Enemy-to-Transform" style="stroke:#181818;stroke-width:1.0;"/><polygon fill="#181818" points="434.55,499.71,431.8266,490.2452,431.335,495.8806,425.6996,495.3891,434.55,499.71" style="stroke:#181818;stroke-width:1.0;"/><text fill="#000000" font-family="sans-serif" font-size="13" lengthAdjust="spacing" textLength="38" x="433.2216" y="489.0443">_body</text></g><!--link Enemy to Transform--><g id="link_Enemy_Transform"><path codeLine="28" d="M412.95,440.22 C427.24,461.31 439.69,480.64 448.24,495.31 " fill="none" id="Enemy-to-Transform-1" style="stroke:#181818;stroke-width:1.0;"/><polygon fill="#181818" points="450.76,499.71,449.7608,489.912,448.2762,495.3705,442.8177,493.886,450.76,499.71" style="stroke:#181818;stroke-width:1.0;"/><text fill="#000000" font-family="sans-serif" font-size="13" lengthAdjust="spacing" textLength="43" x="400.5109" y="489.0443">_turret</text></g><!--link Enemy to Vector2--><g id="link_Enemy_Vector2"><path codeLine="27" d="M576.13,277.5 C578.95,277.5 581.77,277.5 584.6,277.5 " fill="none" id="Enemy-Vector2" style="stroke:#181818;stroke-width:1.0;"/><polygon fill="none" points="563.12,277.5,569.1244,281.4934,575.12,277.4868,569.1156,273.4934,563.12,277.5" style="stroke:#181818;stroke-width:1.0;"/><polygon fill="#181818" points="597.8,277.5,588.8,273.5,592.8,277.5,588.8,281.5,597.8,277.5" style="stroke:#181818;stroke-width:1.0;"/><line style="stroke:#181818;stroke-width:1.0;" x1="592.8" x2="584.8" y1="277.5" y2="277.5"/><text fill="#000000" font-family="sans-serif" font-size="13" lengthAdjust="spacing" textLength="178" x="691.69" y="259.328">turretRotationSpeedMinMax</text></g><!--link Enemy to GameObject--><g id="link_Enemy_GameObject"><path codeLine="29" d="M496,440.22 C524.22,461.85 550.04,481.64 569.34,496.44 " fill="none" id="Enemy-to-GameObject" style="stroke:#181818;stroke-width:1.0;"/><polygon fill="#181818" points="573.61,499.71,568.8987,491.0611,569.641,496.669,564.0331,497.4114,573.61,499.71" style="stroke:#181818;stroke-width:1.0;"/><text fill="#000000" font-family="sans-serif" font-size="13" lengthAdjust="spacing" textLength="101" x="488.1348" y="488.9826">cashNotifPrefab</text></g><!--SRC=[dP91Jy9048Nl_8fDJnYjGQCNeYOAHZq0Hf0hcRQpTasxGtPd2KJzxxRTLYdYGNjgvtlpClCwSGRMYbkD-KQyTKJnXC8k4HFH5p8ZO74fpcK360pV8sISRk6JNgyHBD8MhAiH9Pi16OrcveoUxhZtZa-QTdR68Fz1-aGCh4XVv-GqRodFlcPUj9KjoxPa8gL5tc4vQTpC8NDO0ANzlasViaECd9ILOqIKrM1QvjGzA8ehKabTV5ucmBXR7QH45iUuvZ4bdfOl5JqKGyZX1RjGhTUlvchr5ufgWAw4cCbunP58dAcMRRvNoZh8-dUGuoHwnPXtXl0cHUxaM6dyZzl3hNOv5a8oZQdQMlQZCo9DDvZ2If4puk8z3FtLTVpjXU6L21OHlYXTxX_u5BOPwkGN4fU_J_ClLDVPxa7-Mc_016AQgGHDUvZYR0CnCw2j99FNZ4gsvwP6IezW7OWvbjcTjfoy_ATNHMEmwPXOoKU34g90V0Vx2G00]--></g></svg>