<?xml version="1.0" encoding="us-ascii" standalone="no"?><svg xmlns="http://www.w3.org/2000/svg" xmlns:xlink="http://www.w3.org/1999/xlink" contentStyleType="text/css" height="425px" preserveAspectRatio="none" style="width:655px;height:425px;background:#FFFFFF;" version="1.1" viewBox="0 0 655 425" width="655px" zoomAndPan="magnify"><defs/><g><!--class TowerContainer--><g id="elem_TowerContainer"><rect codeLine="1" fill="#F1F1F1" height="194.6719" id="TowerContainer" rx="2.5" ry="2.5" style="stroke:#181818;stroke-width:0.5;" width="320" x="173.2281" y="115"/><ellipse cx="273.9781" cy="131" fill="#ADD1B2" rx="11" ry="11" style="stroke:#181818;stroke-width:1.0;"/><path d="M276.9469,136.6406 Q276.3688,136.9375 275.7281,137.0781 Q275.0875,137.2344 274.3844,137.2344 Q271.8844,137.2344 270.5563,135.5938 Q269.2438,133.9375 269.2438,130.8125 Q269.2438,127.6875 270.5563,126.0313 Q271.8844,124.375 274.3844,124.375 Q275.0875,124.375 275.7281,124.5313 Q276.3844,124.6875 276.9469,124.9844 L276.9469,127.7031 Q276.3219,127.125 275.7281,126.8594 Q275.1344,126.5781 274.5094,126.5781 Q273.1656,126.5781 272.4781,127.6563 Q271.7906,128.7188 271.7906,130.8125 Q271.7906,132.9063 272.4781,133.9844 Q273.1656,135.0469 274.5094,135.0469 Q275.1344,135.0469 275.7281,134.7813 Q276.3219,134.5 276.9469,133.9219 L276.9469,136.6406 Z " fill="#000000"/><text fill="#000000" font-family="sans-serif" font-size="14" lengthAdjust="spacing" textLength="110" x="294.4781" y="135.8467">TowerContainer</text><line style="stroke:#181818;stroke-width:0.5;" x1="174.2281" x2="492.2281" y1="147" y2="147"/><line style="stroke:#181818;stroke-width:0.5;" x1="174.2281" x2="492.2281" y1="155" y2="155"/><rect fill="#F24D5C" height="6" style="stroke:#C82930;stroke-width:1.0;" width="6" x="181.2281" y="165.6484"/><text fill="#000000" font-family="sans-serif" font-size="14" lengthAdjust="spacing" textLength="96" x="193.2281" y="171.9951">Awake() : void</text><rect fill="#F24D5C" height="6" style="stroke:#C82930;stroke-width:1.0;" width="6" x="181.2281" y="181.9453"/><text fill="#000000" font-family="sans-serif" font-size="14" lengthAdjust="spacing" textLength="83" x="193.2281" y="188.292">Start() : void</text><rect fill="#F24D5C" height="6" style="stroke:#C82930;stroke-width:1.0;" width="6" x="181.2281" y="198.2422"/><text fill="#000000" font-family="sans-serif" font-size="14" lengthAdjust="spacing" textLength="155" x="193.2281" y="204.5889">OnMouseEnter() : void</text><rect fill="#F24D5C" height="6" style="stroke:#C82930;stroke-width:1.0;" width="6" x="181.2281" y="214.5391"/><text fill="#000000" font-family="sans-serif" font-size="14" lengthAdjust="spacing" textLength="150" x="193.2281" y="220.8857">OnMouseOver() : void</text><rect fill="#F24D5C" height="6" style="stroke:#C82930;stroke-width:1.0;" width="6" x="181.2281" y="230.8359"/><text fill="#000000" font-family="sans-serif" font-size="14" lengthAdjust="spacing" textLength="137" x="193.2281" y="237.1826">OnMouseUp() : void</text><rect fill="#F24D5C" height="6" style="stroke:#C82930;stroke-width:1.0;" width="6" x="181.2281" y="247.1328"/><text fill="#000000" font-family="sans-serif" font-size="14" lengthAdjust="spacing" textLength="142" x="193.2281" y="253.4795">OnMouseExit() : void</text><ellipse cx="184.2281" cy="266.4297" fill="#84BE84" rx="3" ry="3" style="stroke:#038048;stroke-width:1.0;"/><text fill="#000000" font-family="sans-serif" font-size="14" lengthAdjust="spacing" textLength="294" x="193.2281" y="269.7764">BuyTower(towerPrefab:GameObject) : void</text><ellipse cx="184.2281" cy="282.7266" fill="#84BE84" rx="3" ry="3" style="stroke:#038048;stroke-width:1.0;"/><text fill="#000000" font-family="sans-serif" font-size="14" lengthAdjust="spacing" textLength="189" x="193.2281" y="286.0732">SellContainedTower() : void</text><rect fill="#F24D5C" height="6" style="stroke:#C82930;stroke-width:1.0;" width="6" x="181.2281" y="296.0234"/><text fill="#000000" font-family="sans-serif" font-size="14" lengthAdjust="spacing" textLength="222" x="193.2281" y="302.3701">RemoveContainedTower() : void</text></g><!--class MonoBehaviour--><g id="elem_MonoBehaviour"><rect fill="#F1F1F1" height="48" id="MonoBehaviour" rx="2.5" ry="2.5" style="stroke:#181818;stroke-width:0.5;" width="140" x="263.2281" y="7"/><ellipse cx="278.2281" cy="23" fill="#ADD1B2" rx="11" ry="11" style="stroke:#181818;stroke-width:1.0;"/><path d="M281.1969,28.6406 Q280.6188,28.9375 279.9781,29.0781 Q279.3375,29.2344 278.6344,29.2344 Q276.1344,29.2344 274.8063,27.5938 Q273.4938,25.9375 273.4938,22.8125 Q273.4938,19.6875 274.8063,18.0313 Q276.1344,16.375 278.6344,16.375 Q279.3375,16.375 279.9781,16.5313 Q280.6344,16.6875 281.1969,16.9844 L281.1969,19.7031 Q280.5719,19.125 279.9781,18.8594 Q279.3844,18.5781 278.7594,18.5781 Q277.4156,18.5781 276.7281,19.6563 Q276.0406,20.7188 276.0406,22.8125 Q276.0406,24.9063 276.7281,25.9844 Q277.4156,27.0469 278.7594,27.0469 Q279.3844,27.0469 279.9781,26.7813 Q280.5719,26.5 281.1969,25.9219 L281.1969,28.6406 Z " fill="#000000"/><text fill="#000000" font-family="sans-serif" font-size="14" lengthAdjust="spacing" textLength="108" x="292.2281" y="27.8467">MonoBehaviour</text><line style="stroke:#181818;stroke-width:0.5;" x1="264.2281" x2="402.2281" y1="39" y2="39"/><line style="stroke:#181818;stroke-width:0.5;" x1="264.2281" x2="402.2281" y1="47" y2="47"/></g><!--class SpriteRenderer--><g id="elem_SpriteRenderer"><rect fill="#F1F1F1" height="48" id="SpriteRenderer" rx="2.5" ry="2.5" style="stroke:#181818;stroke-width:0.5;" width="137" x="7.7281" y="370"/><ellipse cx="22.7281" cy="386" fill="#ADD1B2" rx="11" ry="11" style="stroke:#181818;stroke-width:1.0;"/><path d="M25.6969,391.6406 Q25.1188,391.9375 24.4781,392.0781 Q23.8375,392.2344 23.1344,392.2344 Q20.6344,392.2344 19.3063,390.5938 Q17.9938,388.9375 17.9938,385.8125 Q17.9938,382.6875 19.3063,381.0313 Q20.6344,379.375 23.1344,379.375 Q23.8375,379.375 24.4781,379.5313 Q25.1344,379.6875 25.6969,379.9844 L25.6969,382.7031 Q25.0719,382.125 24.4781,381.8594 Q23.8844,381.5781 23.2594,381.5781 Q21.9156,381.5781 21.2281,382.6563 Q20.5406,383.7188 20.5406,385.8125 Q20.5406,387.9063 21.2281,388.9844 Q21.9156,390.0469 23.2594,390.0469 Q23.8844,390.0469 24.4781,389.7813 Q25.0719,389.5 25.6969,388.9219 L25.6969,391.6406 Z " fill="#000000"/><text fill="#000000" font-family="sans-serif" font-size="14" lengthAdjust="spacing" textLength="105" x="36.7281" y="390.8467">SpriteRenderer</text><line style="stroke:#181818;stroke-width:0.5;" x1="8.7281" x2="143.7281" y1="402" y2="402"/><line style="stroke:#181818;stroke-width:0.5;" x1="8.7281" x2="143.7281" y1="410" y2="410"/></g><!--class TowerSelector--><g id="elem_TowerSelector"><rect fill="#F1F1F1" height="48" id="TowerSelector" rx="2.5" ry="2.5" style="stroke:#181818;stroke-width:0.5;" width="132" x="180.2281" y="370"/><ellipse cx="195.2281" cy="386" fill="#ADD1B2" rx="11" ry="11" style="stroke:#181818;stroke-width:1.0;"/><path d="M198.1969,391.6406 Q197.6188,391.9375 196.9781,392.0781 Q196.3375,392.2344 195.6344,392.2344 Q193.1344,392.2344 191.8063,390.5938 Q190.4938,388.9375 190.4938,385.8125 Q190.4938,382.6875 191.8063,381.0313 Q193.1344,379.375 195.6344,379.375 Q196.3375,379.375 196.9781,379.5313 Q197.6344,379.6875 198.1969,379.9844 L198.1969,382.7031 Q197.5719,382.125 196.9781,381.8594 Q196.3844,381.5781 195.7594,381.5781 Q194.4156,381.5781 193.7281,382.6563 Q193.0406,383.7188 193.0406,385.8125 Q193.0406,387.9063 193.7281,388.9844 Q194.4156,390.0469 195.7594,390.0469 Q196.3844,390.0469 196.9781,389.7813 Q197.5719,389.5 198.1969,388.9219 L198.1969,391.6406 Z " fill="#000000"/><text fill="#000000" font-family="sans-serif" font-size="14" lengthAdjust="spacing" textLength="100" x="209.2281" y="390.8467">TowerSelector</text><line style="stroke:#181818;stroke-width:0.5;" x1="181.2281" x2="311.2281" y1="402" y2="402"/><line style="stroke:#181818;stroke-width:0.5;" x1="181.2281" x2="311.2281" y1="410" y2="410"/></g><!--class UpgradeSelector--><g id="elem_UpgradeSelector"><rect fill="#F1F1F1" height="48" id="UpgradeSelector" rx="2.5" ry="2.5" style="stroke:#181818;stroke-width:0.5;" width="148" x="347.2281" y="370"/><ellipse cx="362.2281" cy="386" fill="#ADD1B2" rx="11" ry="11" style="stroke:#181818;stroke-width:1.0;"/><path d="M365.1969,391.6406 Q364.6188,391.9375 363.9781,392.0781 Q363.3375,392.2344 362.6344,392.2344 Q360.1344,392.2344 358.8063,390.5938 Q357.4938,388.9375 357.4938,385.8125 Q357.4938,382.6875 358.8063,381.0313 Q360.1344,379.375 362.6344,379.375 Q363.3375,379.375 363.9781,379.5313 Q364.6344,379.6875 365.1969,379.9844 L365.1969,382.7031 Q364.5719,382.125 363.9781,381.8594 Q363.3844,381.5781 362.7594,381.5781 Q361.4156,381.5781 360.7281,382.6563 Q360.0406,383.7188 360.0406,385.8125 Q360.0406,387.9063 360.7281,388.9844 Q361.4156,390.0469 362.7594,390.0469 Q363.3844,390.0469 363.9781,389.7813 Q364.5719,389.5 365.1969,388.9219 L365.1969,391.6406 Z " fill="#000000"/><text fill="#000000" font-family="sans-serif" font-size="14" lengthAdjust="spacing" textLength="116" x="376.2281" y="390.8467">UpgradeSelector</text><line style="stroke:#181818;stroke-width:0.5;" x1="348.2281" x2="494.2281" y1="402" y2="402"/><line style="stroke:#181818;stroke-width:0.5;" x1="348.2281" x2="494.2281" y1="410" y2="410"/></g><!--class GameObject--><g id="elem_GameObject"><rect fill="#F1F1F1" height="48" id="GameObject" rx="2.5" ry="2.5" style="stroke:#181818;stroke-width:0.5;" width="118" x="530.2281" y="370"/><ellipse cx="545.2281" cy="386" fill="#ADD1B2" rx="11" ry="11" style="stroke:#181818;stroke-width:1.0;"/><path d="M548.1969,391.6406 Q547.6188,391.9375 546.9781,392.0781 Q546.3375,392.2344 545.6344,392.2344 Q543.1344,392.2344 541.8063,390.5938 Q540.4938,388.9375 540.4938,385.8125 Q540.4938,382.6875 541.8063,381.0313 Q543.1344,379.375 545.6344,379.375 Q546.3375,379.375 546.9781,379.5313 Q547.6344,379.6875 548.1969,379.9844 L548.1969,382.7031 Q547.5719,382.125 546.9781,381.8594 Q546.3844,381.5781 545.7594,381.5781 Q544.4156,381.5781 543.7281,382.6563 Q543.0406,383.7188 543.0406,385.8125 Q543.0406,387.9063 543.7281,388.9844 Q544.4156,390.0469 545.7594,390.0469 Q546.3844,390.0469 546.9781,389.7813 Q547.5719,389.5 548.1969,388.9219 L548.1969,391.6406 Z " fill="#000000"/><text fill="#000000" font-family="sans-serif" font-size="14" lengthAdjust="spacing" textLength="86" x="559.2281" y="390.8467">GameObject</text><line style="stroke:#181818;stroke-width:0.5;" x1="531.2281" x2="647.2281" y1="402" y2="402"/><line style="stroke:#181818;stroke-width:0.5;" x1="531.2281" x2="647.2281" y1="410" y2="410"/></g><!--reverse link MonoBehaviour to TowerContainer--><g id="link_MonoBehaviour_TowerContainer"><path codeLine="12" d="M333.2281,75.44 C333.2281,87.49 333.2281,101.08 333.2281,114.89 " fill="none" id="MonoBehaviour-backto-TowerContainer" style="stroke:#181818;stroke-width:1.0;"/><polygon fill="none" points="326.2281,75.1,333.2281,55.1,340.2281,75.1,326.2281,75.1" style="stroke:#181818;stroke-width:1.0;"/></g><!--link TowerContainer to SpriteRenderer--><g id="link_TowerContainer_SpriteRenderer"><path codeLine="13" d="M194.9481,310.08 C164.8781,331.09 135.5181,351.59 113.5281,366.95 " fill="none" id="TowerContainer-to-SpriteRenderer" style="stroke:#181818;stroke-width:1.0;"/><polygon fill="#181818" points="109.2281,369.95,118.8946,368.0635,113.3236,367.0817,114.3054,361.5107,109.2281,369.95" style="stroke:#181818;stroke-width:1.0;"/><text fill="#000000" font-family="sans-serif" font-size="13" lengthAdjust="spacing" textLength="99" x="6" y="358.9492">_highlightSprite</text></g><!--link TowerContainer to TowerSelector--><g id="link_TowerContainer_TowerSelector"><path codeLine="14" d="M286.4181,310.08 C276.5781,330.38 266.9581,350.22 259.6081,365.4 " fill="none" id="TowerContainer-to-TowerSelector" style="stroke:#181818;stroke-width:1.0;"/><polygon fill="#181818" points="257.3981,369.95,264.9283,363.602,259.5826,365.4525,257.7322,360.1068,257.3981,369.95" style="stroke:#181818;stroke-width:1.0;"/><text fill="#000000" font-family="sans-serif" font-size="13" lengthAdjust="spacing" textLength="95" x="153.0886" y="358.9492">_towerSelector</text></g><!--link TowerContainer to UpgradeSelector--><g id="link_TowerContainer_UpgradeSelector"><path codeLine="15" d="M380.5781,310.08 C390.5281,330.38 400.2581,350.22 407.6981,365.4 " fill="none" id="TowerContainer-to-UpgradeSelector" style="stroke:#181818;stroke-width:1.0;"/><polygon fill="#181818" points="409.9281,369.95,409.5564,360.1082,407.7264,365.4608,402.3738,363.6309,409.9281,369.95" style="stroke:#181818;stroke-width:1.0;"/><text fill="#000000" font-family="sans-serif" font-size="13" lengthAdjust="spacing" textLength="113" x="319.0615" y="358.9907">_upgradeSelector</text></g><!--link TowerContainer to GameObject--><g id="link_TowerContainer_GameObject"><path codeLine="16" d="M470.9681,310.08 C500.9281,331.09 530.1681,351.59 552.0781,366.95 " fill="none" id="TowerContainer-to-GameObject" style="stroke:#181818;stroke-width:1.0;"/><polygon fill="#181818" points="556.3581,369.95,551.2809,361.5107,552.2626,367.0817,546.6916,368.0635,556.3581,369.95" style="stroke:#181818;stroke-width:1.0;"/><text fill="#000000" font-family="sans-serif" font-size="13" lengthAdjust="spacing" textLength="107" x="470.1735" y="358.8874">_containedTower</text></g><!--SRC=[TL112i8m4Bpt5KjF5Sa7H0GLyLGghPubjgkDrcpPfbLH_swrYXXC80cPtSdiJ5h8ge8bdP2df8rK6Xck7hHBmFWa3nZqO00DgUmD9aQoiS58XrHNEDC6sL6B6cTfLRh-EojBgW-J-l8QDp3FSy6ubPl1N1unskmnDLPtWaNnCPPrF4ignYCrwEgvUo5fcc0k6qKrm_0cX1MNPwKdn0ZyTQvsUT5kavIi3FhGtJ7g3Db5UbbgHsvz4FkTpkVvdr6NEvOPVZchN-0_A_rnwyCtlWS0]--></g></svg>