<?xml version="1.0" encoding="us-ascii" standalone="no"?><svg xmlns="http://www.w3.org/2000/svg" xmlns:xlink="http://www.w3.org/1999/xlink" contentStyleType="text/css" height="425px" preserveAspectRatio="none" style="width:312px;height:425px;background:#FFFFFF;" version="1.1" viewBox="0 0 312 425" width="312px" zoomAndPan="magnify"><defs/><g><!--class Tower--><g id="elem_Tower"><rect codeLine="1" fill="#F1F1F1" height="194.6719" id="Tower" rx="2.5" ry="2.5" style="stroke:#181818;stroke-width:0.5;" width="250" x="7" y="115"/><ellipse cx="106.25" cy="131" fill="#ADD1B2" rx="11" ry="11" style="stroke:#181818;stroke-width:1.0;"/><path d="M109.2188,136.6406 Q108.6406,136.9375 108,137.0781 Q107.3594,137.2344 106.6563,137.2344 Q104.1563,137.2344 102.8281,135.5938 Q101.5156,133.9375 101.5156,130.8125 Q101.5156,127.6875 102.8281,126.0313 Q104.1563,124.375 106.6563,124.375 Q107.3594,124.375 108,124.5313 Q108.6563,124.6875 109.2188,124.9844 L109.2188,127.7031 Q108.5938,127.125 108,126.8594 Q107.4063,126.5781 106.7813,126.5781 Q105.4375,126.5781 104.75,127.6563 Q104.0625,128.7188 104.0625,130.8125 Q104.0625,132.9063 104.75,133.9844 Q105.4375,135.0469 106.7813,135.0469 Q107.4063,135.0469 108,134.7813 Q108.5938,134.5 109.2188,133.9219 L109.2188,136.6406 Z " fill="#000000"/><text fill="#000000" font-family="sans-serif" font-size="14" lengthAdjust="spacing" textLength="43" x="126.75" y="135.8467">Tower</text><line style="stroke:#181818;stroke-width:0.5;" x1="8" x2="256" y1="147" y2="147"/><ellipse cx="18" cy="160.6484" fill="none" rx="3" ry="3" style="stroke:#038048;stroke-width:1.0;"/><text fill="#000000" font-family="sans-serif" font-size="14" lengthAdjust="spacing" textLength="111" x="27" y="163.9951">price : int = 100</text><rect fill="none" height="6" style="stroke:#C82930;stroke-width:1.0;" width="6" x="15" y="173.9453"/><text fill="#000000" font-family="sans-serif" font-size="14" lengthAdjust="spacing" textLength="115" x="27" y="180.292">range : float = 3f</text><rect fill="none" height="6" style="stroke:#C82930;stroke-width:1.0;" width="6" x="15" y="190.2422"/><text fill="#000000" font-family="sans-serif" font-size="14" lengthAdjust="spacing" textLength="128" x="27" y="196.5889">fireRate : float = 1f</text><line style="stroke:#181818;stroke-width:0.5;" x1="8" x2="256" y1="203.8906" y2="203.8906"/><rect fill="#F24D5C" height="6" style="stroke:#C82930;stroke-width:1.0;" width="6" x="15" y="214.5391"/><text fill="#000000" font-family="sans-serif" font-size="14" lengthAdjust="spacing" textLength="83" x="27" y="220.8857">Start() : void</text><rect fill="#F24D5C" height="6" style="stroke:#C82930;stroke-width:1.0;" width="6" x="15" y="230.8359"/><text fill="#000000" font-family="sans-serif" font-size="14" lengthAdjust="spacing" textLength="76" x="27" y="237.1826">Fire() : void</text><rect fill="#F24D5C" height="6" style="stroke:#C82930;stroke-width:1.0;" width="6" x="15" y="247.1328"/><text fill="#000000" font-family="sans-serif" font-size="14" lengthAdjust="spacing" textLength="101" x="27" y="253.4795">Update() : void</text><rect fill="#F24D5C" height="6" style="stroke:#C82930;stroke-width:1.0;" width="6" x="15" y="263.4297"/><text fill="#000000" font-family="sans-serif" font-size="14" lengthAdjust="spacing" textLength="194" x="27" y="269.7764">GetClosestEnemy() : Enemy</text><rect fill="#F24D5C" height="6" style="stroke:#C82930;stroke-width:1.0;" width="6" x="15" y="279.7266"/><text fill="#000000" font-family="sans-serif" font-size="14" lengthAdjust="spacing" textLength="158" x="27" y="286.0732">OnDrawGizmos() : void</text><ellipse cx="18" cy="299.0234" fill="#84BE84" rx="3" ry="3" style="stroke:#038048;stroke-width:1.0;"/><text fill="#000000" font-family="sans-serif" font-size="14" lengthAdjust="spacing" textLength="224" x="27" y="302.3701">GetNextUpgrade() : GameObject</text></g><!--class MonoBehaviour--><g id="elem_MonoBehaviour"><rect fill="#F1F1F1" height="48" id="MonoBehaviour" rx="2.5" ry="2.5" style="stroke:#181818;stroke-width:0.5;" width="140" x="62" y="7"/><ellipse cx="77" cy="23" fill="#ADD1B2" rx="11" ry="11" style="stroke:#181818;stroke-width:1.0;"/><path d="M79.9688,28.6406 Q79.3906,28.9375 78.75,29.0781 Q78.1094,29.2344 77.4063,29.2344 Q74.9063,29.2344 73.5781,27.5938 Q72.2656,25.9375 72.2656,22.8125 Q72.2656,19.6875 73.5781,18.0313 Q74.9063,16.375 77.4063,16.375 Q78.1094,16.375 78.75,16.5313 Q79.4063,16.6875 79.9688,16.9844 L79.9688,19.7031 Q79.3438,19.125 78.75,18.8594 Q78.1563,18.5781 77.5313,18.5781 Q76.1875,18.5781 75.5,19.6563 Q74.8125,20.7188 74.8125,22.8125 Q74.8125,24.9063 75.5,25.9844 Q76.1875,27.0469 77.5313,27.0469 Q78.1563,27.0469 78.75,26.7813 Q79.3438,26.5 79.9688,25.9219 L79.9688,28.6406 Z " fill="#000000"/><text fill="#000000" font-family="sans-serif" font-size="14" lengthAdjust="spacing" textLength="108" x="91" y="27.8467">MonoBehaviour</text><line style="stroke:#181818;stroke-width:0.5;" x1="63" x2="201" y1="39" y2="39"/><line style="stroke:#181818;stroke-width:0.5;" x1="63" x2="201" y1="47" y2="47"/></g><!--class GameObject--><g id="elem_GameObject"><rect fill="#F1F1F1" height="48" id="GameObject" rx="2.5" ry="2.5" style="stroke:#181818;stroke-width:0.5;" width="118" x="73" y="370"/><ellipse cx="88" cy="386" fill="#ADD1B2" rx="11" ry="11" style="stroke:#181818;stroke-width:1.0;"/><path d="M90.9688,391.6406 Q90.3906,391.9375 89.75,392.0781 Q89.1094,392.2344 88.4063,392.2344 Q85.9063,392.2344 84.5781,390.5938 Q83.2656,388.9375 83.2656,385.8125 Q83.2656,382.6875 84.5781,381.0313 Q85.9063,379.375 88.4063,379.375 Q89.1094,379.375 89.75,379.5313 Q90.4063,379.6875 90.9688,379.9844 L90.9688,382.7031 Q90.3438,382.125 89.75,381.8594 Q89.1563,381.5781 88.5313,381.5781 Q87.1875,381.5781 86.5,382.6563 Q85.8125,383.7188 85.8125,385.8125 Q85.8125,387.9063 86.5,388.9844 Q87.1875,390.0469 88.5313,390.0469 Q89.1563,390.0469 89.75,389.7813 Q90.3438,389.5 90.9688,388.9219 L90.9688,391.6406 Z " fill="#000000"/><text fill="#000000" font-family="sans-serif" font-size="14" lengthAdjust="spacing" textLength="86" x="102" y="390.8467">GameObject</text><line style="stroke:#181818;stroke-width:0.5;" x1="74" x2="190" y1="402" y2="402"/><line style="stroke:#181818;stroke-width:0.5;" x1="74" x2="190" y1="410" y2="410"/></g><!--class Enemy--><g id="elem_Enemy"><rect fill="#F1F1F1" height="48" id="Enemy" rx="2.5" ry="2.5" style="stroke:#181818;stroke-width:0.5;" width="79" x="226.5" y="370"/><ellipse cx="241.5" cy="386" fill="#ADD1B2" rx="11" ry="11" style="stroke:#181818;stroke-width:1.0;"/><path d="M244.4688,391.6406 Q243.8906,391.9375 243.25,392.0781 Q242.6094,392.2344 241.9063,392.2344 Q239.4063,392.2344 238.0781,390.5938 Q236.7656,388.9375 236.7656,385.8125 Q236.7656,382.6875 238.0781,381.0313 Q239.4063,379.375 241.9063,379.375 Q242.6094,379.375 243.25,379.5313 Q243.9063,379.6875 244.4688,379.9844 L244.4688,382.7031 Q243.8438,382.125 243.25,381.8594 Q242.6563,381.5781 242.0313,381.5781 Q240.6875,381.5781 240,382.6563 Q239.3125,383.7188 239.3125,385.8125 Q239.3125,387.9063 240,388.9844 Q240.6875,390.0469 242.0313,390.0469 Q242.6563,390.0469 243.25,389.7813 Q243.8438,389.5 244.4688,388.9219 L244.4688,391.6406 Z " fill="#000000"/><text fill="#000000" font-family="sans-serif" font-size="14" lengthAdjust="spacing" textLength="47" x="255.5" y="390.8467">Enemy</text><line style="stroke:#181818;stroke-width:0.5;" x1="227.5" x2="304.5" y1="402" y2="402"/><line style="stroke:#181818;stroke-width:0.5;" x1="227.5" x2="304.5" y1="410" y2="410"/></g><!--reverse link MonoBehaviour to Tower--><g id="link_MonoBehaviour_Tower"><path codeLine="12" d="M132,75.44 C132,87.49 132,101.08 132,114.89 " fill="none" id="MonoBehaviour-backto-Tower" style="stroke:#181818;stroke-width:1.0;"/><polygon fill="none" points="125,75.1,132,55.1,139,75.1,125,75.1" style="stroke:#181818;stroke-width:1.0;"/></g><!--link Tower to GameObject--><g id="link_Tower_GameObject"><path codeLine="13" d="M119.28,310.08 C119.48,330.03 120.51,349.54 122.39,364.61 " fill="none" id="Tower-to-GameObject" style="stroke:#181818;stroke-width:1.0;"/><polygon fill="#181818" points="123.13,369.95,125.8591,360.4868,122.4449,364.9972,117.9345,361.583,123.13,369.95" style="stroke:#181818;stroke-width:1.0;"/><text fill="#000000" font-family="sans-serif" font-size="13" lengthAdjust="spacing" textLength="76" x="35.1196" y="358.9492">bulletPrefab</text></g><!--link Tower to GameObject--><g id="link_Tower_GameObject"><path codeLine="14" d="M145.47,310.08 C145.26,330.21 144.14,349.88 142.12,365 " fill="none" id="Tower-to-GameObject-1" style="stroke:#181818;stroke-width:1.0;"/><polygon fill="#181818" points="141.4,369.95,146.6697,361.6295,142.1291,365.0034,138.7552,360.4629,141.4,369.95" style="stroke:#181818;stroke-width:1.0;"/><text fill="#000000" font-family="sans-serif" font-size="13" lengthAdjust="spacing" textLength="131" x="160.5308" y="358.8874">upgradeTowerPrefab</text></g><!--link Tower to Enemy--><g id="link_Tower_Enemy"><path codeLine="15" d="M204.1,310.08 C219.39,330.56 234.32,350.56 245.69,365.79 " fill="none" id="Tower-to-Enemy" style="stroke:#181818;stroke-width:1.0;"/><polygon fill="#181818" points="248.8,369.95,246.6384,360.3413,245.816,365.938,240.2193,365.1157,248.8,369.95" style="stroke:#181818;stroke-width:1.0;"/><text fill="#000000" font-family="sans-serif" font-size="13" lengthAdjust="spacing" textLength="46" x="172.1475" y="369.4482">_target</text></g><!--SRC=[VP3BJiCm44Nt-OfHLgqgIwtO8M31erb1Aw1hD4acmSYne_6avVdlE76GqYxmoZfdxbY-XK7luTaTYE4hWN0MqB8k2Cv1Mu5BM2sN0rV0QEkULyPXRywgKLIQwH5bwbP_xacGPJOFQkzqES9r29ooNLk65QSq8xanpfENEqlDnw27s-WtzfRnaEdFnldZxABFFj2xxDgQiOoRCsneaxzH8SbFSk-ikwPNt6lNCLnyAnMBI68TIbr1cdV6a6oPAipJQNmoqyK71lB_v4ieeoP9unT-0G00]--></g></svg>