<?xml version="1.0" encoding="us-ascii" standalone="no"?><svg xmlns="http://www.w3.org/2000/svg" xmlns:xlink="http://www.w3.org/1999/xlink" contentStyleType="text/css" height="311px" preserveAspectRatio="none" style="width:282px;height:311px;background:#FFFFFF;" version="1.1" viewBox="0 0 282 311" width="282px" zoomAndPan="magnify"><defs/><g><!--class ABulletEffect--><g id="elem_ABulletEffect"><rect codeLine="1" fill="#F1F1F1" height="80.5938" id="ABulletEffect" rx="2.5" ry="2.5" style="stroke:#181818;stroke-width:0.5;" width="266" x="9" y="115"/><ellipse cx="93.75" cy="131" fill="#A9DCDF" rx="11" ry="11" style="stroke:#181818;stroke-width:1.0;"/><path d="M93.8594,126.3438 L92.7031,131.4219 L95.0313,131.4219 L93.8594,126.3438 Z M92.375,124.1094 L95.3594,124.1094 L98.7188,136.5 L96.2656,136.5 L95.5,133.4375 L92.2188,133.4375 L91.4688,136.5 L89.0313,136.5 L92.375,124.1094 Z " fill="#000000"/><text fill="#000000" font-family="sans-serif" font-size="14" font-style="italic" lengthAdjust="spacing" textLength="88" x="114.25" y="135.8467">ABulletEffect</text><line style="stroke:#181818;stroke-width:0.5;" x1="10" x2="274" y1="147" y2="147"/><line style="stroke:#181818;stroke-width:0.5;" x1="10" x2="274" y1="155" y2="155"/><rect fill="#F24D5C" height="6" style="stroke:#C82930;stroke-width:1.0;" width="6" x="17" y="165.6484"/><text fill="#000000" font-family="sans-serif" font-size="14" lengthAdjust="spacing" textLength="96" x="29" y="171.9951">Awake() : void</text><polygon fill="#FFFF44" points="20,179.9453,24,183.9453,20,187.9453,16,183.9453" style="stroke:#B38D22;stroke-width:1.0;"/><text fill="#000000" font-family="sans-serif" font-size="14" font-style="italic" lengthAdjust="spacing" textLength="240" x="29" y="188.292">OnEnemyHit(enemy:Enemy) : void</text></g><!--class MonoBehaviour--><g id="elem_MonoBehaviour"><rect fill="#F1F1F1" height="48" id="MonoBehaviour" rx="2.5" ry="2.5" style="stroke:#181818;stroke-width:0.5;" width="140" x="72" y="7"/><ellipse cx="87" cy="23" fill="#ADD1B2" rx="11" ry="11" style="stroke:#181818;stroke-width:1.0;"/><path d="M89.9688,28.6406 Q89.3906,28.9375 88.75,29.0781 Q88.1094,29.2344 87.4063,29.2344 Q84.9063,29.2344 83.5781,27.5938 Q82.2656,25.9375 82.2656,22.8125 Q82.2656,19.6875 83.5781,18.0313 Q84.9063,16.375 87.4063,16.375 Q88.1094,16.375 88.75,16.5313 Q89.4063,16.6875 89.9688,16.9844 L89.9688,19.7031 Q89.3438,19.125 88.75,18.8594 Q88.1563,18.5781 87.5313,18.5781 Q86.1875,18.5781 85.5,19.6563 Q84.8125,20.7188 84.8125,22.8125 Q84.8125,24.9063 85.5,25.9844 Q86.1875,27.0469 87.5313,27.0469 Q88.1563,27.0469 88.75,26.7813 Q89.3438,26.5 89.9688,25.9219 L89.9688,28.6406 Z " fill="#000000"/><text fill="#000000" font-family="sans-serif" font-size="14" lengthAdjust="spacing" textLength="108" x="101" y="27.8467">MonoBehaviour</text><line style="stroke:#181818;stroke-width:0.5;" x1="73" x2="211" y1="39" y2="39"/><line style="stroke:#181818;stroke-width:0.5;" x1="73" x2="211" y1="47" y2="47"/></g><!--class Bullet--><g id="elem_Bullet"><rect fill="#F1F1F1" height="48" id="Bullet" rx="2.5" ry="2.5" style="stroke:#181818;stroke-width:0.5;" width="71" x="106.5" y="256"/><ellipse cx="121.5" cy="272" fill="#ADD1B2" rx="11" ry="11" style="stroke:#181818;stroke-width:1.0;"/><path d="M124.4688,277.6406 Q123.8906,277.9375 123.25,278.0781 Q122.6094,278.2344 121.9063,278.2344 Q119.4063,278.2344 118.0781,276.5938 Q116.7656,274.9375 116.7656,271.8125 Q116.7656,268.6875 118.0781,267.0313 Q119.4063,265.375 121.9063,265.375 Q122.6094,265.375 123.25,265.5313 Q123.9063,265.6875 124.4688,265.9844 L124.4688,268.7031 Q123.8438,268.125 123.25,267.8594 Q122.6563,267.5781 122.0313,267.5781 Q120.6875,267.5781 120,268.6563 Q119.3125,269.7188 119.3125,271.8125 Q119.3125,273.9063 120,274.9844 Q120.6875,276.0469 122.0313,276.0469 Q122.6563,276.0469 123.25,275.7813 Q123.8438,275.5 124.4688,274.9219 L124.4688,277.6406 Z " fill="#000000"/><text fill="#000000" font-family="sans-serif" font-size="14" lengthAdjust="spacing" textLength="39" x="135.5" y="276.8467">Bullet</text><line style="stroke:#181818;stroke-width:0.5;" x1="107.5" x2="176.5" y1="288" y2="288"/><line style="stroke:#181818;stroke-width:0.5;" x1="107.5" x2="176.5" y1="296" y2="296"/></g><!--reverse link MonoBehaviour to ABulletEffect--><g id="link_MonoBehaviour_ABulletEffect"><path codeLine="5" d="M142,75.14 C142,88 142,102.04 142,114.69 " fill="none" id="MonoBehaviour-backto-ABulletEffect" style="stroke:#181818;stroke-width:1.0;"/><polygon fill="none" points="135,75.04,142,55.04,149,75.04,135,75.04" style="stroke:#181818;stroke-width:1.0;"/></g><!--link ABulletEffect to Bullet--><g id="link_ABulletEffect_Bullet"><path codeLine="6" d="M142,196.27 C142,213.97 142,234.41 142,250.55 " fill="none" id="ABulletEffect-to-Bullet" style="stroke:#181818;stroke-width:1.0;"/><polygon fill="#181818" points="142,255.84,146,246.84,142,250.84,138,246.84,142,255.84" style="stroke:#181818;stroke-width:1.0;"/><text fill="#000000" font-family="sans-serif" font-size="13" lengthAdjust="spacing" textLength="36" x="101.3875" y="244.811">Bullet</text></g><!--SRC=[IqmgBYbAJ2vHICv9B2vMS7GgpSb9BN5DIqi5YbLpAG21he9ZUM9sgeQcWfL2MNvc2bXGMQ4w4QgrLi4_ppKlDRVI8xD48nN4i09puUfhkNppy_ATKZCIopBpIuiKR6fqTL5juaArLrVNJa498gAa0A41]--></g></svg>