<?xml version="1.0" encoding="us-ascii" standalone="no"?><svg xmlns="http://www.w3.org/2000/svg" xmlns:xlink="http://www.w3.org/1999/xlink" contentStyleType="text/css" height="211px" preserveAspectRatio="none" style="width:282px;height:211px;background:#FFFFFF;" version="1.1" viewBox="0 0 282 211" width="282px" zoomAndPan="magnify"><defs/><g><!--class ABulletEffect--><g id="elem_ABulletEffect"><rect codeLine="1" fill="#F1F1F1" height="88.8594" id="ABulletEffect" rx="2.5" ry="2.5" style="stroke:#181818;stroke-width:0.5;" width="266" x="9" y="7"/><ellipse cx="34.8" cy="27.1328" fill="#A9DCDF" rx="11" ry="11" style="stroke:#181818;stroke-width:1.0;"/><path d="M34.9094,22.4766 L33.7531,27.5547 L36.0813,27.5547 L34.9094,22.4766 Z M33.425,20.2422 L36.4094,20.2422 L39.7688,32.6328 L37.3156,32.6328 L36.55,29.5703 L33.2688,29.5703 L32.5188,32.6328 L30.0812,32.6328 L33.425,20.2422 Z " fill="#000000"/><text fill="#000000" font-family="sans-serif" font-size="12" font-style="italic" lengthAdjust="spacing" textLength="49" x="131.7" y="23.1387">&#171;Bullet&#187;</text><text fill="#000000" font-family="sans-serif" font-size="14" font-style="italic" lengthAdjust="spacing" textLength="210" x="51.2" y="38.9639">ABulletEffect : MonoBehaviour</text><line style="stroke:#181818;stroke-width:0.5;" x1="10" x2="274" y1="47.2656" y2="47.2656"/><polygon fill="none" points="20,55.9141,24,59.9141,20,63.9141,16,59.9141" style="stroke:#B38D22;stroke-width:1.0;"/><text fill="#000000" font-family="sans-serif" font-size="14" lengthAdjust="spacing" textLength="136" x="29" y="64.2607">Bullet : Bullet &#171;get&#187;</text><line style="stroke:#181818;stroke-width:0.5;" x1="10" x2="274" y1="71.5625" y2="71.5625"/><polygon fill="#FFFF44" points="20,80.2109,24,84.2109,20,88.2109,16,84.2109" style="stroke:#B38D22;stroke-width:1.0;"/><text fill="#000000" font-family="sans-serif" font-size="14" font-style="italic" lengthAdjust="spacing" textLength="240" x="29" y="88.5576">OnEnemyHit(enemy:Enemy) : void</text></g><!--class Bullet--><g id="elem_Bullet"><rect fill="#F1F1F1" height="48" id="Bullet" rx="2.5" ry="2.5" style="stroke:#181818;stroke-width:0.5;" width="71" x="106.5" y="156"/><ellipse cx="121.5" cy="172" fill="#ADD1B2" rx="11" ry="11" style="stroke:#181818;stroke-width:1.0;"/><path d="M124.4688,177.6406 Q123.8906,177.9375 123.25,178.0781 Q122.6094,178.2344 121.9063,178.2344 Q119.4063,178.2344 118.0781,176.5938 Q116.7656,174.9375 116.7656,171.8125 Q116.7656,168.6875 118.0781,167.0313 Q119.4063,165.375 121.9063,165.375 Q122.6094,165.375 123.25,165.5313 Q123.9063,165.6875 124.4688,165.9844 L124.4688,168.7031 Q123.8438,168.125 123.25,167.8594 Q122.6563,167.5781 122.0313,167.5781 Q120.6875,167.5781 120,168.6563 Q119.3125,169.7188 119.3125,171.8125 Q119.3125,173.9063 120,174.9844 Q120.6875,176.0469 122.0313,176.0469 Q122.6563,176.0469 123.25,175.7813 Q123.8438,175.5 124.4688,174.9219 L124.4688,177.6406 Z " fill="#000000"/><text fill="#000000" font-family="sans-serif" font-size="14" lengthAdjust="spacing" textLength="39" x="135.5" y="176.8467">Bullet</text><line style="stroke:#181818;stroke-width:0.5;" x1="107.5" x2="176.5" y1="188" y2="188"/><line style="stroke:#181818;stroke-width:0.5;" x1="107.5" x2="176.5" y1="196" y2="196"/></g><!--link ABulletEffect to Bullet--><g id="link_ABulletEffect_Bullet"><path codeLine="5" d="M142,96.03 C142,114.01 142,134.35 142,150.39 " fill="none" id="ABulletEffect-to-Bullet" style="stroke:#181818;stroke-width:1.0;"/><polygon fill="#181818" points="142,155.66,146,146.66,142,150.66,138,146.66,142,155.66" style="stroke:#181818;stroke-width:1.0;"/><text fill="#000000" font-family="sans-serif" font-size="13" lengthAdjust="spacing" textLength="36" x="101.6125" y="144.9821">Bullet</text></g><!--SRC=[IqmgBYbAJ2vHICv9B2vMK79qAit9IIrnJKjB1GfQAVZcv-KxfMOabcNcbnOfAIGMAw2giB61SEti5Agv5810MG4Y0DGBPTZOf8FaeRBLYL0RQnNyyrppKdChFJ9BD59132imLnEeiom_CuMhbWlLAbrTEmKbY8WIr6m0]--></g></svg>