<?xml version="1.0" encoding="us-ascii" standalone="no"?><svg xmlns="http://www.w3.org/2000/svg" xmlns:xlink="http://www.w3.org/1999/xlink" contentStyleType="text/css" height="210px" preserveAspectRatio="none" style="width:355px;height:210px;background:#FFFFFF;" version="1.1" viewBox="0 0 355 210" width="355px" zoomAndPan="magnify"><defs/><g><!--class AOE--><g id="elem_AOE"><rect codeLine="1" fill="#F1F1F1" height="88.8594" id="AOE" rx="2.5" ry="2.5" style="stroke:#181818;stroke-width:0.5;" width="339" x="9" y="115"/><ellipse cx="151.75" cy="135.1328" fill="#ADD1B2" rx="11" ry="11" style="stroke:#181818;stroke-width:1.0;"/><path d="M154.7188,140.7734 Q154.1406,141.0703 153.5,141.2109 Q152.8594,141.3672 152.1563,141.3672 Q149.6563,141.3672 148.3281,139.7266 Q147.0156,138.0703 147.0156,134.9453 Q147.0156,131.8203 148.3281,130.1641 Q149.6563,128.5078 152.1563,128.5078 Q152.8594,128.5078 153.5,128.6641 Q154.1563,128.8203 154.7188,129.1172 L154.7188,131.8359 Q154.0938,131.2578 153.5,130.9922 Q152.9063,130.7109 152.2813,130.7109 Q150.9375,130.7109 150.25,131.7891 Q149.5625,132.8516 149.5625,134.9453 Q149.5625,137.0391 150.25,138.1172 Q150.9375,139.1797 152.2813,139.1797 Q152.9063,139.1797 153.5,138.9141 Q154.0938,138.6328 154.7188,138.0547 L154.7188,140.7734 Z " fill="#000000"/><text fill="#000000" font-family="sans-serif" font-size="12" font-style="italic" lengthAdjust="spacing" textLength="49" x="170.25" y="131.1387">&#171;Bullet&#187;</text><text fill="#000000" font-family="sans-serif" font-size="14" lengthAdjust="spacing" textLength="29" x="180.25" y="146.9639">AOE</text><line style="stroke:#181818;stroke-width:0.5;" x1="10" x2="347" y1="155.2656" y2="155.2656"/><rect fill="none" height="6" style="stroke:#C82930;stroke-width:1.0;" width="6" x="17" y="165.9141"/><text fill="#000000" font-family="sans-serif" font-size="14" lengthAdjust="spacing" textLength="111" x="29" y="172.2607">range : float = 2</text><line style="stroke:#181818;stroke-width:0.5;" x1="10" x2="347" y1="179.5625" y2="179.5625"/><polygon fill="#FFFF44" points="20,188.2109,24,192.2109,20,196.2109,16,192.2109" style="stroke:#B38D22;stroke-width:1.0;"/><text fill="#000000" font-family="sans-serif" font-size="14" lengthAdjust="spacing" textLength="313" x="29" y="196.5576">&#171;override&#187; OnEnemyHit(enemy:Enemy) : void</text></g><!--class ABulletEffect--><g id="elem_ABulletEffect"><rect fill="#F1F1F1" height="48" id="ABulletEffect" rx="2.5" ry="2.5" style="stroke:#181818;stroke-width:0.5;" width="119" x="119" y="7"/><ellipse cx="134" cy="23" fill="#ADD1B2" rx="11" ry="11" style="stroke:#181818;stroke-width:1.0;"/><path d="M136.9688,28.6406 Q136.3906,28.9375 135.75,29.0781 Q135.1094,29.2344 134.4063,29.2344 Q131.9063,29.2344 130.5781,27.5938 Q129.2656,25.9375 129.2656,22.8125 Q129.2656,19.6875 130.5781,18.0313 Q131.9063,16.375 134.4063,16.375 Q135.1094,16.375 135.75,16.5313 Q136.4063,16.6875 136.9688,16.9844 L136.9688,19.7031 Q136.3438,19.125 135.75,18.8594 Q135.1563,18.5781 134.5313,18.5781 Q133.1875,18.5781 132.5,19.6563 Q131.8125,20.7188 131.8125,22.8125 Q131.8125,24.9063 132.5,25.9844 Q133.1875,27.0469 134.5313,27.0469 Q135.1563,27.0469 135.75,26.7813 Q136.3438,26.5 136.9688,25.9219 L136.9688,28.6406 Z " fill="#000000"/><text fill="#000000" font-family="sans-serif" font-size="14" lengthAdjust="spacing" textLength="87" x="148" y="27.8467">ABulletEffect</text><line style="stroke:#181818;stroke-width:0.5;" x1="120" x2="237" y1="39" y2="39"/><line style="stroke:#181818;stroke-width:0.5;" x1="120" x2="237" y1="47" y2="47"/></g><!--reverse link ABulletEffect to AOE--><g id="link_ABulletEffect_AOE"><path codeLine="5" d="M178.5,75.22 C178.5,88.05 178.5,102.12 178.5,114.97 " fill="none" id="ABulletEffect-backto-AOE" style="stroke:#181818;stroke-width:1.0;"/><polygon fill="none" points="171.5,75.2,178.5,55.2,185.5,75.2,171.5,75.2" style="stroke:#181818;stroke-width:1.0;"/></g><!--SRC=[Iyv9B2vMSFHtLR2nSIhDoKajiRDJgEPI009TXQB4lFHK1Ik5j9pyn185MmKZiBWoK6b-MMfHKMPAAb2nVvvhNcfkfKTcYKOgY645vce2jPNbPwPmrN8vGinrJKjBJIvHiAdHrGNP1m00]--></g></svg>