<?xml version="1.0" encoding="us-ascii" standalone="no"?><svg xmlns="http://www.w3.org/2000/svg" xmlns:xlink="http://www.w3.org/1999/xlink" contentStyleType="text/css" height="202px" preserveAspectRatio="none" style="width:355px;height:202px;background:#FFFFFF;" version="1.1" viewBox="0 0 355 202" width="355px" zoomAndPan="magnify"><defs/><g><!--class AOE--><g id="elem_AOE"><rect codeLine="1" fill="#F1F1F1" height="80.5938" id="AOE" rx="2.5" ry="2.5" style="stroke:#181818;stroke-width:0.5;" width="339" x="9" y="115"/><ellipse cx="159.75" cy="131" fill="#ADD1B2" rx="11" ry="11" style="stroke:#181818;stroke-width:1.0;"/><path d="M162.7188,136.6406 Q162.1406,136.9375 161.5,137.0781 Q160.8594,137.2344 160.1563,137.2344 Q157.6563,137.2344 156.3281,135.5938 Q155.0156,133.9375 155.0156,130.8125 Q155.0156,127.6875 156.3281,126.0313 Q157.6563,124.375 160.1563,124.375 Q160.8594,124.375 161.5,124.5313 Q162.1563,124.6875 162.7188,124.9844 L162.7188,127.7031 Q162.0938,127.125 161.5,126.8594 Q160.9063,126.5781 160.2813,126.5781 Q158.9375,126.5781 158.25,127.6563 Q157.5625,128.7188 157.5625,130.8125 Q157.5625,132.9063 158.25,133.9844 Q158.9375,135.0469 160.2813,135.0469 Q160.9063,135.0469 161.5,134.7813 Q162.0938,134.5 162.7188,133.9219 L162.7188,136.6406 Z " fill="#000000"/><text fill="#000000" font-family="sans-serif" font-size="14" lengthAdjust="spacing" textLength="29" x="180.25" y="135.8467">AOE</text><line style="stroke:#181818;stroke-width:0.5;" x1="10" x2="347" y1="147" y2="147"/><rect fill="none" height="6" style="stroke:#C82930;stroke-width:1.0;" width="6" x="17" y="157.6484"/><text fill="#000000" font-family="sans-serif" font-size="14" lengthAdjust="spacing" textLength="111" x="29" y="163.9951">range : float = 2</text><line style="stroke:#181818;stroke-width:0.5;" x1="10" x2="347" y1="171.2969" y2="171.2969"/><polygon fill="#FFFF44" points="20,179.9453,24,183.9453,20,187.9453,16,183.9453" style="stroke:#B38D22;stroke-width:1.0;"/><text fill="#000000" font-family="sans-serif" font-size="14" lengthAdjust="spacing" textLength="313" x="29" y="188.292">&#171;override&#187; OnEnemyHit(enemy:Enemy) : void</text></g><!--class ABulletEffect--><g id="elem_ABulletEffect"><rect fill="#F1F1F1" height="48" id="ABulletEffect" rx="2.5" ry="2.5" style="stroke:#181818;stroke-width:0.5;" width="119" x="119" y="7"/><ellipse cx="134" cy="23" fill="#ADD1B2" rx="11" ry="11" style="stroke:#181818;stroke-width:1.0;"/><path d="M136.9688,28.6406 Q136.3906,28.9375 135.75,29.0781 Q135.1094,29.2344 134.4063,29.2344 Q131.9063,29.2344 130.5781,27.5938 Q129.2656,25.9375 129.2656,22.8125 Q129.2656,19.6875 130.5781,18.0313 Q131.9063,16.375 134.4063,16.375 Q135.1094,16.375 135.75,16.5313 Q136.4063,16.6875 136.9688,16.9844 L136.9688,19.7031 Q136.3438,19.125 135.75,18.8594 Q135.1563,18.5781 134.5313,18.5781 Q133.1875,18.5781 132.5,19.6563 Q131.8125,20.7188 131.8125,22.8125 Q131.8125,24.9063 132.5,25.9844 Q133.1875,27.0469 134.5313,27.0469 Q135.1563,27.0469 135.75,26.7813 Q136.3438,26.5 136.9688,25.9219 L136.9688,28.6406 Z " fill="#000000"/><text fill="#000000" font-family="sans-serif" font-size="14" lengthAdjust="spacing" textLength="87" x="148" y="27.8467">ABulletEffect</text><line style="stroke:#181818;stroke-width:0.5;" x1="120" x2="237" y1="39" y2="39"/><line style="stroke:#181818;stroke-width:0.5;" x1="120" x2="237" y1="47" y2="47"/></g><!--reverse link ABulletEffect to AOE--><g id="link_ABulletEffect_AOE"><path codeLine="5" d="M178.5,75.14 C178.5,88 178.5,102.04 178.5,114.69 " fill="none" id="ABulletEffect-backto-AOE" style="stroke:#181818;stroke-width:1.0;"/><polygon fill="none" points="171.5,75.04,178.5,55.04,185.5,75.04,171.5,75.04" style="stroke:#181818;stroke-width:1.0;"/></g><!--SRC=[Iyv9B2vMSFHtLQZcKW02NOMYnBpqL0KhXRIS_CGI1Li58x2uieADJNvPQb5HPaggdPs2VvvhNcfkfKTcYKOgY645vce2jPNbPwPmrN8vEfNcvAIMkAQbfIQNADZKwEg2B040]--></g></svg>