<?xml version="1.0" encoding="us-ascii" standalone="no"?><svg xmlns="http://www.w3.org/2000/svg" xmlns:xlink="http://www.w3.org/1999/xlink" contentStyleType="text/css" height="234px" preserveAspectRatio="none" style="width:406px;height:234px;background:#FFFFFF;" version="1.1" viewBox="0 0 406 234" width="406px" zoomAndPan="magnify"><defs/><g><!--class Wave--><g id="elem_Wave"><rect codeLine="1" fill="#F1F1F1" height="96.8906" id="Wave" rx="2.5" ry="2.5" style="stroke:#181818;stroke-width:0.5;" width="226" x="7" y="131"/><ellipse cx="97.25" cy="147" fill="#ADD1B2" rx="11" ry="11" style="stroke:#181818;stroke-width:1.0;"/><path d="M100.2188,152.6406 Q99.6406,152.9375 99,153.0781 Q98.3594,153.2344 97.6563,153.2344 Q95.1563,153.2344 93.8281,151.5938 Q92.5156,149.9375 92.5156,146.8125 Q92.5156,143.6875 93.8281,142.0313 Q95.1563,140.375 97.6563,140.375 Q98.3594,140.375 99,140.5313 Q99.6563,140.6875 100.2188,140.9844 L100.2188,143.7031 Q99.5938,143.125 99,142.8594 Q98.4063,142.5781 97.7813,142.5781 Q96.4375,142.5781 95.75,143.6563 Q95.0625,144.7188 95.0625,146.8125 Q95.0625,148.9063 95.75,149.9844 Q96.4375,151.0469 97.7813,151.0469 Q98.4063,151.0469 99,150.7813 Q99.5938,150.5 100.2188,149.9219 L100.2188,152.6406 Z " fill="#000000"/><text fill="#000000" font-family="sans-serif" font-size="14" lengthAdjust="spacing" textLength="37" x="117.75" y="151.8467">Wave</text><line style="stroke:#181818;stroke-width:0.5;" x1="8" x2="232" y1="163" y2="163"/><ellipse cx="18" cy="176.6484" fill="none" rx="3" ry="3" style="stroke:#038048;stroke-width:1.0;"/><text fill="#000000" font-family="sans-serif" font-size="14" lengthAdjust="spacing" textLength="200" x="27" y="179.9951">delaySincePreviousWave : int</text><line style="stroke:#181818;stroke-width:0.5;" x1="8" x2="232" y1="187.2969" y2="187.2969"/><rect fill="#F24D5C" height="6" style="stroke:#C82930;stroke-width:1.0;" width="6" x="15" y="197.9453"/><text fill="#000000" font-family="sans-serif" font-size="14" lengthAdjust="spacing" textLength="125" x="27" y="204.292">OnValidate() : void</text><ellipse cx="18" cy="217.2422" fill="#84BE84" rx="3" ry="3" style="stroke:#038048;stroke-width:1.0;"/><text fill="#000000" font-family="sans-serif" font-size="14" lengthAdjust="spacing" textLength="120" x="27" y="220.5889">StartWave() : void</text></g><!--class WavePart--><g id="elem_WavePart"><rect codeLine="6" fill="#F1F1F1" height="64.2969" id="WavePart" rx="2.5" ry="2.5" style="stroke:#181818;stroke-width:0.5;" width="145" x="254.5" y="7"/><ellipse cx="291.55" cy="23" fill="#ADD1B2" rx="11" ry="11" style="stroke:#181818;stroke-width:1.0;"/><path d="M294.5188,28.6406 Q293.9406,28.9375 293.3,29.0781 Q292.6594,29.2344 291.9563,29.2344 Q289.4563,29.2344 288.1281,27.5938 Q286.8156,25.9375 286.8156,22.8125 Q286.8156,19.6875 288.1281,18.0313 Q289.4563,16.375 291.9563,16.375 Q292.6594,16.375 293.3,16.5313 Q293.9563,16.6875 294.5188,16.9844 L294.5188,19.7031 Q293.8938,19.125 293.3,18.8594 Q292.7063,18.5781 292.0813,18.5781 Q290.7375,18.5781 290.05,19.6563 Q289.3625,20.7188 289.3625,22.8125 Q289.3625,24.9063 290.05,25.9844 Q290.7375,27.0469 292.0813,27.0469 Q292.7063,27.0469 293.3,26.7813 Q293.8938,26.5 294.5188,25.9219 L294.5188,28.6406 Z " fill="#000000"/><text fill="#000000" font-family="sans-serif" font-size="14" lengthAdjust="spacing" textLength="64" x="310.45" y="27.8467">WavePart</text><line style="stroke:#181818;stroke-width:0.5;" x1="255.5" x2="398.5" y1="39" y2="39"/><ellipse cx="265.5" cy="52.6484" fill="none" rx="3" ry="3" style="stroke:#038048;stroke-width:1.0;"/><text fill="#000000" font-family="sans-serif" font-size="14" lengthAdjust="spacing" textLength="119" x="274.5" y="55.9951">enemyCount : int</text><line style="stroke:#181818;stroke-width:0.5;" x1="255.5" x2="398.5" y1="63.2969" y2="63.2969"/></g><!--class ScriptableObject--><g id="elem_ScriptableObject"><rect fill="#F1F1F1" height="48" id="ScriptableObject" rx="2.5" ry="2.5" style="stroke:#181818;stroke-width:0.5;" width="145" x="47.5" y="15"/><ellipse cx="62.5" cy="31" fill="#ADD1B2" rx="11" ry="11" style="stroke:#181818;stroke-width:1.0;"/><path d="M65.4688,36.6406 Q64.8906,36.9375 64.25,37.0781 Q63.6094,37.2344 62.9063,37.2344 Q60.4063,37.2344 59.0781,35.5938 Q57.7656,33.9375 57.7656,30.8125 Q57.7656,27.6875 59.0781,26.0313 Q60.4063,24.375 62.9063,24.375 Q63.6094,24.375 64.25,24.5313 Q64.9063,24.6875 65.4688,24.9844 L65.4688,27.7031 Q64.8438,27.125 64.25,26.8594 Q63.6563,26.5781 63.0313,26.5781 Q61.6875,26.5781 61,27.6563 Q60.3125,28.7188 60.3125,30.8125 Q60.3125,32.9063 61,33.9844 Q61.6875,35.0469 63.0313,35.0469 Q63.6563,35.0469 64.25,34.7813 Q64.8438,34.5 65.4688,33.9219 L65.4688,36.6406 Z " fill="#000000"/><text fill="#000000" font-family="sans-serif" font-size="14" lengthAdjust="spacing" textLength="113" x="76.5" y="35.8467">ScriptableObject</text><line style="stroke:#181818;stroke-width:0.5;" x1="48.5" x2="191.5" y1="47" y2="47"/><line style="stroke:#181818;stroke-width:0.5;" x1="48.5" x2="191.5" y1="55" y2="55"/></g><!--class GameObject--><g id="elem_GameObject"><rect fill="#F1F1F1" height="48" id="GameObject" rx="2.5" ry="2.5" style="stroke:#181818;stroke-width:0.5;" width="118" x="268" y="155.5"/><ellipse cx="283" cy="171.5" fill="#ADD1B2" rx="11" ry="11" style="stroke:#181818;stroke-width:1.0;"/><path d="M285.9688,177.1406 Q285.3906,177.4375 284.75,177.5781 Q284.1094,177.7344 283.4063,177.7344 Q280.9063,177.7344 279.5781,176.0938 Q278.2656,174.4375 278.2656,171.3125 Q278.2656,168.1875 279.5781,166.5313 Q280.9063,164.875 283.4063,164.875 Q284.1094,164.875 284.75,165.0313 Q285.4063,165.1875 285.9688,165.4844 L285.9688,168.2031 Q285.3438,167.625 284.75,167.3594 Q284.1563,167.0781 283.5313,167.0781 Q282.1875,167.0781 281.5,168.1563 Q280.8125,169.2188 280.8125,171.3125 Q280.8125,173.4063 281.5,174.4844 Q282.1875,175.5469 283.5313,175.5469 Q284.1563,175.5469 284.75,175.2813 Q285.3438,175 285.9688,174.4219 L285.9688,177.1406 Z " fill="#000000"/><text fill="#000000" font-family="sans-serif" font-size="14" lengthAdjust="spacing" textLength="86" x="297" y="176.3467">GameObject</text><line style="stroke:#181818;stroke-width:0.5;" x1="269" x2="385" y1="187.5" y2="187.5"/><line style="stroke:#181818;stroke-width:0.5;" x1="269" x2="385" y1="195.5" y2="195.5"/></g><!--reverse link ScriptableObject to Wave--><g id="link_ScriptableObject_Wave"><path codeLine="9" d="M120,83.2 C120,98.31 120,115.35 120,130.8 " fill="none" id="ScriptableObject-backto-Wave" style="stroke:#181818;stroke-width:1.0;"/><polygon fill="none" points="113,83.18,120,63.18,127,83.18,113,83.18" style="stroke:#181818;stroke-width:1.0;"/></g><!--link WavePart to GameObject--><g id="link_WavePart_GameObject"><path codeLine="10" d="M327,71.08 C327,94.81 327,127.23 327,150.23 " fill="none" id="WavePart-to-GameObject" style="stroke:#181818;stroke-width:1.0;"/><polygon fill="#181818" points="327,155.28,331,146.28,327,150.28,323,146.28,327,155.28" style="stroke:#181818;stroke-width:1.0;"/><text fill="#000000" font-family="sans-serif" font-size="13" lengthAdjust="spacing" textLength="85" x="231.6406" y="144.6313">enemyPrefab</text></g><!--SRC=[HOv12i8m44NtESNGbIAvW8WR5ovRAEXwaemGIHDffe6YlRinX3ZRzz__ent627TC16y1-GvWoE4wMgzfc2dPiCI2Zs0zbuY4tj_GMODCktq6ALXJvP5nvb_-3pQXsyYGQHiYJzDw2OldMhw9KS_snQWSzUf9ck7qaRAOekbIdg4hRlxlWQg3Aqur_mK0]--></g></svg>