<?xml version="1.0" encoding="us-ascii" standalone="no"?><svg xmlns="http://www.w3.org/2000/svg" xmlns:xlink="http://www.w3.org/1999/xlink" contentStyleType="text/css" height="211px" preserveAspectRatio="none" style="width:319px;height:211px;background:#FFFFFF;" version="1.1" viewBox="0 0 319 211" width="319px" zoomAndPan="magnify"><defs/><g><!--class ButtonViewNavigation--><g id="elem_ButtonViewNavigation"><rect codeLine="1" fill="#F1F1F1" height="88.8594" id="ButtonViewNavigation" rx="2.5" ry="2.5" style="stroke:#181818;stroke-width:0.5;" width="303" x="9" y="7"/><ellipse cx="24" cy="27.1328" fill="#ADD1B2" rx="11" ry="11" style="stroke:#181818;stroke-width:1.0;"/><path d="M26.9688,32.7734 Q26.3906,33.0703 25.75,33.2109 Q25.1094,33.3672 24.4063,33.3672 Q21.9063,33.3672 20.5781,31.7266 Q19.2656,30.0703 19.2656,26.9453 Q19.2656,23.8203 20.5781,22.1641 Q21.9063,20.5078 24.4063,20.5078 Q25.1094,20.5078 25.75,20.6641 Q26.4063,20.8203 26.9688,21.1172 L26.9688,23.8359 Q26.3438,23.2578 25.75,22.9922 Q25.1563,22.7109 24.5313,22.7109 Q23.1875,22.7109 22.5,23.7891 Q21.8125,24.8516 21.8125,26.9453 Q21.8125,29.0391 22.5,30.1172 Q23.1875,31.1797 24.5313,31.1797 Q25.1563,31.1797 25.75,30.9141 Q26.3438,30.6328 26.9688,30.0547 L26.9688,32.7734 Z " fill="#000000"/><text fill="#000000" font-family="sans-serif" font-size="12" font-style="italic" lengthAdjust="spacing" textLength="56" x="145.5" y="23.1387">&#171;Button&#187;</text><text fill="#000000" font-family="sans-serif" font-size="14" lengthAdjust="spacing" textLength="271" x="38" y="38.9639">ButtonViewNavigation : MonoBehaviour</text><line style="stroke:#181818;stroke-width:0.5;" x1="10" x2="311" y1="47.2656" y2="47.2656"/><rect fill="none" height="6" style="stroke:#C82930;stroke-width:1.0;" width="6" x="17" y="57.9141"/><text fill="#000000" font-family="sans-serif" font-size="14" lengthAdjust="spacing" textLength="109" x="29" y="64.2607">gotoView : View</text><line style="stroke:#181818;stroke-width:0.5;" x1="10" x2="311" y1="71.5625" y2="71.5625"/><polygon fill="#FFFF44" points="20,80.2109,24,84.2109,20,88.2109,16,84.2109" style="stroke:#B38D22;stroke-width:1.0;"/><text fill="#000000" font-family="sans-serif" font-size="14" lengthAdjust="spacing" textLength="134" x="29" y="88.5576">SwitchPanel() : void</text></g><!--class View--><g id="elem_View"><rect fill="#F1F1F1" height="48" id="View" rx="2.5" ry="2.5" style="stroke:#181818;stroke-width:0.5;" width="64" x="128.5" y="156"/><ellipse cx="143.5" cy="172" fill="#ADD1B2" rx="11" ry="11" style="stroke:#181818;stroke-width:1.0;"/><path d="M146.4688,177.6406 Q145.8906,177.9375 145.25,178.0781 Q144.6094,178.2344 143.9063,178.2344 Q141.4063,178.2344 140.0781,176.5938 Q138.7656,174.9375 138.7656,171.8125 Q138.7656,168.6875 140.0781,167.0313 Q141.4063,165.375 143.9063,165.375 Q144.6094,165.375 145.25,165.5313 Q145.9063,165.6875 146.4688,165.9844 L146.4688,168.7031 Q145.8438,168.125 145.25,167.8594 Q144.6563,167.5781 144.0313,167.5781 Q142.6875,167.5781 142,168.6563 Q141.3125,169.7188 141.3125,171.8125 Q141.3125,173.9063 142,174.9844 Q142.6875,176.0469 144.0313,176.0469 Q144.6563,176.0469 145.25,175.7813 Q145.8438,175.5 146.4688,174.9219 L146.4688,177.6406 Z " fill="#000000"/><text fill="#000000" font-family="sans-serif" font-size="14" lengthAdjust="spacing" textLength="32" x="157.5" y="176.8467">View</text><line style="stroke:#181818;stroke-width:0.5;" x1="129.5" x2="191.5" y1="188" y2="188"/><line style="stroke:#181818;stroke-width:0.5;" x1="129.5" x2="191.5" y1="196" y2="196"/></g><!--link ButtonViewNavigation to View--><g id="link_ButtonViewNavigation_View"><path codeLine="5" d="M160.5,96.03 C160.5,114.01 160.5,134.35 160.5,150.39 " fill="none" id="ButtonViewNavigation-to-View" style="stroke:#181818;stroke-width:1.0;"/><polygon fill="#181818" points="160.5,155.66,164.5,146.66,160.5,150.66,156.5,146.66,160.5,155.66" style="stroke:#181818;stroke-width:1.0;"/><text fill="#000000" font-family="sans-serif" font-size="13" lengthAdjust="spacing" textLength="58" x="95.4313" y="144.9821">gotoView</text></g><!--SRC=[Iyv9B2vMK78gBId9pmlBJ2ttIopBJ4yioSpFKx1IyCtFotTApG0AvPSMAIaa5YjWLMXZ0n6sirEevb800bs5zFoIV90ge24W2Yogh11SdbcId16Gc9UQew49b2hBpqpXgkN2QgYkhfs24imO9R0f0000]--></g></svg>