<?xml version="1.0" encoding="us-ascii" standalone="no"?><svg xmlns="http://www.w3.org/2000/svg" xmlns:xlink="http://www.w3.org/1999/xlink" contentStyleType="text/css" height="178px" preserveAspectRatio="none" style="width:228px;height:178px;background:#FFFFFF;" version="1.1" viewBox="0 0 228 178" width="228px" zoomAndPan="magnify"><defs/><g><!--class ButtonAutoViewNavigation--><g id="elem_ButtonAutoViewNavigation"><rect codeLine="1" fill="#F1F1F1" height="56.2656" id="ButtonAutoViewNavigation" rx="2.5" ry="2.5" style="stroke:#181818;stroke-width:0.5;" width="214" x="7" y="115"/><ellipse cx="22" cy="135.1328" fill="#ADD1B2" rx="11" ry="11" style="stroke:#181818;stroke-width:1.0;"/><path d="M24.9688,140.7734 Q24.3906,141.0703 23.75,141.2109 Q23.1094,141.3672 22.4063,141.3672 Q19.9063,141.3672 18.5781,139.7266 Q17.2656,138.0703 17.2656,134.9453 Q17.2656,131.8203 18.5781,130.1641 Q19.9063,128.5078 22.4063,128.5078 Q23.1094,128.5078 23.75,128.6641 Q24.4063,128.8203 24.9688,129.1172 L24.9688,131.8359 Q24.3438,131.2578 23.75,130.9922 Q23.1563,130.7109 22.5313,130.7109 Q21.1875,130.7109 20.5,131.7891 Q19.8125,132.8516 19.8125,134.9453 Q19.8125,137.0391 20.5,138.1172 Q21.1875,139.1797 22.5313,139.1797 Q23.1563,139.1797 23.75,138.9141 Q24.3438,138.6328 24.9688,138.0547 L24.9688,140.7734 Z " fill="#000000"/><text fill="#000000" font-family="sans-serif" font-size="12" font-style="italic" lengthAdjust="spacing" textLength="56" x="99" y="131.1387">&#171;Button&#187;</text><text fill="#000000" font-family="sans-serif" font-size="14" lengthAdjust="spacing" textLength="182" x="36" y="146.9639">ButtonAutoViewNavigation</text><line style="stroke:#181818;stroke-width:0.5;" x1="8" x2="220" y1="155.2656" y2="155.2656"/><line style="stroke:#181818;stroke-width:0.5;" x1="8" x2="220" y1="163.2656" y2="163.2656"/></g><!--class ButtonViewNavigation--><g id="elem_ButtonViewNavigation"><rect fill="#F1F1F1" height="48" id="ButtonViewNavigation" rx="2.5" ry="2.5" style="stroke:#181818;stroke-width:0.5;" width="182" x="23" y="7"/><ellipse cx="38" cy="23" fill="#ADD1B2" rx="11" ry="11" style="stroke:#181818;stroke-width:1.0;"/><path d="M40.9688,28.6406 Q40.3906,28.9375 39.75,29.0781 Q39.1094,29.2344 38.4063,29.2344 Q35.9063,29.2344 34.5781,27.5938 Q33.2656,25.9375 33.2656,22.8125 Q33.2656,19.6875 34.5781,18.0313 Q35.9063,16.375 38.4063,16.375 Q39.1094,16.375 39.75,16.5313 Q40.4063,16.6875 40.9688,16.9844 L40.9688,19.7031 Q40.3438,19.125 39.75,18.8594 Q39.1563,18.5781 38.5313,18.5781 Q37.1875,18.5781 36.5,19.6563 Q35.8125,20.7188 35.8125,22.8125 Q35.8125,24.9063 36.5,25.9844 Q37.1875,27.0469 38.5313,27.0469 Q39.1563,27.0469 39.75,26.7813 Q40.3438,26.5 40.9688,25.9219 L40.9688,28.6406 Z " fill="#000000"/><text fill="#000000" font-family="sans-serif" font-size="14" lengthAdjust="spacing" textLength="150" x="52" y="27.8467">ButtonViewNavigation</text><line style="stroke:#181818;stroke-width:0.5;" x1="24" x2="204" y1="39" y2="39"/><line style="stroke:#181818;stroke-width:0.5;" x1="24" x2="204" y1="47" y2="47"/></g><!--reverse link ButtonViewNavigation to ButtonAutoViewNavigation--><g id="link_ButtonViewNavigation_ButtonAutoViewNavigation"><path codeLine="3" d="M114,75.29 C114,88.57 114,102.8 114,114.7 " fill="none" id="ButtonViewNavigation-backto-ButtonAutoViewNavigation" style="stroke:#181818;stroke-width:1.0;"/><polygon fill="none" points="107,75.06,114,55.06,121,75.06,107,75.06" style="stroke:#181818;stroke-width:1.0;"/></g><!--SRC=[Iyv9B2vMS2ejASdFSomjoG_BJ2ttIopBJ4yioSpFKx2nWKZPsIbKSzLoGJZeQcfqTN6Q0000]--></g></svg>