<?xml version="1.0" encoding="us-ascii" standalone="no"?><svg xmlns="http://www.w3.org/2000/svg" xmlns:xlink="http://www.w3.org/1999/xlink" contentStyleType="text/css" height="311px" preserveAspectRatio="none" style="width:265px;height:311px;background:#FFFFFF;" version="1.1" viewBox="0 0 265 311" width="265px" zoomAndPan="magnify"><defs/><g><!--class ButtonViewNavigation--><g id="elem_ButtonViewNavigation"><rect codeLine="1" fill="#F1F1F1" height="80.5938" id="ButtonViewNavigation" rx="2.5" ry="2.5" style="stroke:#181818;stroke-width:0.5;" width="182" x="9" y="115"/><ellipse cx="24" cy="131" fill="#ADD1B2" rx="11" ry="11" style="stroke:#181818;stroke-width:1.0;"/><path d="M26.9688,136.6406 Q26.3906,136.9375 25.75,137.0781 Q25.1094,137.2344 24.4063,137.2344 Q21.9063,137.2344 20.5781,135.5938 Q19.2656,133.9375 19.2656,130.8125 Q19.2656,127.6875 20.5781,126.0313 Q21.9063,124.375 24.4063,124.375 Q25.1094,124.375 25.75,124.5313 Q26.4063,124.6875 26.9688,124.9844 L26.9688,127.7031 Q26.3438,127.125 25.75,126.8594 Q25.1563,126.5781 24.5313,126.5781 Q23.1875,126.5781 22.5,127.6563 Q21.8125,128.7188 21.8125,130.8125 Q21.8125,132.9063 22.5,133.9844 Q23.1875,135.0469 24.5313,135.0469 Q25.1563,135.0469 25.75,134.7813 Q26.3438,134.5 26.9688,133.9219 L26.9688,136.6406 Z " fill="#000000"/><text fill="#000000" font-family="sans-serif" font-size="14" lengthAdjust="spacing" textLength="150" x="38" y="135.8467">ButtonViewNavigation</text><line style="stroke:#181818;stroke-width:0.5;" x1="10" x2="190" y1="147" y2="147"/><line style="stroke:#181818;stroke-width:0.5;" x1="10" x2="190" y1="155" y2="155"/><polygon fill="#FFFF44" points="20,163.6484,24,167.6484,20,171.6484,16,167.6484" style="stroke:#B38D22;stroke-width:1.0;"/><text fill="#000000" font-family="sans-serif" font-size="14" lengthAdjust="spacing" textLength="96" x="29" y="171.9951">Awake() : void</text><polygon fill="#FFFF44" points="20,179.9453,24,183.9453,20,187.9453,16,183.9453" style="stroke:#B38D22;stroke-width:1.0;"/><text fill="#000000" font-family="sans-serif" font-size="14" lengthAdjust="spacing" textLength="134" x="29" y="188.292">SwitchPanel() : void</text></g><!--class MonoBehaviour--><g id="elem_MonoBehaviour"><rect fill="#F1F1F1" height="48" id="MonoBehaviour" rx="2.5" ry="2.5" style="stroke:#181818;stroke-width:0.5;" width="140" x="30" y="7"/><ellipse cx="45" cy="23" fill="#ADD1B2" rx="11" ry="11" style="stroke:#181818;stroke-width:1.0;"/><path d="M47.9688,28.6406 Q47.3906,28.9375 46.75,29.0781 Q46.1094,29.2344 45.4063,29.2344 Q42.9063,29.2344 41.5781,27.5938 Q40.2656,25.9375 40.2656,22.8125 Q40.2656,19.6875 41.5781,18.0313 Q42.9063,16.375 45.4063,16.375 Q46.1094,16.375 46.75,16.5313 Q47.4063,16.6875 47.9688,16.9844 L47.9688,19.7031 Q47.3438,19.125 46.75,18.8594 Q46.1563,18.5781 45.5313,18.5781 Q44.1875,18.5781 43.5,19.6563 Q42.8125,20.7188 42.8125,22.8125 Q42.8125,24.9063 43.5,25.9844 Q44.1875,27.0469 45.5313,27.0469 Q46.1563,27.0469 46.75,26.7813 Q47.3438,26.5 47.9688,25.9219 L47.9688,28.6406 Z " fill="#000000"/><text fill="#000000" font-family="sans-serif" font-size="14" lengthAdjust="spacing" textLength="108" x="59" y="27.8467">MonoBehaviour</text><line style="stroke:#181818;stroke-width:0.5;" x1="31" x2="169" y1="39" y2="39"/><line style="stroke:#181818;stroke-width:0.5;" x1="31" x2="169" y1="47" y2="47"/></g><!--class View--><g id="elem_View"><rect fill="#F1F1F1" height="48" id="View" rx="2.5" ry="2.5" style="stroke:#181818;stroke-width:0.5;" width="64" x="68" y="256"/><ellipse cx="83" cy="272" fill="#ADD1B2" rx="11" ry="11" style="stroke:#181818;stroke-width:1.0;"/><path d="M85.9688,277.6406 Q85.3906,277.9375 84.75,278.0781 Q84.1094,278.2344 83.4063,278.2344 Q80.9063,278.2344 79.5781,276.5938 Q78.2656,274.9375 78.2656,271.8125 Q78.2656,268.6875 79.5781,267.0313 Q80.9063,265.375 83.4063,265.375 Q84.1094,265.375 84.75,265.5313 Q85.4063,265.6875 85.9688,265.9844 L85.9688,268.7031 Q85.3438,268.125 84.75,267.8594 Q84.1563,267.5781 83.5313,267.5781 Q82.1875,267.5781 81.5,268.6563 Q80.8125,269.7188 80.8125,271.8125 Q80.8125,273.9063 81.5,274.9844 Q82.1875,276.0469 83.5313,276.0469 Q84.1563,276.0469 84.75,275.7813 Q85.3438,275.5 85.9688,274.9219 L85.9688,277.6406 Z " fill="#000000"/><text fill="#000000" font-family="sans-serif" font-size="14" lengthAdjust="spacing" textLength="32" x="97" y="276.8467">View</text><line style="stroke:#181818;stroke-width:0.5;" x1="69" x2="131" y1="288" y2="288"/><line style="stroke:#181818;stroke-width:0.5;" x1="69" x2="131" y1="296" y2="296"/></g><!--class Button--><g id="elem_Button"><rect fill="#F1F1F1" height="48" id="Button" rx="2.5" ry="2.5" style="stroke:#181818;stroke-width:0.5;" width="79" x="167.5" y="256"/><ellipse cx="182.5" cy="272" fill="#ADD1B2" rx="11" ry="11" style="stroke:#181818;stroke-width:1.0;"/><path d="M185.4688,277.6406 Q184.8906,277.9375 184.25,278.0781 Q183.6094,278.2344 182.9063,278.2344 Q180.4063,278.2344 179.0781,276.5938 Q177.7656,274.9375 177.7656,271.8125 Q177.7656,268.6875 179.0781,267.0313 Q180.4063,265.375 182.9063,265.375 Q183.6094,265.375 184.25,265.5313 Q184.9063,265.6875 185.4688,265.9844 L185.4688,268.7031 Q184.8438,268.125 184.25,267.8594 Q183.6563,267.5781 183.0313,267.5781 Q181.6875,267.5781 181,268.6563 Q180.3125,269.7188 180.3125,271.8125 Q180.3125,273.9063 181,274.9844 Q181.6875,276.0469 183.0313,276.0469 Q183.6563,276.0469 184.25,275.7813 Q184.8438,275.5 185.4688,274.9219 L185.4688,277.6406 Z " fill="#000000"/><text fill="#000000" font-family="sans-serif" font-size="14" lengthAdjust="spacing" textLength="47" x="196.5" y="276.8467">Button</text><line style="stroke:#181818;stroke-width:0.5;" x1="168.5" x2="245.5" y1="288" y2="288"/><line style="stroke:#181818;stroke-width:0.5;" x1="168.5" x2="245.5" y1="296" y2="296"/></g><!--reverse link MonoBehaviour to ButtonViewNavigation--><g id="link_MonoBehaviour_ButtonViewNavigation"><path codeLine="5" d="M100,75.14 C100,88 100,102.04 100,114.69 " fill="none" id="MonoBehaviour-backto-ButtonViewNavigation" style="stroke:#181818;stroke-width:1.0;"/><polygon fill="none" points="93,75.04,100,55.04,107,75.04,93,75.04" style="stroke:#181818;stroke-width:1.0;"/></g><!--link ButtonViewNavigation to View--><g id="link_ButtonViewNavigation_View"><path codeLine="6" d="M87.97,196.27 C86.73,213.97 87.09,234.41 89.04,250.55 " fill="none" id="ButtonViewNavigation-to-View" style="stroke:#181818;stroke-width:1.0;"/><polygon fill="#181818" points="89.76,255.84,92.4891,246.3768,89.0749,250.8872,84.5645,247.473,89.76,255.84" style="stroke:#181818;stroke-width:1.0;"/><text fill="#000000" font-family="sans-serif" font-size="13" lengthAdjust="spacing" textLength="58" x="21.7048" y="244.811">gotoView</text></g><!--link ButtonViewNavigation to View--><g id="link_ButtonViewNavigation_View"><path codeLine="8" d="M112.73,196.27 C114.05,213.97 113.67,234.41 111.61,250.55 " fill="none" id="ButtonViewNavigation-to-View-1" style="stroke:#181818;stroke-width:1.0;"/><polygon fill="#181818" points="110.84,255.84,116.0827,247.5025,111.5531,250.8911,108.1645,246.3615,110.84,255.84" style="stroke:#181818;stroke-width:1.0;"/><text fill="#000000" font-family="sans-serif" font-size="13" lengthAdjust="spacing" textLength="78" x="123.6115" y="244.811">_parentView</text></g><!--link ButtonViewNavigation to Button--><g id="link_ButtonViewNavigation_Button"><path codeLine="7" d="M134.74,196.27 C150.6,214.43 168.99,235.48 183.24,251.8 " fill="none" id="ButtonViewNavigation-to-Button" style="stroke:#181818;stroke-width:1.0;"/><polygon fill="#181818" points="186.77,255.84,183.8563,246.432,183.4785,252.0762,177.8343,251.6984,186.77,255.84" style="stroke:#181818;stroke-width:1.0;"/><text fill="#000000" font-family="sans-serif" font-size="13" lengthAdjust="spacing" textLength="68" x="190.2986" y="244.811">ThisButton</text></g><!--SRC=[Iyv9B2vMS2ejASdF2yjCBVTBBCjCJop9pCzJgEPI009b1SVonEnK3Kq5AuMo_CmKg61mUMP9SaP0Obvg3aAgbiitFo_VAJK3Q4X-QP62JOskBbQpkR1QgAjhfw2Kdb-I3n9NKW2HU1I6P6GMGsILe7RWKHnVa5YKcbU2C1W0]--></g></svg>