<?xml version="1.0" encoding="us-ascii" standalone="no"?><svg xmlns="http://www.w3.org/2000/svg" xmlns:xlink="http://www.w3.org/1999/xlink" contentStyleType="text/css" height="340px" preserveAspectRatio="none" style="width:386px;height:340px;background:#FFFFFF;" version="1.1" viewBox="0 0 386 340" width="386px" zoomAndPan="magnify"><defs/><g><!--class RadialSelector--><g id="elem_RadialSelector"><rect codeLine="1" fill="#F1F1F1" height="170.3438" id="RadialSelector" rx="2.5" ry="2.5" style="stroke:#181818;stroke-width:0.5;" width="359" x="9" y="7"/><ellipse cx="74.75" cy="27.1328" fill="#ADD1B2" rx="11" ry="11" style="stroke:#181818;stroke-width:1.0;"/><path d="M77.7188,32.7734 Q77.1406,33.0703 76.5,33.2109 Q75.8594,33.3672 75.1563,33.3672 Q72.6563,33.3672 71.3281,31.7266 Q70.0156,30.0703 70.0156,26.9453 Q70.0156,23.8203 71.3281,22.1641 Q72.6563,20.5078 75.1563,20.5078 Q75.8594,20.5078 76.5,20.6641 Q77.1563,20.8203 77.7188,21.1172 L77.7188,23.8359 Q77.0938,23.2578 76.5,22.9922 Q75.9063,22.7109 75.2813,22.7109 Q73.9375,22.7109 73.25,23.7891 Q72.5625,24.8516 72.5625,26.9453 Q72.5625,29.0391 73.25,30.1172 Q73.9375,31.1797 75.2813,31.1797 Q75.9063,31.1797 76.5,30.9141 Q77.0938,30.6328 77.7188,30.0547 L77.7188,32.7734 Z " fill="#000000"/><text fill="#000000" font-family="sans-serif" font-size="12" font-style="italic" lengthAdjust="spacing" textLength="113" x="148.25" y="23.1387">&#171;TowerContainer&#187;</text><text fill="#000000" font-family="sans-serif" font-size="14" lengthAdjust="spacing" textLength="219" x="95.25" y="38.9639">RadialSelector : MonoBehaviour</text><line style="stroke:#181818;stroke-width:0.5;" x1="10" x2="367" y1="47.2656" y2="47.2656"/><polygon fill="none" points="20,55.9141,24,59.9141,20,63.9141,16,59.9141" style="stroke:#B38D22;stroke-width:1.0;"/><text fill="#000000" font-family="sans-serif" font-size="14" lengthAdjust="spacing" textLength="278" x="29" y="64.2607">TowerContainer : TowerContainer &#171;get&#187;</text><ellipse cx="20" cy="77.2109" fill="none" rx="3" ry="3" style="stroke:#038048;stroke-width:1.0;"/><text fill="#000000" font-family="sans-serif" font-size="14" lengthAdjust="spacing" textLength="137" x="29" y="80.5576">IsOpen : bool &#171;get&#187;</text><line style="stroke:#181818;stroke-width:0.5;" x1="10" x2="367" y1="87.8594" y2="87.8594"/><polygon fill="#FFFF44" points="20,96.5078,24,100.5078,20,104.5078,16,100.5078" style="stroke:#B38D22;stroke-width:1.0;"/><text fill="#000000" font-family="sans-serif" font-size="14" lengthAdjust="spacing" textLength="191" x="29" y="104.8545">Init(choices:IChoice[]) : void</text><ellipse cx="20" cy="117.8047" fill="#84BE84" rx="3" ry="3" style="stroke:#038048;stroke-width:1.0;"/><text fill="#000000" font-family="sans-serif" font-size="14" lengthAdjust="spacing" textLength="156" x="29" y="121.1514">UpdateButtons() : void</text><polygon fill="#FFFF44" points="20,129.1016,24,133.1016,20,137.1016,16,133.1016" style="stroke:#B38D22;stroke-width:1.0;"/><text fill="#000000" font-family="sans-serif" font-size="14" lengthAdjust="spacing" textLength="333" x="29" y="137.4482">&#171;virtual&#187; OnChoiceClicked(choice:IChoice) : void</text><ellipse cx="20" cy="150.3984" fill="#84BE84" rx="3" ry="3" style="stroke:#038048;stroke-width:1.0;"/><text fill="#000000" font-family="sans-serif" font-size="14" lengthAdjust="spacing" textLength="89" x="29" y="153.7451">Show() : void</text><ellipse cx="20" cy="166.6953" fill="#84BE84" rx="3" ry="3" style="stroke:#038048;stroke-width:1.0;"/><text fill="#000000" font-family="sans-serif" font-size="14" lengthAdjust="spacing" textLength="82" x="29" y="170.042">Hide() : void</text></g><!--class IChoice--><g id="elem_IChoice"><rect codeLine="10" fill="#F1F1F1" height="96.8906" id="IChoice" rx="2.5" ry="2.5" style="stroke:#181818;stroke-width:0.5;" width="164" x="12.5" y="237"/><ellipse cx="64.25" cy="253" fill="#B4A7E5" rx="11" ry="11" style="stroke:#181818;stroke-width:1.0;"/><path d="M60.1719,248.7656 L60.1719,246.6094 L67.5625,246.6094 L67.5625,248.7656 L65.0938,248.7656 L65.0938,256.8438 L67.5625,256.8438 L67.5625,259 L60.1719,259 L60.1719,256.8438 L62.6406,256.8438 L62.6406,248.7656 L60.1719,248.7656 Z " fill="#000000"/><text fill="#000000" font-family="sans-serif" font-size="14" font-style="italic" lengthAdjust="spacing" textLength="52" x="84.75" y="257.8467">IChoice</text><line style="stroke:#181818;stroke-width:0.5;" x1="13.5" x2="175.5" y1="269" y2="269"/><ellipse cx="23.5" cy="282.6484" fill="none" rx="3" ry="3" style="stroke:#038048;stroke-width:1.0;"/><text fill="#000000" font-family="sans-serif" font-size="14" lengthAdjust="spacing" textLength="133" x="32.5" y="285.9951">Label : string &#171;get&#187;</text><ellipse cx="23.5" cy="298.9453" fill="none" rx="3" ry="3" style="stroke:#038048;stroke-width:1.0;"/><text fill="#000000" font-family="sans-serif" font-size="14" lengthAdjust="spacing" textLength="109" x="32.5" y="302.292">Price : int &#171;get&#187;</text><ellipse cx="23.5" cy="315.2422" fill="none" rx="3" ry="3" style="stroke:#038048;stroke-width:1.0;"/><text fill="#000000" font-family="sans-serif" font-size="14" lengthAdjust="spacing" textLength="138" x="32.5" y="318.5889">Sprite : Sprite &#171;get&#187;</text><line style="stroke:#181818;stroke-width:0.5;" x1="13.5" x2="175.5" y1="325.8906" y2="325.8906"/></g><!--class TowerContainer--><g id="elem_TowerContainer"><rect fill="#F1F1F1" height="48" id="TowerContainer" rx="2.5" ry="2.5" style="stroke:#181818;stroke-width:0.5;" width="142" x="211.5" y="261.5"/><ellipse cx="226.5" cy="277.5" fill="#ADD1B2" rx="11" ry="11" style="stroke:#181818;stroke-width:1.0;"/><path d="M229.4688,283.1406 Q228.8906,283.4375 228.25,283.5781 Q227.6094,283.7344 226.9063,283.7344 Q224.4063,283.7344 223.0781,282.0938 Q221.7656,280.4375 221.7656,277.3125 Q221.7656,274.1875 223.0781,272.5313 Q224.4063,270.875 226.9063,270.875 Q227.6094,270.875 228.25,271.0313 Q228.9063,271.1875 229.4688,271.4844 L229.4688,274.2031 Q228.8438,273.625 228.25,273.3594 Q227.6563,273.0781 227.0313,273.0781 Q225.6875,273.0781 225,274.1563 Q224.3125,275.2188 224.3125,277.3125 Q224.3125,279.4063 225,280.4844 Q225.6875,281.5469 227.0313,281.5469 Q227.6563,281.5469 228.25,281.2813 Q228.8438,281 229.4688,280.4219 L229.4688,283.1406 Z " fill="#000000"/><text fill="#000000" font-family="sans-serif" font-size="14" lengthAdjust="spacing" textLength="110" x="240.5" y="282.3467">TowerContainer</text><line style="stroke:#181818;stroke-width:0.5;" x1="212.5" x2="352.5" y1="293.5" y2="293.5"/><line style="stroke:#181818;stroke-width:0.5;" x1="212.5" x2="352.5" y1="301.5" y2="301.5"/></g><!--link RadialSelector to TowerContainer--><g id="link_RadialSelector_TowerContainer"><path codeLine="15" d="M229.87,177.27 C243.88,205.82 258.57,235.75 268.86,256.71 " fill="none" id="RadialSelector-to-TowerContainer" style="stroke:#181818;stroke-width:1.0;"/><polygon fill="#181818" points="271.11,261.31,270.7383,251.4682,268.9083,256.8208,263.5556,254.9909,271.11,261.31" style="stroke:#181818;stroke-width:1.0;"/><text fill="#000000" font-family="sans-serif" font-size="13" lengthAdjust="spacing" textLength="99" x="280.8757" y="250.2733">TowerContainer</text></g><!--link RadialSelector to IChoice--><g id="link_RadialSelector_IChoice"><path codeLine="16" d="M147.13,177.27 C137.95,195.98 128.47,215.29 120.14,232.27 " fill="none" id="RadialSelector-to-IChoice" style="stroke:#181818;stroke-width:1.0;stroke-dasharray:7.0,7.0;"/><polygon fill="#181818" points="117.82,237,125.3744,230.6809,120.0217,232.5108,118.1917,227.1582,117.82,237" style="stroke:#181818;stroke-width:1.0;"/><text fill="#000000" font-family="sans-serif" font-size="13" lengthAdjust="spacing" textLength="46" x="71.867" y="225.8597">IChoice</text></g><!--SRC=[NL0zJyCm4DtxAqxf4XIrFo2ACZGBaK2j6fWGW-iSpGdB5zcNT43yTzpYWc9FrlloyzD6UG_PKVMaJ8S6jR234fxPyWu7DHDFBWFb8P5KrGjVq3LiHP55LzVmjO9mrh0aGbW2LDKPfQwZkhKakHwODFgoRMwNj_U7O9kP-fkeWDUnLuAxIOIjpnVaEkJDv6HI9dJOsz-4nf3-n3u6ttEJr6xWIvvWZzHZYhL-Fw8Ds8dP_DN_Nf4LT1zA8yJyE441J-g49XYyEBBdnOyBEBYhj8HWJvXkT2HNAbx-dqhMtsngo9QpPidCgMMx3PROCxiN_W40]--></g></svg>