<?xml version="1.0" encoding="us-ascii" standalone="no"?><svg xmlns="http://www.w3.org/2000/svg" xmlns:xlink="http://www.w3.org/1999/xlink" contentStyleType="text/css" height="441px" preserveAspectRatio="none" style="width:526px;height:441px;background:#FFFFFF;" version="1.1" viewBox="0 0 526 441" width="526px" zoomAndPan="magnify"><defs/><g><!--class RadialSelector--><g id="elem_RadialSelector"><rect codeLine="1" fill="#F1F1F1" height="178.375" id="RadialSelector" rx="2.5" ry="2.5" style="stroke:#181818;stroke-width:0.5;" width="359" x="9" y="148"/><ellipse cx="135.25" cy="164" fill="#ADD1B2" rx="11" ry="11" style="stroke:#181818;stroke-width:1.0;"/><path d="M138.2188,169.6406 Q137.6406,169.9375 137,170.0781 Q136.3594,170.2344 135.6563,170.2344 Q133.1563,170.2344 131.8281,168.5938 Q130.5156,166.9375 130.5156,163.8125 Q130.5156,160.6875 131.8281,159.0313 Q133.1563,157.375 135.6563,157.375 Q136.3594,157.375 137,157.5313 Q137.6563,157.6875 138.2188,157.9844 L138.2188,160.7031 Q137.5938,160.125 137,159.8594 Q136.4063,159.5781 135.7813,159.5781 Q134.4375,159.5781 133.75,160.6563 Q133.0625,161.7188 133.0625,163.8125 Q133.0625,165.9063 133.75,166.9844 Q134.4375,168.0469 135.7813,168.0469 Q136.4063,168.0469 137,167.7813 Q137.5938,167.5 138.2188,166.9219 L138.2188,169.6406 Z " fill="#000000"/><text fill="#000000" font-family="sans-serif" font-size="14" lengthAdjust="spacing" textLength="98" x="155.75" y="168.8467">RadialSelector</text><line style="stroke:#181818;stroke-width:0.5;" x1="10" x2="367" y1="180" y2="180"/><ellipse cx="20" cy="193.6484" fill="none" rx="3" ry="3" style="stroke:#038048;stroke-width:1.0;"/><text fill="#000000" font-family="sans-serif" font-size="14" lengthAdjust="spacing" textLength="137" x="29" y="196.9951">IsOpen : bool &#171;get&#187;</text><line style="stroke:#181818;stroke-width:0.5;" x1="10" x2="367" y1="204.2969" y2="204.2969"/><rect fill="#F24D5C" height="6" style="stroke:#C82930;stroke-width:1.0;" width="6" x="17" y="214.9453"/><text fill="#000000" font-family="sans-serif" font-size="14" lengthAdjust="spacing" textLength="96" x="29" y="221.292">Awake() : void</text><polygon fill="#FFFF44" points="20,229.2422,24,233.2422,20,237.2422,16,233.2422" style="stroke:#B38D22;stroke-width:1.0;"/><text fill="#000000" font-family="sans-serif" font-size="14" lengthAdjust="spacing" textLength="191" x="29" y="237.5889">Init(choices:IChoice[]) : void</text><ellipse cx="20" cy="250.5391" fill="#84BE84" rx="3" ry="3" style="stroke:#038048;stroke-width:1.0;"/><text fill="#000000" font-family="sans-serif" font-size="14" lengthAdjust="spacing" textLength="156" x="29" y="253.8857">UpdateButtons() : void</text><polygon fill="#FFFF44" points="20,261.8359,24,265.8359,20,269.8359,16,265.8359" style="stroke:#B38D22;stroke-width:1.0;"/><text fill="#000000" font-family="sans-serif" font-size="14" lengthAdjust="spacing" textLength="333" x="29" y="270.1826">&#171;virtual&#187; OnChoiceClicked(choice:IChoice) : void</text><ellipse cx="20" cy="283.1328" fill="#84BE84" rx="3" ry="3" style="stroke:#038048;stroke-width:1.0;"/><text fill="#000000" font-family="sans-serif" font-size="14" lengthAdjust="spacing" textLength="89" x="29" y="286.4795">Show() : void</text><rect fill="#F24D5C" height="6" style="stroke:#C82930;stroke-width:1.0;" width="6" x="17" y="296.4297"/><text fill="#000000" font-family="sans-serif" font-size="14" lengthAdjust="spacing" textLength="101" x="29" y="302.7764">Update() : void</text><ellipse cx="20" cy="315.7266" fill="#84BE84" rx="3" ry="3" style="stroke:#038048;stroke-width:1.0;"/><text fill="#000000" font-family="sans-serif" font-size="14" lengthAdjust="spacing" textLength="82" x="29" y="319.0732">Hide() : void</text></g><!--class IChoice--><g id="elem_IChoice"><rect codeLine="11" fill="#F1F1F1" height="80.5938" id="IChoice" rx="2.5" ry="2.5" style="stroke:#181818;stroke-width:0.5;" width="159" x="360" y="7"/><ellipse cx="409.25" cy="23" fill="#B4A7E5" rx="11" ry="11" style="stroke:#181818;stroke-width:1.0;"/><path d="M405.1719,18.7656 L405.1719,16.6094 L412.5625,16.6094 L412.5625,18.7656 L410.0938,18.7656 L410.0938,26.8438 L412.5625,26.8438 L412.5625,29 L405.1719,29 L405.1719,26.8438 L407.6406,26.8438 L407.6406,18.7656 L405.1719,18.7656 Z " fill="#000000"/><text fill="#000000" font-family="sans-serif" font-size="14" font-style="italic" lengthAdjust="spacing" textLength="52" x="429.75" y="27.8467">IChoice</text><line style="stroke:#181818;stroke-width:0.5;" x1="361" x2="518" y1="39" y2="39"/><ellipse cx="371" cy="52.6484" fill="none" rx="3" ry="3" style="stroke:#038048;stroke-width:1.0;"/><text fill="#000000" font-family="sans-serif" font-size="14" lengthAdjust="spacing" textLength="133" x="380" y="55.9951">Label : string &#171;get&#187;</text><ellipse cx="371" cy="68.9453" fill="none" rx="3" ry="3" style="stroke:#038048;stroke-width:1.0;"/><text fill="#000000" font-family="sans-serif" font-size="14" lengthAdjust="spacing" textLength="109" x="380" y="72.292">Price : int &#171;get&#187;</text><line style="stroke:#181818;stroke-width:0.5;" x1="361" x2="518" y1="79.5938" y2="79.5938"/></g><!--class MonoBehaviour--><g id="elem_MonoBehaviour"><rect fill="#F1F1F1" height="48" id="MonoBehaviour" rx="2.5" ry="2.5" style="stroke:#181818;stroke-width:0.5;" width="140" x="118.5" y="23.5"/><ellipse cx="133.5" cy="39.5" fill="#ADD1B2" rx="11" ry="11" style="stroke:#181818;stroke-width:1.0;"/><path d="M136.4688,45.1406 Q135.8906,45.4375 135.25,45.5781 Q134.6094,45.7344 133.9063,45.7344 Q131.4063,45.7344 130.0781,44.0938 Q128.7656,42.4375 128.7656,39.3125 Q128.7656,36.1875 130.0781,34.5313 Q131.4063,32.875 133.9063,32.875 Q134.6094,32.875 135.25,33.0313 Q135.9063,33.1875 136.4688,33.4844 L136.4688,36.2031 Q135.8438,35.625 135.25,35.3594 Q134.6563,35.0781 134.0313,35.0781 Q132.6875,35.0781 132,36.1563 Q131.3125,37.2188 131.3125,39.3125 Q131.3125,41.4063 132,42.4844 Q132.6875,43.5469 134.0313,43.5469 Q134.6563,43.5469 135.25,43.2813 Q135.8438,43 136.4688,42.4219 L136.4688,45.1406 Z " fill="#000000"/><text fill="#000000" font-family="sans-serif" font-size="14" lengthAdjust="spacing" textLength="108" x="147.5" y="44.3467">MonoBehaviour</text><line style="stroke:#181818;stroke-width:0.5;" x1="119.5" x2="257.5" y1="55.5" y2="55.5"/><line style="stroke:#181818;stroke-width:0.5;" x1="119.5" x2="257.5" y1="63.5" y2="63.5"/></g><!--class GameObject--><g id="elem_GameObject"><rect fill="#F1F1F1" height="48" id="GameObject" rx="2.5" ry="2.5" style="stroke:#181818;stroke-width:0.5;" width="118" x="62.5" y="386"/><ellipse cx="77.5" cy="402" fill="#ADD1B2" rx="11" ry="11" style="stroke:#181818;stroke-width:1.0;"/><path d="M80.4688,407.6406 Q79.8906,407.9375 79.25,408.0781 Q78.6094,408.2344 77.9063,408.2344 Q75.4063,408.2344 74.0781,406.5938 Q72.7656,404.9375 72.7656,401.8125 Q72.7656,398.6875 74.0781,397.0313 Q75.4063,395.375 77.9063,395.375 Q78.6094,395.375 79.25,395.5313 Q79.9063,395.6875 80.4688,395.9844 L80.4688,398.7031 Q79.8438,398.125 79.25,397.8594 Q78.6563,397.5781 78.0313,397.5781 Q76.6875,397.5781 76,398.6563 Q75.3125,399.7188 75.3125,401.8125 Q75.3125,403.9063 76,404.9844 Q76.6875,406.0469 78.0313,406.0469 Q78.6563,406.0469 79.25,405.7813 Q79.8438,405.5 80.4688,404.9219 L80.4688,407.6406 Z " fill="#000000"/><text fill="#000000" font-family="sans-serif" font-size="14" lengthAdjust="spacing" textLength="86" x="91.5" y="406.8467">GameObject</text><line style="stroke:#181818;stroke-width:0.5;" x1="63.5" x2="179.5" y1="418" y2="418"/><line style="stroke:#181818;stroke-width:0.5;" x1="63.5" x2="179.5" y1="426" y2="426"/></g><!--class Canvas--><g id="elem_Canvas"><rect fill="#F1F1F1" height="48" id="Canvas" rx="2.5" ry="2.5" style="stroke:#181818;stroke-width:0.5;" width="82" x="215.5" y="386"/><ellipse cx="230.5" cy="402" fill="#ADD1B2" rx="11" ry="11" style="stroke:#181818;stroke-width:1.0;"/><path d="M233.4688,407.6406 Q232.8906,407.9375 232.25,408.0781 Q231.6094,408.2344 230.9063,408.2344 Q228.4063,408.2344 227.0781,406.5938 Q225.7656,404.9375 225.7656,401.8125 Q225.7656,398.6875 227.0781,397.0313 Q228.4063,395.375 230.9063,395.375 Q231.6094,395.375 232.25,395.5313 Q232.9063,395.6875 233.4688,395.9844 L233.4688,398.7031 Q232.8438,398.125 232.25,397.8594 Q231.6563,397.5781 231.0313,397.5781 Q229.6875,397.5781 229,398.6563 Q228.3125,399.7188 228.3125,401.8125 Q228.3125,403.9063 229,404.9844 Q229.6875,406.0469 231.0313,406.0469 Q231.6563,406.0469 232.25,405.7813 Q232.8438,405.5 233.4688,404.9219 L233.4688,407.6406 Z " fill="#000000"/><text fill="#000000" font-family="sans-serif" font-size="14" lengthAdjust="spacing" textLength="50" x="244.5" y="406.8467">Canvas</text><line style="stroke:#181818;stroke-width:0.5;" x1="216.5" x2="296.5" y1="418" y2="418"/><line style="stroke:#181818;stroke-width:0.5;" x1="216.5" x2="296.5" y1="426" y2="426"/></g><!--class TowerContainer--><g id="elem_TowerContainer"><rect fill="#F1F1F1" height="48" id="TowerContainer" rx="2.5" ry="2.5" style="stroke:#181818;stroke-width:0.5;" width="142" x="332.5" y="386"/><ellipse cx="347.5" cy="402" fill="#ADD1B2" rx="11" ry="11" style="stroke:#181818;stroke-width:1.0;"/><path d="M350.4688,407.6406 Q349.8906,407.9375 349.25,408.0781 Q348.6094,408.2344 347.9063,408.2344 Q345.4063,408.2344 344.0781,406.5938 Q342.7656,404.9375 342.7656,401.8125 Q342.7656,398.6875 344.0781,397.0313 Q345.4063,395.375 347.9063,395.375 Q348.6094,395.375 349.25,395.5313 Q349.9063,395.6875 350.4688,395.9844 L350.4688,398.7031 Q349.8438,398.125 349.25,397.8594 Q348.6563,397.5781 348.0313,397.5781 Q346.6875,397.5781 346,398.6563 Q345.3125,399.7188 345.3125,401.8125 Q345.3125,403.9063 346,404.9844 Q346.6875,406.0469 348.0313,406.0469 Q348.6563,406.0469 349.25,405.7813 Q349.8438,405.5 350.4688,404.9219 L350.4688,407.6406 Z " fill="#000000"/><text fill="#000000" font-family="sans-serif" font-size="14" lengthAdjust="spacing" textLength="110" x="361.5" y="406.8467">TowerContainer</text><line style="stroke:#181818;stroke-width:0.5;" x1="333.5" x2="473.5" y1="418" y2="418"/><line style="stroke:#181818;stroke-width:0.5;" x1="333.5" x2="473.5" y1="426" y2="426"/></g><!--class Sprite--><g id="elem_Sprite"><rect fill="#F1F1F1" height="48" id="Sprite" rx="2.5" ry="2.5" style="stroke:#181818;stroke-width:0.5;" width="72" x="403.5" y="213"/><ellipse cx="418.5" cy="229" fill="#ADD1B2" rx="11" ry="11" style="stroke:#181818;stroke-width:1.0;"/><path d="M421.4688,234.6406 Q420.8906,234.9375 420.25,235.0781 Q419.6094,235.2344 418.9063,235.2344 Q416.4063,235.2344 415.0781,233.5938 Q413.7656,231.9375 413.7656,228.8125 Q413.7656,225.6875 415.0781,224.0313 Q416.4063,222.375 418.9063,222.375 Q419.6094,222.375 420.25,222.5313 Q420.9063,222.6875 421.4688,222.9844 L421.4688,225.7031 Q420.8438,225.125 420.25,224.8594 Q419.6563,224.5781 419.0313,224.5781 Q417.6875,224.5781 417,225.6563 Q416.3125,226.7188 416.3125,228.8125 Q416.3125,230.9063 417,231.9844 Q417.6875,233.0469 419.0313,233.0469 Q419.6563,233.0469 420.25,232.7813 Q420.8438,232.5 421.4688,231.9219 L421.4688,234.6406 Z " fill="#000000"/><text fill="#000000" font-family="sans-serif" font-size="14" lengthAdjust="spacing" textLength="40" x="432.5" y="233.8467">Sprite</text><line style="stroke:#181818;stroke-width:0.5;" x1="404.5" x2="474.5" y1="245" y2="245"/><line style="stroke:#181818;stroke-width:0.5;" x1="404.5" x2="474.5" y1="253" y2="253"/></g><!--reverse link MonoBehaviour to RadialSelector--><g id="link_MonoBehaviour_RadialSelector"><path codeLine="15" d="M188.5,92.05 C188.5,108.68 188.5,128.29 188.5,147.6 " fill="none" id="MonoBehaviour-backto-RadialSelector" style="stroke:#181818;stroke-width:1.0;"/><polygon fill="none" points="181.5,91.87,188.5,71.87,195.5,91.87,181.5,91.87" style="stroke:#181818;stroke-width:1.0;"/></g><!--link RadialSelector to GameObject--><g id="link_RadialSelector_GameObject"><path codeLine="16" d="M141.27,326 C133.57,345.86 126.86,365.53 122.81,380.73 " fill="none" id="RadialSelector-to-GameObject" style="stroke:#181818;stroke-width:1.0;"/><polygon fill="#181818" points="121.55,385.71,127.6562,377.9825,122.7895,380.8661,119.9059,375.9993,121.55,385.71" style="stroke:#181818;stroke-width:1.0;"/><text fill="#000000" font-family="sans-serif" font-size="13" lengthAdjust="spacing" textLength="93" x="17.2278" y="375.0443">_canvasPrefab</text></g><!--link RadialSelector to GameObject--><g id="link_RadialSelector_GameObject"><path codeLine="17" d="M167.51,326 C159.59,346.03 150.74,365.87 142.7,381.13 " fill="none" id="RadialSelector-to-GameObject-1" style="stroke:#181818;stroke-width:1.0;"/><polygon fill="#181818" points="140.24,385.71,148.0311,379.6852,142.6122,381.3086,140.9888,375.8896,140.24,385.71" style="stroke:#181818;stroke-width:1.0;"/><text fill="#000000" font-family="sans-serif" font-size="13" lengthAdjust="spacing" textLength="90" x="155.6896" y="374.9826">_buttonPrefab</text></g><!--link RadialSelector to Canvas--><g id="link_RadialSelector_Canvas"><path codeLine="18" d="M223.5,326 C231.39,345.86 239.21,365.53 245.26,380.73 " fill="none" id="RadialSelector-to-Canvas" style="stroke:#181818;stroke-width:1.0;"/><polygon fill="#181818" points="247.24,385.71,247.6375,375.8692,245.3954,381.0627,240.2018,378.8206,247.24,385.71" style="stroke:#181818;stroke-width:1.0;"/><text fill="#000000" font-family="sans-serif" font-size="13" lengthAdjust="spacing" textLength="52" x="251.3204" y="375.0443">_canvas</text></g><!--link RadialSelector to TowerContainer--><g id="link_RadialSelector_TowerContainer"><path codeLine="19" d="M299.15,326 C324.98,346.55 350.56,366.89 369.93,382.3 " fill="none" id="RadialSelector-to-TowerContainer" style="stroke:#181818;stroke-width:1.0;"/><polygon fill="#181818" points="374.22,385.71,369.6676,376.9764,370.3073,382.597,364.6867,383.2367,374.22,385.71" style="stroke:#181818;stroke-width:1.0;"/><text fill="#000000" font-family="sans-serif" font-size="13" lengthAdjust="spacing" textLength="99" x="379.1486" y="375.0443">TowerContainer</text></g><!--link IChoice to Sprite--><g id="link_IChoice_Sprite"><path codeLine="20" d="M439.5,88.26 C439.5,124.03 439.5,175.71 439.5,207.51 " fill="none" id="IChoice-to-Sprite" style="stroke:#181818;stroke-width:1.0;"/><polygon fill="#181818" points="439.5,212.82,443.5,203.82,439.5,207.82,435.5,203.82,439.5,212.82" style="stroke:#181818;stroke-width:1.0;"/><text fill="#000000" font-family="sans-serif" font-size="13" lengthAdjust="spacing" textLength="38" x="396.6313" y="201.7859">Sprite</text></g><!--SRC=[ZP31JeGm443lVCK4BvXDVu0G4fU3acZOY9wCCKEPNUhMbhG53kg_Mu4rWdkmbscdRzwqmoLQ2_TO2vGbIU9E6tWFm2y6LmCUARg467ejwZ5v0RaIBkAD5fnid6VZvkbv0MtWiQtHqRPpJYkxDYH9BuphKAOf56eoP5Bm8zMp-EHTMSj63qiPcpj5A_96r7zokIrQKZvNQItz8mxaqZJu38HoPFR82UQky_ytS8iLILzWdH7gy5CoNUxCDng3B_ybkzDARwd1NkZEGFB1s6gumMhMZAKGld1KFTgTeJrM8LpZ6nNLgmVEqzKur__Iapk4R8ndcGSzaCcqSYWKcH2Mv-0qbv4jMoCSXJ35Bm00]--></g></svg>