<?xml version="1.0" encoding="us-ascii" standalone="no"?><svg xmlns="http://www.w3.org/2000/svg" xmlns:xlink="http://www.w3.org/1999/xlink" contentStyleType="text/css" height="525px" preserveAspectRatio="none" style="width:507px;height:525px;background:#FFFFFF;" version="1.1" viewBox="0 0 507 525" width="507px" zoomAndPan="magnify"><defs/><g><!--class TowerSelector--><g id="elem_TowerSelector"><rect codeLine="1" fill="#F1F1F1" height="88.8594" id="TowerSelector" rx="2.5" ry="2.5" style="stroke:#181818;stroke-width:0.5;" width="375" x="125" y="115"/><ellipse cx="253.75" cy="135.1328" fill="#ADD1B2" rx="11" ry="11" style="stroke:#181818;stroke-width:1.0;"/><path d="M256.7188,140.7734 Q256.1406,141.0703 255.5,141.2109 Q254.8594,141.3672 254.1563,141.3672 Q251.6563,141.3672 250.3281,139.7266 Q249.0156,138.0703 249.0156,134.9453 Q249.0156,131.8203 250.3281,130.1641 Q251.6563,128.5078 254.1563,128.5078 Q254.8594,128.5078 255.5,128.6641 Q256.1563,128.8203 256.7188,129.1172 L256.7188,131.8359 Q256.0938,131.2578 255.5,130.9922 Q254.9063,130.7109 254.2813,130.7109 Q252.9375,130.7109 252.25,131.7891 Q251.5625,132.8516 251.5625,134.9453 Q251.5625,137.0391 252.25,138.1172 Q252.9375,139.1797 254.2813,139.1797 Q254.9063,139.1797 255.5,138.9141 Q256.0938,138.6328 256.7188,138.0547 L256.7188,140.7734 Z " fill="#000000"/><text fill="#000000" font-family="sans-serif" font-size="12" font-style="italic" lengthAdjust="spacing" textLength="113" x="272.25" y="131.1387">&#171;TowerContainer&#187;</text><text fill="#000000" font-family="sans-serif" font-size="14" lengthAdjust="spacing" textLength="100" x="278.75" y="146.9639">TowerSelector</text><line style="stroke:#181818;stroke-width:0.5;" x1="126" x2="499" y1="155.2656" y2="155.2656"/><rect fill="none" height="6" style="stroke:#C82930;stroke-width:1.0;" width="6" x="133" y="165.9141"/><text fill="#000000" font-family="sans-serif" font-size="14" lengthAdjust="spacing" textLength="209" x="145" y="172.2607">towerChoices : TowerChoice[]</text><line style="stroke:#181818;stroke-width:0.5;" x1="126" x2="499" y1="179.5625" y2="179.5625"/><polygon fill="#FFFF44" points="136,188.2109,140,192.2109,136,196.2109,132,192.2109" style="stroke:#B38D22;stroke-width:1.0;"/><text fill="#000000" font-family="sans-serif" font-size="14" lengthAdjust="spacing" textLength="349" x="145" y="196.5576">&#171;override&#187; OnChoiceClicked(choice:IChoice) : void</text></g><!--class TowerChoice--><g id="elem_TowerChoice"><rect codeLine="5" fill="#F1F1F1" height="145.7813" id="TowerChoice" rx="2.5" ry="2.5" style="stroke:#181818;stroke-width:0.5;" width="170" x="95.5" y="264"/><ellipse cx="131.65" cy="280" fill="#ADD1B2" rx="11" ry="11" style="stroke:#181818;stroke-width:1.0;"/><path d="M134.6188,285.6406 Q134.0406,285.9375 133.4,286.0781 Q132.7594,286.2344 132.0563,286.2344 Q129.5563,286.2344 128.2281,284.5938 Q126.9156,282.9375 126.9156,279.8125 Q126.9156,276.6875 128.2281,275.0313 Q129.5563,273.375 132.0563,273.375 Q132.7594,273.375 133.4,273.5313 Q134.0563,273.6875 134.6188,273.9844 L134.6188,276.7031 Q133.9938,276.125 133.4,275.8594 Q132.8063,275.5781 132.1813,275.5781 Q130.8375,275.5781 130.15,276.6563 Q129.4625,277.7188 129.4625,279.8125 Q129.4625,281.9063 130.15,282.9844 Q130.8375,284.0469 132.1813,284.0469 Q132.8063,284.0469 133.4,283.7813 Q133.9938,283.5 134.6188,282.9219 L134.6188,285.6406 Z " fill="#000000"/><text fill="#000000" font-family="sans-serif" font-size="14" lengthAdjust="spacing" textLength="91" x="150.35" y="284.8467">TowerChoice</text><line style="stroke:#181818;stroke-width:0.5;" x1="96.5" x2="264.5" y1="296" y2="296"/><ellipse cx="106.5" cy="309.6484" fill="none" rx="3" ry="3" style="stroke:#038048;stroke-width:1.0;"/><text fill="#000000" font-family="sans-serif" font-size="14" lengthAdjust="spacing" textLength="143" x="115.5" y="312.9951">prefab : GameObject</text><rect fill="none" height="6" style="stroke:#C82930;stroke-width:1.0;" width="6" x="103.5" y="322.9453"/><text fill="#000000" font-family="sans-serif" font-size="14" lengthAdjust="spacing" textLength="134" x="115.5" y="329.292">buttonLabel : string</text><ellipse cx="106.5" cy="342.2422" fill="none" rx="3" ry="3" style="stroke:#038048;stroke-width:1.0;"/><text fill="#000000" font-family="sans-serif" font-size="14" lengthAdjust="spacing" textLength="144" x="115.5" y="345.5889">Tower : Tower &#171;get&#187;</text><ellipse cx="106.5" cy="358.5391" fill="none" rx="3" ry="3" style="stroke:#038048;stroke-width:1.0;"/><text fill="#000000" font-family="sans-serif" font-size="14" lengthAdjust="spacing" textLength="133" x="115.5" y="361.8857">Label : string &#171;get&#187;</text><ellipse cx="106.5" cy="374.8359" fill="none" rx="3" ry="3" style="stroke:#038048;stroke-width:1.0;"/><text fill="#000000" font-family="sans-serif" font-size="14" lengthAdjust="spacing" textLength="109" x="115.5" y="378.1826">Price : int &#171;get&#187;</text><ellipse cx="106.5" cy="391.1328" fill="none" rx="3" ry="3" style="stroke:#038048;stroke-width:1.0;"/><text fill="#000000" font-family="sans-serif" font-size="14" lengthAdjust="spacing" textLength="138" x="115.5" y="394.4795">Sprite : Sprite &#171;get&#187;</text><line style="stroke:#181818;stroke-width:0.5;" x1="96.5" x2="264.5" y1="401.7813" y2="401.7813"/></g><!--class RadialSelector--><g id="elem_RadialSelector"><rect fill="#F1F1F1" height="48" id="RadialSelector" rx="2.5" ry="2.5" style="stroke:#181818;stroke-width:0.5;" width="130" x="247.5" y="7"/><ellipse cx="262.5" cy="23" fill="#ADD1B2" rx="11" ry="11" style="stroke:#181818;stroke-width:1.0;"/><path d="M265.4688,28.6406 Q264.8906,28.9375 264.25,29.0781 Q263.6094,29.2344 262.9063,29.2344 Q260.4063,29.2344 259.0781,27.5938 Q257.7656,25.9375 257.7656,22.8125 Q257.7656,19.6875 259.0781,18.0313 Q260.4063,16.375 262.9063,16.375 Q263.6094,16.375 264.25,16.5313 Q264.9063,16.6875 265.4688,16.9844 L265.4688,19.7031 Q264.8438,19.125 264.25,18.8594 Q263.6563,18.5781 263.0313,18.5781 Q261.6875,18.5781 261,19.6563 Q260.3125,20.7188 260.3125,22.8125 Q260.3125,24.9063 261,25.9844 Q261.6875,27.0469 263.0313,27.0469 Q263.6563,27.0469 264.25,26.7813 Q264.8438,26.5 265.4688,25.9219 L265.4688,28.6406 Z " fill="#000000"/><text fill="#000000" font-family="sans-serif" font-size="14" lengthAdjust="spacing" textLength="98" x="276.5" y="27.8467">RadialSelector</text><line style="stroke:#181818;stroke-width:0.5;" x1="248.5" x2="376.5" y1="39" y2="39"/><line style="stroke:#181818;stroke-width:0.5;" x1="248.5" x2="376.5" y1="47" y2="47"/></g><!--class IChoice--><g id="elem_IChoice"><rect fill="#F1F1F1" height="48" id="IChoice" rx="2.5" ry="2.5" style="stroke:#181818;stroke-width:0.5;" width="83" x="7" y="135.5"/><ellipse cx="22" cy="151.5" fill="#ADD1B2" rx="11" ry="11" style="stroke:#181818;stroke-width:1.0;"/><path d="M24.9688,157.1406 Q24.3906,157.4375 23.75,157.5781 Q23.1094,157.7344 22.4063,157.7344 Q19.9063,157.7344 18.5781,156.0938 Q17.2656,154.4375 17.2656,151.3125 Q17.2656,148.1875 18.5781,146.5313 Q19.9063,144.875 22.4063,144.875 Q23.1094,144.875 23.75,145.0313 Q24.4063,145.1875 24.9688,145.4844 L24.9688,148.2031 Q24.3438,147.625 23.75,147.3594 Q23.1563,147.0781 22.5313,147.0781 Q21.1875,147.0781 20.5,148.1563 Q19.8125,149.2188 19.8125,151.3125 Q19.8125,153.4063 20.5,154.4844 Q21.1875,155.5469 22.5313,155.5469 Q23.1563,155.5469 23.75,155.2813 Q24.3438,155 24.9688,154.4219 L24.9688,157.1406 Z " fill="#000000"/><text fill="#000000" font-family="sans-serif" font-size="14" lengthAdjust="spacing" textLength="51" x="36" y="156.3467">IChoice</text><line style="stroke:#181818;stroke-width:0.5;" x1="8" x2="89" y1="167.5" y2="167.5"/><line style="stroke:#181818;stroke-width:0.5;" x1="8" x2="89" y1="175.5" y2="175.5"/></g><!--class Tower--><g id="elem_Tower"><rect fill="#F1F1F1" height="48" id="Tower" rx="2.5" ry="2.5" style="stroke:#181818;stroke-width:0.5;" width="75" x="143" y="470"/><ellipse cx="158" cy="486" fill="#ADD1B2" rx="11" ry="11" style="stroke:#181818;stroke-width:1.0;"/><path d="M160.9688,491.6406 Q160.3906,491.9375 159.75,492.0781 Q159.1094,492.2344 158.4063,492.2344 Q155.9063,492.2344 154.5781,490.5938 Q153.2656,488.9375 153.2656,485.8125 Q153.2656,482.6875 154.5781,481.0313 Q155.9063,479.375 158.4063,479.375 Q159.1094,479.375 159.75,479.5313 Q160.4063,479.6875 160.9688,479.9844 L160.9688,482.7031 Q160.3438,482.125 159.75,481.8594 Q159.1563,481.5781 158.5313,481.5781 Q157.1875,481.5781 156.5,482.6563 Q155.8125,483.7188 155.8125,485.8125 Q155.8125,487.9063 156.5,488.9844 Q157.1875,490.0469 158.5313,490.0469 Q159.1563,490.0469 159.75,489.7813 Q160.3438,489.5 160.9688,488.9219 L160.9688,491.6406 Z " fill="#000000"/><text fill="#000000" font-family="sans-serif" font-size="14" lengthAdjust="spacing" textLength="43" x="172" y="490.8467">Tower</text><line style="stroke:#181818;stroke-width:0.5;" x1="144" x2="217" y1="502" y2="502"/><line style="stroke:#181818;stroke-width:0.5;" x1="144" x2="217" y1="510" y2="510"/></g><!--reverse link RadialSelector to TowerSelector--><g id="link_RadialSelector_TowerSelector"><path codeLine="13" d="M312.5,75.22 C312.5,88.05 312.5,102.12 312.5,114.97 " fill="none" id="RadialSelector-backto-TowerSelector" style="stroke:#181818;stroke-width:1.0;"/><polygon fill="none" points="305.5,75.2,312.5,55.2,319.5,75.2,305.5,75.2" style="stroke:#181818;stroke-width:1.0;"/></g><!--link TowerSelector to TowerChoice--><g id="link_TowerSelector_TowerChoice"><path codeLine="14" d="M279.53,204.33 C266.97,221.04 252.25,240.61 238.06,259.47 " fill="none" id="TowerSelector-to-TowerChoice" style="stroke:#181818;stroke-width:1.0;stroke-dasharray:7.0,7.0;"/><polygon fill="#181818" points="234.85,263.74,243.4691,258.9745,237.866,259.752,237.0884,254.1489,234.85,263.74" style="stroke:#181818;stroke-width:1.0;"/></g><!--reverse link IChoice to TowerChoice--><g id="link_IChoice_TowerChoice"><path codeLine="15" d="M78.05,199.79 C92.29,218.71 109.82,242.02 126.33,263.97 " fill="none" id="IChoice-backto-TowerChoice" style="stroke:#181818;stroke-width:1.0;"/><polygon fill="none" points="72.46,204,66.03,183.81,83.64,195.58,72.46,204" style="stroke:#181818;stroke-width:1.0;"/></g><!--link TowerChoice to Tower--><g id="link_TowerChoice_Tower"><path codeLine="16" d="M180.5,410.05 C180.5,429.52 180.5,449.44 180.5,464.88 " fill="none" id="TowerChoice-to-Tower" style="stroke:#181818;stroke-width:1.0;"/><polygon fill="#181818" points="180.5,469.94,184.5,460.94,180.5,464.94,176.5,460.94,180.5,469.94" style="stroke:#181818;stroke-width:1.0;"/><text fill="#000000" font-family="sans-serif" font-size="13" lengthAdjust="spacing" textLength="37" x="138.7594" y="458.9367">Tower</text></g><!--SRC=[NP2nRW8n38RtF8L5brPLU80Joi9GLQe4WcweGoxdKfUG89zB1ygxDoH1t94fpkVV_lCxR_iUtkClyXezEeaCirckvp68fO1i39mKfAD1ClYAvB27fkXAkVd8BGz97O_8J1qctI8KElVaTjWzkbmrh-NrAOquHkhKMRcRZyBgocSuC7xQDdM-s3qksk_aiPffVqHYUBCj-eHxOGhRAig3hWQJfIsACPMD1NTmoPVT3L2GEx8-CCa5rSkLdjNATcJzBRu_hSU9gd6-qwaP_bJLD0R22ePnQ6rWaXycfUSV]--></g></svg>