<?xml version="1.0" encoding="us-ascii" standalone="no"?><svg xmlns="http://www.w3.org/2000/svg" xmlns:xlink="http://www.w3.org/1999/xlink" contentStyleType="text/css" height="327px" preserveAspectRatio="none" style="width:651px;height:327px;background:#FFFFFF;" version="1.1" viewBox="0 0 651 327" width="651px" zoomAndPan="magnify"><defs/><g><!--class TowerSelector--><g id="elem_TowerSelector"><rect codeLine="1" fill="#F1F1F1" height="80.5938" id="TowerSelector" rx="2.5" ry="2.5" style="stroke:#181818;stroke-width:0.5;" width="375" x="9" y="123"/><ellipse cx="142.25" cy="139" fill="#ADD1B2" rx="11" ry="11" style="stroke:#181818;stroke-width:1.0;"/><path d="M145.2188,144.6406 Q144.6406,144.9375 144,145.0781 Q143.3594,145.2344 142.6563,145.2344 Q140.1563,145.2344 138.8281,143.5938 Q137.5156,141.9375 137.5156,138.8125 Q137.5156,135.6875 138.8281,134.0313 Q140.1563,132.375 142.6563,132.375 Q143.3594,132.375 144,132.5313 Q144.6563,132.6875 145.2188,132.9844 L145.2188,135.7031 Q144.5938,135.125 144,134.8594 Q143.4063,134.5781 142.7813,134.5781 Q141.4375,134.5781 140.75,135.6563 Q140.0625,136.7188 140.0625,138.8125 Q140.0625,140.9063 140.75,141.9844 Q141.4375,143.0469 142.7813,143.0469 Q143.4063,143.0469 144,142.7813 Q144.5938,142.5 145.2188,141.9219 L145.2188,144.6406 Z " fill="#000000"/><text fill="#000000" font-family="sans-serif" font-size="14" lengthAdjust="spacing" textLength="100" x="162.75" y="143.8467">TowerSelector</text><line style="stroke:#181818;stroke-width:0.5;" x1="10" x2="383" y1="155" y2="155"/><line style="stroke:#181818;stroke-width:0.5;" x1="10" x2="383" y1="163" y2="163"/><rect fill="#F24D5C" height="6" style="stroke:#C82930;stroke-width:1.0;" width="6" x="17" y="173.6484"/><text fill="#000000" font-family="sans-serif" font-size="14" lengthAdjust="spacing" textLength="83" x="29" y="179.9951">Start() : void</text><polygon fill="#FFFF44" points="20,187.9453,24,191.9453,20,195.9453,16,191.9453" style="stroke:#B38D22;stroke-width:1.0;"/><text fill="#000000" font-family="sans-serif" font-size="14" lengthAdjust="spacing" textLength="349" x="29" y="196.292">&#171;override&#187; OnChoiceClicked(choice:IChoice) : void</text></g><!--class TowerChoice--><g id="elem_TowerChoice"><rect codeLine="5" fill="#F1F1F1" height="96.8906" id="TowerChoice" rx="2.5" ry="2.5" style="stroke:#181818;stroke-width:0.5;" width="160" x="419.5" y="115"/><ellipse cx="451.15" cy="131" fill="#ADD1B2" rx="11" ry="11" style="stroke:#181818;stroke-width:1.0;"/><path d="M454.1188,136.6406 Q453.5406,136.9375 452.9,137.0781 Q452.2594,137.2344 451.5563,137.2344 Q449.0563,137.2344 447.7281,135.5938 Q446.4156,133.9375 446.4156,130.8125 Q446.4156,127.6875 447.7281,126.0313 Q449.0563,124.375 451.5563,124.375 Q452.2594,124.375 452.9,124.5313 Q453.5563,124.6875 454.1188,124.9844 L454.1188,127.7031 Q453.4938,127.125 452.9,126.8594 Q452.3063,126.5781 451.6813,126.5781 Q450.3375,126.5781 449.65,127.6563 Q448.9625,128.7188 448.9625,130.8125 Q448.9625,132.9063 449.65,133.9844 Q450.3375,135.0469 451.6813,135.0469 Q452.3063,135.0469 452.9,134.7813 Q453.4938,134.5 454.1188,133.9219 L454.1188,136.6406 Z " fill="#000000"/><text fill="#000000" font-family="sans-serif" font-size="14" lengthAdjust="spacing" textLength="91" x="468.85" y="135.8467">TowerChoice</text><line style="stroke:#181818;stroke-width:0.5;" x1="420.5" x2="578.5" y1="147" y2="147"/><rect fill="none" height="6" style="stroke:#C82930;stroke-width:1.0;" width="6" x="427.5" y="157.6484"/><text fill="#000000" font-family="sans-serif" font-size="14" lengthAdjust="spacing" textLength="134" x="439.5" y="163.9951">buttonLabel : string</text><ellipse cx="430.5" cy="176.9453" fill="none" rx="3" ry="3" style="stroke:#038048;stroke-width:1.0;"/><text fill="#000000" font-family="sans-serif" font-size="14" lengthAdjust="spacing" textLength="133" x="439.5" y="180.292">Label : string &#171;get&#187;</text><ellipse cx="430.5" cy="193.2422" fill="none" rx="3" ry="3" style="stroke:#038048;stroke-width:1.0;"/><text fill="#000000" font-family="sans-serif" font-size="14" lengthAdjust="spacing" textLength="109" x="439.5" y="196.5889">Price : int &#171;get&#187;</text><line style="stroke:#181818;stroke-width:0.5;" x1="420.5" x2="578.5" y1="203.8906" y2="203.8906"/></g><!--class RadialSelector--><g id="elem_RadialSelector"><rect fill="#F1F1F1" height="48" id="RadialSelector" rx="2.5" ry="2.5" style="stroke:#181818;stroke-width:0.5;" width="130" x="131.5" y="7"/><ellipse cx="146.5" cy="23" fill="#ADD1B2" rx="11" ry="11" style="stroke:#181818;stroke-width:1.0;"/><path d="M149.4688,28.6406 Q148.8906,28.9375 148.25,29.0781 Q147.6094,29.2344 146.9063,29.2344 Q144.4063,29.2344 143.0781,27.5938 Q141.7656,25.9375 141.7656,22.8125 Q141.7656,19.6875 143.0781,18.0313 Q144.4063,16.375 146.9063,16.375 Q147.6094,16.375 148.25,16.5313 Q148.9063,16.6875 149.4688,16.9844 L149.4688,19.7031 Q148.8438,19.125 148.25,18.8594 Q147.6563,18.5781 147.0313,18.5781 Q145.6875,18.5781 145,19.6563 Q144.3125,20.7188 144.3125,22.8125 Q144.3125,24.9063 145,25.9844 Q145.6875,27.0469 147.0313,27.0469 Q147.6563,27.0469 148.25,26.7813 Q148.8438,26.5 149.4688,25.9219 L149.4688,28.6406 Z " fill="#000000"/><text fill="#000000" font-family="sans-serif" font-size="14" lengthAdjust="spacing" textLength="98" x="160.5" y="27.8467">RadialSelector</text><line style="stroke:#181818;stroke-width:0.5;" x1="132.5" x2="260.5" y1="39" y2="39"/><line style="stroke:#181818;stroke-width:0.5;" x1="132.5" x2="260.5" y1="47" y2="47"/></g><!--class IChoice--><g id="elem_IChoice"><rect fill="#F1F1F1" height="48" id="IChoice" rx="2.5" ry="2.5" style="stroke:#181818;stroke-width:0.5;" width="83" x="458" y="7"/><ellipse cx="473" cy="23" fill="#ADD1B2" rx="11" ry="11" style="stroke:#181818;stroke-width:1.0;"/><path d="M475.9688,28.6406 Q475.3906,28.9375 474.75,29.0781 Q474.1094,29.2344 473.4063,29.2344 Q470.9063,29.2344 469.5781,27.5938 Q468.2656,25.9375 468.2656,22.8125 Q468.2656,19.6875 469.5781,18.0313 Q470.9063,16.375 473.4063,16.375 Q474.1094,16.375 474.75,16.5313 Q475.4063,16.6875 475.9688,16.9844 L475.9688,19.7031 Q475.3438,19.125 474.75,18.8594 Q474.1563,18.5781 473.5313,18.5781 Q472.1875,18.5781 471.5,19.6563 Q470.8125,20.7188 470.8125,22.8125 Q470.8125,24.9063 471.5,25.9844 Q472.1875,27.0469 473.5313,27.0469 Q474.1563,27.0469 474.75,26.7813 Q475.3438,26.5 475.9688,25.9219 L475.9688,28.6406 Z " fill="#000000"/><text fill="#000000" font-family="sans-serif" font-size="14" lengthAdjust="spacing" textLength="51" x="487" y="27.8467">IChoice</text><line style="stroke:#181818;stroke-width:0.5;" x1="459" x2="540" y1="39" y2="39"/><line style="stroke:#181818;stroke-width:0.5;" x1="459" x2="540" y1="47" y2="47"/></g><!--class GameObject--><g id="elem_GameObject"><rect fill="#F1F1F1" height="48" id="GameObject" rx="2.5" ry="2.5" style="stroke:#181818;stroke-width:0.5;" width="118" x="308.5" y="272"/><ellipse cx="323.5" cy="288" fill="#ADD1B2" rx="11" ry="11" style="stroke:#181818;stroke-width:1.0;"/><path d="M326.4688,293.6406 Q325.8906,293.9375 325.25,294.0781 Q324.6094,294.2344 323.9063,294.2344 Q321.4063,294.2344 320.0781,292.5938 Q318.7656,290.9375 318.7656,287.8125 Q318.7656,284.6875 320.0781,283.0313 Q321.4063,281.375 323.9063,281.375 Q324.6094,281.375 325.25,281.5313 Q325.9063,281.6875 326.4688,281.9844 L326.4688,284.7031 Q325.8438,284.125 325.25,283.8594 Q324.6563,283.5781 324.0313,283.5781 Q322.6875,283.5781 322,284.6563 Q321.3125,285.7188 321.3125,287.8125 Q321.3125,289.9063 322,290.9844 Q322.6875,292.0469 324.0313,292.0469 Q324.6563,292.0469 325.25,291.7813 Q325.8438,291.5 326.4688,290.9219 L326.4688,293.6406 Z " fill="#000000"/><text fill="#000000" font-family="sans-serif" font-size="14" lengthAdjust="spacing" textLength="86" x="337.5" y="292.8467">GameObject</text><line style="stroke:#181818;stroke-width:0.5;" x1="309.5" x2="425.5" y1="304" y2="304"/><line style="stroke:#181818;stroke-width:0.5;" x1="309.5" x2="425.5" y1="312" y2="312"/></g><!--class Tower--><g id="elem_Tower"><rect fill="#F1F1F1" height="48" id="Tower" rx="2.5" ry="2.5" style="stroke:#181818;stroke-width:0.5;" width="75" x="462" y="272"/><ellipse cx="477" cy="288" fill="#ADD1B2" rx="11" ry="11" style="stroke:#181818;stroke-width:1.0;"/><path d="M479.9688,293.6406 Q479.3906,293.9375 478.75,294.0781 Q478.1094,294.2344 477.4063,294.2344 Q474.9063,294.2344 473.5781,292.5938 Q472.2656,290.9375 472.2656,287.8125 Q472.2656,284.6875 473.5781,283.0313 Q474.9063,281.375 477.4063,281.375 Q478.1094,281.375 478.75,281.5313 Q479.4063,281.6875 479.9688,281.9844 L479.9688,284.7031 Q479.3438,284.125 478.75,283.8594 Q478.1563,283.5781 477.5313,283.5781 Q476.1875,283.5781 475.5,284.6563 Q474.8125,285.7188 474.8125,287.8125 Q474.8125,289.9063 475.5,290.9844 Q476.1875,292.0469 477.5313,292.0469 Q478.1563,292.0469 478.75,291.7813 Q479.3438,291.5 479.9688,290.9219 L479.9688,293.6406 Z " fill="#000000"/><text fill="#000000" font-family="sans-serif" font-size="14" lengthAdjust="spacing" textLength="43" x="491" y="292.8467">Tower</text><line style="stroke:#181818;stroke-width:0.5;" x1="463" x2="536" y1="304" y2="304"/><line style="stroke:#181818;stroke-width:0.5;" x1="463" x2="536" y1="312" y2="312"/></g><!--class Sprite--><g id="elem_Sprite"><rect fill="#F1F1F1" height="48" id="Sprite" rx="2.5" ry="2.5" style="stroke:#181818;stroke-width:0.5;" width="72" x="572.5" y="272"/><ellipse cx="587.5" cy="288" fill="#ADD1B2" rx="11" ry="11" style="stroke:#181818;stroke-width:1.0;"/><path d="M590.4688,293.6406 Q589.8906,293.9375 589.25,294.0781 Q588.6094,294.2344 587.9063,294.2344 Q585.4063,294.2344 584.0781,292.5938 Q582.7656,290.9375 582.7656,287.8125 Q582.7656,284.6875 584.0781,283.0313 Q585.4063,281.375 587.9063,281.375 Q588.6094,281.375 589.25,281.5313 Q589.9063,281.6875 590.4688,281.9844 L590.4688,284.7031 Q589.8438,284.125 589.25,283.8594 Q588.6563,283.5781 588.0313,283.5781 Q586.6875,283.5781 586,284.6563 Q585.3125,285.7188 585.3125,287.8125 Q585.3125,289.9063 586,290.9844 Q586.6875,292.0469 588.0313,292.0469 Q588.6563,292.0469 589.25,291.7813 Q589.8438,291.5 590.4688,290.9219 L590.4688,293.6406 Z " fill="#000000"/><text fill="#000000" font-family="sans-serif" font-size="14" lengthAdjust="spacing" textLength="40" x="601.5" y="292.8467">Sprite</text><line style="stroke:#181818;stroke-width:0.5;" x1="573.5" x2="643.5" y1="304" y2="304"/><line style="stroke:#181818;stroke-width:0.5;" x1="573.5" x2="643.5" y1="312" y2="312"/></g><!--reverse link RadialSelector to TowerSelector--><g id="link_RadialSelector_TowerSelector"><path codeLine="10" d="M196.5,75.11 C196.5,90.49 196.5,107.74 196.5,122.81 " fill="none" id="RadialSelector-backto-TowerSelector" style="stroke:#181818;stroke-width:1.0;"/><polygon fill="none" points="189.5,75.03,196.5,55.03,203.5,75.03,189.5,75.03" style="stroke:#181818;stroke-width:1.0;"/></g><!--reverse link IChoice to TowerChoice--><g id="link_IChoice_TowerChoice"><path codeLine="11" d="M499.5,75.37 C499.5,88.03 499.5,101.93 499.5,114.84 " fill="none" id="IChoice-backto-TowerChoice" style="stroke:#181818;stroke-width:1.0;"/><polygon fill="none" points="492.5,75.03,499.5,55.03,506.5,75.03,492.5,75.03" style="stroke:#181818;stroke-width:1.0;"/></g><!--link TowerChoice to GameObject--><g id="link_TowerChoice_GameObject"><path codeLine="12" d="M451.1,212.35 C432.08,231.15 410.96,252.03 394.71,268.1 " fill="none" id="TowerChoice-to-GameObject" style="stroke:#181818;stroke-width:1.0;"/><polygon fill="#181818" points="391.11,271.66,400.3236,268.1802,394.6669,268.146,394.7012,262.4892,391.11,271.66" style="stroke:#181818;stroke-width:1.0;"/><text fill="#000000" font-family="sans-serif" font-size="13" lengthAdjust="spacing" textLength="41" x="350.8681" y="260.9821">prefab</text></g><!--link TowerChoice to Tower--><g id="link_TowerChoice_Tower"><path codeLine="13" d="M499.5,212.35 C499.5,230.52 499.5,250.63 499.5,266.47 " fill="none" id="TowerChoice-to-Tower" style="stroke:#181818;stroke-width:1.0;"/><polygon fill="#181818" points="499.5,271.66,503.5,262.66,499.5,266.66,495.5,262.66,499.5,271.66" style="stroke:#181818;stroke-width:1.0;"/><text fill="#000000" font-family="sans-serif" font-size="13" lengthAdjust="spacing" textLength="37" x="457.9906" y="260.9821">Tower</text></g><!--link TowerChoice to Sprite--><g id="link_TowerChoice_Sprite"><path codeLine="14" d="M539.47,212.35 C555.04,231 572.32,251.68 585.69,267.7 " fill="none" id="TowerChoice-to-Sprite" style="stroke:#181818;stroke-width:1.0;"/><polygon fill="#181818" points="589.01,271.66,586.2866,262.1952,585.795,267.8306,580.1596,267.3391,589.01,271.66" style="stroke:#181818;stroke-width:1.0;"/><text fill="#000000" font-family="sans-serif" font-size="13" lengthAdjust="spacing" textLength="38" x="541.6281" y="260.9821">Sprite</text></g><!--SRC=[PO_13e8m38RlUue6BnYp5o1a5mx6n4GZli0O5QUJcLBneBoxo0nAxANf_xNzM-Dqqy3Utv5oT6ZO4pm4z24XPqqSpo61rjjo46UGfhv58bkYKh2fiwEt1ZDdpHdBs0nLiWhgEDa9yxK9R3GfRio-Nki2NT_UCDcw6j02fcBlN24hzO5RUcz9mDOyaaxiT6cr6pz9dr9EdnEVstvG4CJlSL8gYAw41rr4iDGNt1IdVlo_Pn2YiEUVvbUoZ164_080]--></g></svg>