<?xml version="1.0" encoding="us-ascii" standalone="no"?><svg xmlns="http://www.w3.org/2000/svg" xmlns:xlink="http://www.w3.org/1999/xlink" contentStyleType="text/css" height="582px" preserveAspectRatio="none" style="width:677px;height:582px;background:#FFFFFF;" version="1.1" viewBox="0 0 677 582" width="677px" zoomAndPan="magnify"><defs/><g><!--class UpgradeSelector--><g id="elem_UpgradeSelector"><rect codeLine="1" fill="#F1F1F1" height="96.8906" id="UpgradeSelector" rx="2.5" ry="2.5" style="stroke:#181818;stroke-width:0.5;" width="398" x="9" y="115"/><ellipse cx="145.75" cy="131" fill="#ADD1B2" rx="11" ry="11" style="stroke:#181818;stroke-width:1.0;"/><path d="M148.7188,136.6406 Q148.1406,136.9375 147.5,137.0781 Q146.8594,137.2344 146.1563,137.2344 Q143.6563,137.2344 142.3281,135.5938 Q141.0156,133.9375 141.0156,130.8125 Q141.0156,127.6875 142.3281,126.0313 Q143.6563,124.375 146.1563,124.375 Q146.8594,124.375 147.5,124.5313 Q148.1563,124.6875 148.7188,124.9844 L148.7188,127.7031 Q148.0938,127.125 147.5,126.8594 Q146.9063,126.5781 146.2813,126.5781 Q144.9375,126.5781 144.25,127.6563 Q143.5625,128.7188 143.5625,130.8125 Q143.5625,132.9063 144.25,133.9844 Q144.9375,135.0469 146.2813,135.0469 Q146.9063,135.0469 147.5,134.7813 Q148.0938,134.5 148.7188,133.9219 L148.7188,136.6406 Z " fill="#000000"/><text fill="#000000" font-family="sans-serif" font-size="14" lengthAdjust="spacing" textLength="116" x="166.25" y="135.8467">UpgradeSelector</text><line style="stroke:#181818;stroke-width:0.5;" x1="10" x2="406" y1="147" y2="147"/><line style="stroke:#181818;stroke-width:0.5;" x1="10" x2="406" y1="155" y2="155"/><rect fill="#F24D5C" height="6" style="stroke:#C82930;stroke-width:1.0;" width="6" x="17" y="165.6484"/><text fill="#000000" font-family="sans-serif" font-size="14" lengthAdjust="spacing" textLength="83" x="29" y="171.9951">Start() : void</text><polygon fill="#FFFF44" points="20,179.9453,24,183.9453,20,187.9453,16,183.9453" style="stroke:#B38D22;stroke-width:1.0;"/><text fill="#000000" font-family="sans-serif" font-size="14" lengthAdjust="spacing" textLength="349" x="29" y="188.292">&#171;override&#187; OnChoiceClicked(choice:IChoice) : void</text><ellipse cx="20" cy="201.2422" fill="#84BE84" rx="3" ry="3" style="stroke:#038048;stroke-width:1.0;"/><text fill="#000000" font-family="sans-serif" font-size="14" lengthAdjust="spacing" textLength="372" x="29" y="204.5889">SetNextUpgrade(nextTowerPrefab:GameObject) : void</text></g><!--class UpgradeChoice--><g id="elem_UpgradeChoice"><rect codeLine="6" fill="#F1F1F1" height="194.6719" id="UpgradeChoice" rx="2.5" ry="2.5" style="stroke:#181818;stroke-width:0.5;" width="308" x="340" y="272"/><ellipse cx="436.25" cy="288" fill="#ADD1B2" rx="11" ry="11" style="stroke:#181818;stroke-width:1.0;"/><path d="M439.2188,293.6406 Q438.6406,293.9375 438,294.0781 Q437.3594,294.2344 436.6563,294.2344 Q434.1563,294.2344 432.8281,292.5938 Q431.5156,290.9375 431.5156,287.8125 Q431.5156,284.6875 432.8281,283.0313 Q434.1563,281.375 436.6563,281.375 Q437.3594,281.375 438,281.5313 Q438.6563,281.6875 439.2188,281.9844 L439.2188,284.7031 Q438.5938,284.125 438,283.8594 Q437.4063,283.5781 436.7813,283.5781 Q435.4375,283.5781 434.75,284.6563 Q434.0625,285.7188 434.0625,287.8125 Q434.0625,289.9063 434.75,290.9844 Q435.4375,292.0469 436.7813,292.0469 Q437.4063,292.0469 438,291.7813 Q438.5938,291.5 439.2188,290.9219 L439.2188,293.6406 Z " fill="#000000"/><text fill="#000000" font-family="sans-serif" font-size="14" lengthAdjust="spacing" textLength="107" x="456.75" y="292.8467">UpgradeChoice</text><line style="stroke:#181818;stroke-width:0.5;" x1="341" x2="647" y1="304" y2="304"/><rect fill="none" height="6" style="stroke:#C82930;stroke-width:1.0;" width="6" x="348" y="314.6484"/><text fill="#000000" font-family="sans-serif" font-size="14" lengthAdjust="spacing" textLength="282" x="360" y="320.9951">buttonLabelUpgrade : string = "Upgrade"</text><rect fill="none" height="6" style="stroke:#C82930;stroke-width:1.0;" width="6" x="348" y="330.9453"/><text fill="#000000" font-family="sans-serif" font-size="14" lengthAdjust="spacing" textLength="218" x="360" y="337.292">buttonLabelMax : string = "Max"</text><rect fill="none" height="6" style="stroke:#C82930;stroke-width:1.0;" width="6" x="348" y="347.2422"/><text fill="#000000" font-family="sans-serif" font-size="14" lengthAdjust="spacing" textLength="141" x="360" y="353.5889">_buttonLabel : string</text><ellipse cx="351" cy="366.5391" fill="none" rx="3" ry="3" style="stroke:#038048;stroke-width:1.0;"/><text fill="#000000" font-family="sans-serif" font-size="14" lengthAdjust="spacing" textLength="64" x="360" y="369.8857">price : int</text><ellipse cx="351" cy="382.8359" fill="none" rx="3" ry="3" style="stroke:#038048;stroke-width:1.0;"/><text fill="#000000" font-family="sans-serif" font-size="14" lengthAdjust="spacing" textLength="133" x="360" y="386.1826">Label : string &#171;get&#187;</text><ellipse cx="351" cy="399.1328" fill="none" rx="3" ry="3" style="stroke:#038048;stroke-width:1.0;"/><text fill="#000000" font-family="sans-serif" font-size="14" lengthAdjust="spacing" textLength="109" x="360" y="402.4795">Price : int &#171;get&#187;</text><line style="stroke:#181818;stroke-width:0.5;" x1="341" x2="647" y1="409.7813" y2="409.7813"/><ellipse cx="351" cy="423.4297" fill="#84BE84" rx="3" ry="3" style="stroke:#038048;stroke-width:1.0;"/><text fill="#000000" font-family="sans-serif" font-size="14" lengthAdjust="spacing" textLength="117" x="360" y="426.7764">UpgradeChoice()</text><ellipse cx="351" cy="439.7266" fill="#84BE84" rx="3" ry="3" style="stroke:#038048;stroke-width:1.0;"/><text fill="#000000" font-family="sans-serif" font-size="14" lengthAdjust="spacing" textLength="133" x="360" y="443.0732">SetUpgrade() : void</text><ellipse cx="351" cy="456.0234" fill="#84BE84" rx="3" ry="3" style="stroke:#038048;stroke-width:1.0;"/><text fill="#000000" font-family="sans-serif" font-size="14" lengthAdjust="spacing" textLength="101" x="360" y="459.3701">SetMax() : void</text></g><!--class SellChoice--><g id="elem_SellChoice"><rect codeLine="17" fill="#F1F1F1" height="96.8906" id="SellChoice" rx="2.5" ry="2.5" style="stroke:#181818;stroke-width:0.5;" width="214" x="91" y="321"/><ellipse cx="157.75" cy="337" fill="#ADD1B2" rx="11" ry="11" style="stroke:#181818;stroke-width:1.0;"/><path d="M160.7188,342.6406 Q160.1406,342.9375 159.5,343.0781 Q158.8594,343.2344 158.1563,343.2344 Q155.6563,343.2344 154.3281,341.5938 Q153.0156,339.9375 153.0156,336.8125 Q153.0156,333.6875 154.3281,332.0313 Q155.6563,330.375 158.1563,330.375 Q158.8594,330.375 159.5,330.5313 Q160.1563,330.6875 160.7188,330.9844 L160.7188,333.7031 Q160.0938,333.125 159.5,332.8594 Q158.9063,332.5781 158.2813,332.5781 Q156.9375,332.5781 156.25,333.6563 Q155.5625,334.7188 155.5625,336.8125 Q155.5625,338.9063 156.25,339.9844 Q156.9375,341.0469 158.2813,341.0469 Q158.9063,341.0469 159.5,340.7813 Q160.0938,340.5 160.7188,339.9219 L160.7188,342.6406 Z " fill="#000000"/><text fill="#000000" font-family="sans-serif" font-size="14" lengthAdjust="spacing" textLength="72" x="178.25" y="341.8467">SellChoice</text><line style="stroke:#181818;stroke-width:0.5;" x1="92" x2="304" y1="353" y2="353"/><rect fill="none" height="6" style="stroke:#C82930;stroke-width:1.0;" width="6" x="99" y="363.6484"/><text fill="#000000" font-family="sans-serif" font-size="14" lengthAdjust="spacing" textLength="188" x="111" y="369.9951">buttonLabel : string = "Sell"</text><ellipse cx="102" cy="382.9453" fill="none" rx="3" ry="3" style="stroke:#038048;stroke-width:1.0;"/><text fill="#000000" font-family="sans-serif" font-size="14" lengthAdjust="spacing" textLength="133" x="111" y="386.292">Label : string &#171;get&#187;</text><ellipse cx="102" cy="399.2422" fill="none" rx="3" ry="3" style="stroke:#038048;stroke-width:1.0;"/><text fill="#000000" font-family="sans-serif" font-size="14" lengthAdjust="spacing" textLength="109" x="111" y="402.5889">Price : int &#171;get&#187;</text><line style="stroke:#181818;stroke-width:0.5;" x1="92" x2="304" y1="409.8906" y2="409.8906"/></g><!--class RadialSelector--><g id="elem_RadialSelector"><rect fill="#F1F1F1" height="48" id="RadialSelector" rx="2.5" ry="2.5" style="stroke:#181818;stroke-width:0.5;" width="130" x="143" y="7"/><ellipse cx="158" cy="23" fill="#ADD1B2" rx="11" ry="11" style="stroke:#181818;stroke-width:1.0;"/><path d="M160.9688,28.6406 Q160.3906,28.9375 159.75,29.0781 Q159.1094,29.2344 158.4063,29.2344 Q155.9063,29.2344 154.5781,27.5938 Q153.2656,25.9375 153.2656,22.8125 Q153.2656,19.6875 154.5781,18.0313 Q155.9063,16.375 158.4063,16.375 Q159.1094,16.375 159.75,16.5313 Q160.4063,16.6875 160.9688,16.9844 L160.9688,19.7031 Q160.3438,19.125 159.75,18.8594 Q159.1563,18.5781 158.5313,18.5781 Q157.1875,18.5781 156.5,19.6563 Q155.8125,20.7188 155.8125,22.8125 Q155.8125,24.9063 156.5,25.9844 Q157.1875,27.0469 158.5313,27.0469 Q159.1563,27.0469 159.75,26.7813 Q160.3438,26.5 160.9688,25.9219 L160.9688,28.6406 Z " fill="#000000"/><text fill="#000000" font-family="sans-serif" font-size="14" lengthAdjust="spacing" textLength="98" x="172" y="27.8467">RadialSelector</text><line style="stroke:#181818;stroke-width:0.5;" x1="144" x2="272" y1="39" y2="39"/><line style="stroke:#181818;stroke-width:0.5;" x1="144" x2="272" y1="47" y2="47"/></g><!--class IChoice--><g id="elem_IChoice"><rect fill="#F1F1F1" height="48" id="IChoice" rx="2.5" ry="2.5" style="stroke:#181818;stroke-width:0.5;" width="83" x="447.5" y="139.5"/><ellipse cx="462.5" cy="155.5" fill="#ADD1B2" rx="11" ry="11" style="stroke:#181818;stroke-width:1.0;"/><path d="M465.4688,161.1406 Q464.8906,161.4375 464.25,161.5781 Q463.6094,161.7344 462.9063,161.7344 Q460.4063,161.7344 459.0781,160.0938 Q457.7656,158.4375 457.7656,155.3125 Q457.7656,152.1875 459.0781,150.5313 Q460.4063,148.875 462.9063,148.875 Q463.6094,148.875 464.25,149.0313 Q464.9063,149.1875 465.4688,149.4844 L465.4688,152.2031 Q464.8438,151.625 464.25,151.3594 Q463.6563,151.0781 463.0313,151.0781 Q461.6875,151.0781 461,152.1563 Q460.3125,153.2188 460.3125,155.3125 Q460.3125,157.4063 461,158.4844 Q461.6875,159.5469 463.0313,159.5469 Q463.6563,159.5469 464.25,159.2813 Q464.8438,159 465.4688,158.4219 L465.4688,161.1406 Z " fill="#000000"/><text fill="#000000" font-family="sans-serif" font-size="14" lengthAdjust="spacing" textLength="51" x="476.5" y="160.3467">IChoice</text><line style="stroke:#181818;stroke-width:0.5;" x1="448.5" x2="529.5" y1="171.5" y2="171.5"/><line style="stroke:#181818;stroke-width:0.5;" x1="448.5" x2="529.5" y1="179.5" y2="179.5"/></g><!--class Sprite--><g id="elem_Sprite"><rect fill="#F1F1F1" height="48" id="Sprite" rx="2.5" ry="2.5" style="stroke:#181818;stroke-width:0.5;" width="72" x="393" y="527"/><ellipse cx="408" cy="543" fill="#ADD1B2" rx="11" ry="11" style="stroke:#181818;stroke-width:1.0;"/><path d="M410.9688,548.6406 Q410.3906,548.9375 409.75,549.0781 Q409.1094,549.2344 408.4063,549.2344 Q405.9063,549.2344 404.5781,547.5938 Q403.2656,545.9375 403.2656,542.8125 Q403.2656,539.6875 404.5781,538.0313 Q405.9063,536.375 408.4063,536.375 Q409.1094,536.375 409.75,536.5313 Q410.4063,536.6875 410.9688,536.9844 L410.9688,539.7031 Q410.3438,539.125 409.75,538.8594 Q409.1563,538.5781 408.5313,538.5781 Q407.1875,538.5781 406.5,539.6563 Q405.8125,540.7188 405.8125,542.8125 Q405.8125,544.9063 406.5,545.9844 Q407.1875,547.0469 408.5313,547.0469 Q409.1563,547.0469 409.75,546.7813 Q410.3438,546.5 410.9688,545.9219 L410.9688,548.6406 Z " fill="#000000"/><text fill="#000000" font-family="sans-serif" font-size="14" lengthAdjust="spacing" textLength="40" x="422" y="547.8467">Sprite</text><line style="stroke:#181818;stroke-width:0.5;" x1="394" x2="464" y1="559" y2="559"/><line style="stroke:#181818;stroke-width:0.5;" x1="394" x2="464" y1="567" y2="567"/></g><!--class GameObject--><g id="elem_GameObject"><rect fill="#F1F1F1" height="48" id="GameObject" rx="2.5" ry="2.5" style="stroke:#181818;stroke-width:0.5;" width="118" x="500" y="527"/><ellipse cx="515" cy="543" fill="#ADD1B2" rx="11" ry="11" style="stroke:#181818;stroke-width:1.0;"/><path d="M517.9688,548.6406 Q517.3906,548.9375 516.75,549.0781 Q516.1094,549.2344 515.4063,549.2344 Q512.9063,549.2344 511.5781,547.5938 Q510.2656,545.9375 510.2656,542.8125 Q510.2656,539.6875 511.5781,538.0313 Q512.9063,536.375 515.4063,536.375 Q516.1094,536.375 516.75,536.5313 Q517.4063,536.6875 517.9688,536.9844 L517.9688,539.7031 Q517.3438,539.125 516.75,538.8594 Q516.1563,538.5781 515.5313,538.5781 Q514.1875,538.5781 513.5,539.6563 Q512.8125,540.7188 512.8125,542.8125 Q512.8125,544.9063 513.5,545.9844 Q514.1875,547.0469 515.5313,547.0469 Q516.1563,547.0469 516.75,546.7813 Q517.3438,546.5 517.9688,545.9219 L517.9688,548.6406 Z " fill="#000000"/><text fill="#000000" font-family="sans-serif" font-size="14" lengthAdjust="spacing" textLength="86" x="529" y="547.8467">GameObject</text><line style="stroke:#181818;stroke-width:0.5;" x1="501" x2="617" y1="559" y2="559"/><line style="stroke:#181818;stroke-width:0.5;" x1="501" x2="617" y1="567" y2="567"/></g><!--reverse link RadialSelector to UpgradeSelector--><g id="link_RadialSelector_UpgradeSelector"><path codeLine="22" d="M208,75.37 C208,88.03 208,101.93 208,114.84 " fill="none" id="RadialSelector-backto-UpgradeSelector" style="stroke:#181818;stroke-width:1.0;"/><polygon fill="none" points="201,75.03,208,55.03,215,75.03,201,75.03" style="stroke:#181818;stroke-width:1.0;"/></g><!--link UpgradeSelector to SellChoice--><g id="link_UpgradeSelector_SellChoice"><path codeLine="23" d="M205.67,212.07 C204.15,243.14 202.16,283.74 200.58,315.79 " fill="none" id="UpgradeSelector-to-SellChoice" style="stroke:#181818;stroke-width:1.0;"/><polygon fill="#181818" points="200.34,320.85,204.7719,312.0547,200.5826,315.8559,196.7813,311.6665,200.34,320.85" style="stroke:#181818;stroke-width:1.0;"/><text fill="#000000" font-family="sans-serif" font-size="13" lengthAdjust="spacing" textLength="64" x="132.1691" y="310.0378">sellChoice</text></g><!--link UpgradeSelector to UpgradeChoice--><g id="link_UpgradeSelector_UpgradeChoice"><path codeLine="24" d="M274.69,212.07 C298.69,229.18 326.73,249.19 354.59,269.06 " fill="none" id="UpgradeSelector-to-UpgradeChoice" style="stroke:#181818;stroke-width:1.0;"/><polygon fill="#181818" points="358.7,271.99,353.7098,263.499,354.6342,269.0798,349.0534,270.0042,358.7,271.99" style="stroke:#181818;stroke-width:1.0;"/><text fill="#000000" font-family="sans-serif" font-size="13" lengthAdjust="spacing" textLength="96" x="248.6661" y="261.0347">upgradeChoice</text></g><!--reverse link IChoice to UpgradeChoice--><g id="link_IChoice_UpgradeChoice"><path codeLine="25" d="M490.05,207.51 C490.52,226.39 491.08,249.37 491.63,272 " fill="none" id="IChoice-backto-UpgradeChoice" style="stroke:#181818;stroke-width:1.0;"/><polygon fill="none" points="483.06,207.67,489.56,187.5,497.05,207.33,483.06,207.67" style="stroke:#181818;stroke-width:1.0;"/></g><!--link UpgradeChoice to Sprite--><g id="link_UpgradeChoice_Sprite"><path codeLine="26" d="M432.84,467.08 C426.01,487.03 421.09,506.54 419.5,521.61 " fill="none" id="UpgradeChoice-to-Sprite" style="stroke:#181818;stroke-width:1.0;"/><polygon fill="#181818" points="419.07,526.95,423.7769,518.2987,419.4699,521.966,415.8026,517.6589,419.07,526.95" style="stroke:#181818;stroke-width:1.0;"/><text fill="#000000" font-family="sans-serif" font-size="13" lengthAdjust="spacing" textLength="66" x="424.9817" y="515.9492">maxSprite</text></g><!--link UpgradeChoice to Sprite--><g id="link_UpgradeChoice_Sprite"><path codeLine="28" d="M459.03,467.08 C451.74,487.21 444.62,506.88 439.14,522 " fill="none" id="UpgradeChoice-to-Sprite-1" style="stroke:#181818;stroke-width:1.0;"/><polygon fill="#181818" points="437.35,526.95,444.1727,519.8472,439.0507,522.2481,436.6497,517.1261,437.35,526.95" style="stroke:#181818;stroke-width:1.0;"/><text fill="#000000" font-family="sans-serif" font-size="13" lengthAdjust="spacing" textLength="36" x="398.8772" y="515.9492">sprite</text></g><!--link UpgradeChoice to Sprite--><g id="link_UpgradeChoice_Sprite"><path codeLine="29" d="M485.21,467.08 C477.45,487.38 468.07,507.22 458.57,522.4 " fill="none" id="UpgradeChoice-to-Sprite-2" style="stroke:#181818;stroke-width:1.0;"/><polygon fill="#181818" points="455.62,526.95,463.8645,521.5622,458.3339,522.7506,457.1455,517.22,455.62,526.95" style="stroke:#181818;stroke-width:1.0;"/><text fill="#000000" font-family="sans-serif" font-size="13" lengthAdjust="spacing" textLength="38" x="454.1724" y="526.329">Sprite</text></g><!--link UpgradeChoice to GameObject--><g id="link_UpgradeChoice_GameObject"><path codeLine="27" d="M528.97,467.08 C536.26,487.21 543.38,506.88 548.86,522 " fill="none" id="UpgradeChoice-to-GameObject" style="stroke:#181818;stroke-width:1.0;"/><polygon fill="#181818" points="550.65,526.95,551.3503,517.1261,548.9493,522.2481,543.8273,519.8472,550.65,526.95" style="stroke:#181818;stroke-width:1.0;"/><text fill="#000000" font-family="sans-serif" font-size="13" lengthAdjust="spacing" textLength="108" x="562.3478" y="515.9492">NextTowerPrefab</text></g><!--reverse link IChoice to SellChoice--><g id="link_IChoice_SellChoice"><path codeLine="30" d="M442.46,199.36 C436.32,203.71 430.05,208.02 424,212 C380.05,240.88 365.51,242.45 322,272 C299.88,287.02 276.53,304.68 256.12,320.76 " fill="none" id="IChoice-backto-SellChoice" style="stroke:#181818;stroke-width:1.0;"/><polygon fill="none" points="438.39,193.67,458.69,187.61,446.6,205.01,438.39,193.67" style="stroke:#181818;stroke-width:1.0;"/></g><!--link SellChoice to Sprite--><g id="link_SellChoice_Sprite"><path codeLine="31" d="M243.03,418.13 C262.18,433.71 284.54,451.1 305,467 C332.38,488.27 363.72,512.58 388.62,529.36 " fill="none" id="SellChoice-to-Sprite" style="stroke:#181818;stroke-width:1.0;"/><polygon fill="#181818" points="392.88,532.2,387.6103,523.8795,388.7197,529.4265,383.1727,530.5359,392.88,532.2" style="stroke:#181818;stroke-width:1.0;"/><text fill="#000000" font-family="sans-serif" font-size="13" lengthAdjust="spacing" textLength="36" x="348.9311" y="525.4138">sprite</text></g><!--link SellChoice to Sprite--><g id="link_SellChoice_Sprite"><path codeLine="32" d="M276.24,418.13 C297.18,433.71 319.54,451.1 340,467 C364.16,485.77 391.42,506.91 410,523.16 " fill="none" id="SellChoice-to-Sprite-1" style="stroke:#181818;stroke-width:1.0;"/><polygon fill="#181818" points="414.07,526.76,409.9838,517.7988,410.3267,523.4453,404.6802,523.7882,414.07,526.76" style="stroke:#181818;stroke-width:1.0;"/><text fill="#000000" font-family="sans-serif" font-size="13" lengthAdjust="spacing" textLength="38" x="367.7996" y="516.1065">Sprite</text></g><!--SRC=[dPBFJeGm4CRlFCMaNjWONe0WbpqO4_TFHC-cb17hTkccT5SItNUti5re0MCYbzBfRsQ-VXqcQ5t3ow5KjC0C1J8j5Nm5OBu8CasL3XSGmqdoeWlUG9B84oh52qnJs5JBTyaPBWLdEon2rktYXqlKoxo53FKQ6ssxXPNvVvQVgBOAtsWUtzCzRl8F8w7FEmVC5NYfsilBZrhBwf7cA2nWycgjU5N27H0R8rDwHHkFDFihzUfWFMFr7rJRFGPUQHlnCMDDYJfDxU5sm4SdtdN2nM3FrPgfSKPYEB75F9ZutHFlYYrA_glw73pHWbFH3qZo7KNZgGd6KnH5AP2wbqWSkVFiqRM5-2u5TgIyrdun2tIbzhJ9p7Ffjcktpa5hVm0931CuXzT_5Xorz2GxbtUURQxm-DYl-WC0]--></g></svg>