<?xml version="1.0" encoding="us-ascii" standalone="no"?><svg xmlns="http://www.w3.org/2000/svg" xmlns:xlink="http://www.w3.org/1999/xlink" contentStyleType="text/css" height="481px" preserveAspectRatio="none" style="width:637px;height:481px;background:#FFFFFF;" version="1.1" viewBox="0 0 637 481" width="637px" zoomAndPan="magnify"><defs/><g><!--class UpgradeSelector--><g id="elem_UpgradeSelector"><rect codeLine="1" fill="#F1F1F1" height="121.4531" id="UpgradeSelector" rx="2.5" ry="2.5" style="stroke:#181818;stroke-width:0.5;" width="405" x="16.5" y="115"/><ellipse cx="156.75" cy="135.1328" fill="#ADD1B2" rx="11" ry="11" style="stroke:#181818;stroke-width:1.0;"/><path d="M159.7188,140.7734 Q159.1406,141.0703 158.5,141.2109 Q157.8594,141.3672 157.1563,141.3672 Q154.6563,141.3672 153.3281,139.7266 Q152.0156,138.0703 152.0156,134.9453 Q152.0156,131.8203 153.3281,130.1641 Q154.6563,128.5078 157.1563,128.5078 Q157.8594,128.5078 158.5,128.6641 Q159.1563,128.8203 159.7188,129.1172 L159.7188,131.8359 Q159.0938,131.2578 158.5,130.9922 Q157.9063,130.7109 157.2813,130.7109 Q155.9375,130.7109 155.25,131.7891 Q154.5625,132.8516 154.5625,134.9453 Q154.5625,137.0391 155.25,138.1172 Q155.9375,139.1797 157.2813,139.1797 Q157.9063,139.1797 158.5,138.9141 Q159.0938,138.6328 159.7188,138.0547 L159.7188,140.7734 Z " fill="#000000"/><text fill="#000000" font-family="sans-serif" font-size="12" font-style="italic" lengthAdjust="spacing" textLength="113" x="178.75" y="131.1387">&#171;TowerContainer&#187;</text><text fill="#000000" font-family="sans-serif" font-size="14" lengthAdjust="spacing" textLength="116" x="177.25" y="146.9639">UpgradeSelector</text><line style="stroke:#181818;stroke-width:0.5;" x1="17.5" x2="420.5" y1="155.2656" y2="155.2656"/><rect fill="none" height="6" style="stroke:#C82930;stroke-width:1.0;" width="6" x="24.5" y="165.9141"/><text fill="#000000" font-family="sans-serif" font-size="14" lengthAdjust="spacing" textLength="156" x="36.5" y="172.2607">sellChoice : SellChoice</text><rect fill="none" height="6" style="stroke:#C82930;stroke-width:1.0;" width="6" x="24.5" y="182.2109"/><text fill="#000000" font-family="sans-serif" font-size="14" lengthAdjust="spacing" textLength="226" x="36.5" y="188.5576">upgradeChoice : UpgradeChoice</text><line style="stroke:#181818;stroke-width:0.5;" x1="17.5" x2="420.5" y1="195.8594" y2="195.8594"/><polygon fill="#FFFF44" points="27.5,204.5078,31.5,208.5078,27.5,212.5078,23.5,208.5078" style="stroke:#B38D22;stroke-width:1.0;"/><text fill="#000000" font-family="sans-serif" font-size="14" lengthAdjust="spacing" textLength="349" x="36.5" y="212.8545">&#171;override&#187; OnChoiceClicked(choice:IChoice) : void</text><ellipse cx="27.5" cy="225.8047" fill="#84BE84" rx="3" ry="3" style="stroke:#038048;stroke-width:1.0;"/><text fill="#000000" font-family="sans-serif" font-size="14" lengthAdjust="spacing" textLength="379" x="36.5" y="229.1514">SetNextUpgrade(nextTowerPrefab:GameObject?) : void</text></g><!--class UpgradeChoice--><g id="elem_UpgradeChoice"><rect codeLine="7" fill="#F1F1F1" height="178.375" id="UpgradeChoice" rx="2.5" ry="2.5" style="stroke:#181818;stroke-width:0.5;" width="374" x="7" y="296"/><ellipse cx="136.25" cy="312" fill="#ADD1B2" rx="11" ry="11" style="stroke:#181818;stroke-width:1.0;"/><path d="M139.2188,317.6406 Q138.6406,317.9375 138,318.0781 Q137.3594,318.2344 136.6563,318.2344 Q134.1563,318.2344 132.8281,316.5938 Q131.5156,314.9375 131.5156,311.8125 Q131.5156,308.6875 132.8281,307.0313 Q134.1563,305.375 136.6563,305.375 Q137.3594,305.375 138,305.5313 Q138.6563,305.6875 139.2188,305.9844 L139.2188,308.7031 Q138.5938,308.125 138,307.8594 Q137.4063,307.5781 136.7813,307.5781 Q135.4375,307.5781 134.75,308.6563 Q134.0625,309.7188 134.0625,311.8125 Q134.0625,313.9063 134.75,314.9844 Q135.4375,316.0469 136.7813,316.0469 Q137.4063,316.0469 138,315.7813 Q138.5938,315.5 139.2188,314.9219 L139.2188,317.6406 Z " fill="#000000"/><text fill="#000000" font-family="sans-serif" font-size="14" lengthAdjust="spacing" textLength="107" x="156.75" y="316.8467">UpgradeChoice</text><line style="stroke:#181818;stroke-width:0.5;" x1="8" x2="380" y1="328" y2="328"/><rect fill="none" height="6" style="stroke:#C82930;stroke-width:1.0;" width="6" x="15" y="338.6484"/><text fill="#000000" font-family="sans-serif" font-size="14" lengthAdjust="spacing" textLength="282" x="27" y="344.9951">buttonLabelUpgrade : string = "Upgrade"</text><rect fill="none" height="6" style="stroke:#C82930;stroke-width:1.0;" width="6" x="15" y="354.9453"/><text fill="#000000" font-family="sans-serif" font-size="14" lengthAdjust="spacing" textLength="218" x="27" y="361.292">buttonLabelMax : string = "Max"</text><rect fill="none" height="6" style="stroke:#C82930;stroke-width:1.0;" width="6" x="15" y="371.2422"/><text fill="#000000" font-family="sans-serif" font-size="14" lengthAdjust="spacing" textLength="121" x="27" y="377.5889">maxSprite : Sprite</text><ellipse cx="18" cy="390.5391" fill="none" rx="3" ry="3" style="stroke:#038048;stroke-width:1.0;"/><text fill="#000000" font-family="sans-serif" font-size="14" lengthAdjust="spacing" textLength="217" x="27" y="393.8857">NextTowerPrefab : GameObject</text><ellipse cx="18" cy="406.8359" fill="none" rx="3" ry="3" style="stroke:#038048;stroke-width:1.0;"/><text fill="#000000" font-family="sans-serif" font-size="14" lengthAdjust="spacing" textLength="133" x="27" y="410.1826">Label : string &#171;get&#187;</text><ellipse cx="18" cy="423.1328" fill="none" rx="3" ry="3" style="stroke:#038048;stroke-width:1.0;"/><text fill="#000000" font-family="sans-serif" font-size="14" lengthAdjust="spacing" textLength="109" x="27" y="426.4795">Price : int &#171;get&#187;</text><ellipse cx="18" cy="439.4297" fill="none" rx="3" ry="3" style="stroke:#038048;stroke-width:1.0;"/><text fill="#000000" font-family="sans-serif" font-size="14" lengthAdjust="spacing" textLength="138" x="27" y="442.7764">Sprite : Sprite &#171;get&#187;</text><line style="stroke:#181818;stroke-width:0.5;" x1="8" x2="380" y1="450.0781" y2="450.0781"/><ellipse cx="18" cy="463.7266" fill="#84BE84" rx="3" ry="3" style="stroke:#038048;stroke-width:1.0;"/><text fill="#000000" font-family="sans-serif" font-size="14" lengthAdjust="spacing" textLength="348" x="27" y="467.0732">SetUpgrade(nextTowerPrefab:GameObject?) : void</text></g><!--class SellChoice--><g id="elem_SellChoice"><rect codeLine="17" fill="#F1F1F1" height="129.4844" id="SellChoice" rx="2.5" ry="2.5" style="stroke:#181818;stroke-width:0.5;" width="214" x="416" y="320.5"/><ellipse cx="482.75" cy="336.5" fill="#ADD1B2" rx="11" ry="11" style="stroke:#181818;stroke-width:1.0;"/><path d="M485.7188,342.1406 Q485.1406,342.4375 484.5,342.5781 Q483.8594,342.7344 483.1563,342.7344 Q480.6563,342.7344 479.3281,341.0938 Q478.0156,339.4375 478.0156,336.3125 Q478.0156,333.1875 479.3281,331.5313 Q480.6563,329.875 483.1563,329.875 Q483.8594,329.875 484.5,330.0313 Q485.1563,330.1875 485.7188,330.4844 L485.7188,333.2031 Q485.0938,332.625 484.5,332.3594 Q483.9063,332.0781 483.2813,332.0781 Q481.9375,332.0781 481.25,333.1563 Q480.5625,334.2188 480.5625,336.3125 Q480.5625,338.4063 481.25,339.4844 Q481.9375,340.5469 483.2813,340.5469 Q483.9063,340.5469 484.5,340.2813 Q485.0938,340 485.7188,339.4219 L485.7188,342.1406 Z " fill="#000000"/><text fill="#000000" font-family="sans-serif" font-size="14" lengthAdjust="spacing" textLength="72" x="503.25" y="341.3467">SellChoice</text><line style="stroke:#181818;stroke-width:0.5;" x1="417" x2="629" y1="352.5" y2="352.5"/><rect fill="none" height="6" style="stroke:#C82930;stroke-width:1.0;" width="6" x="424" y="363.1484"/><text fill="#000000" font-family="sans-serif" font-size="14" lengthAdjust="spacing" textLength="188" x="436" y="369.4951">buttonLabel : string = "Sell"</text><rect fill="none" height="6" style="stroke:#C82930;stroke-width:1.0;" width="6" x="424" y="379.4453"/><text fill="#000000" font-family="sans-serif" font-size="14" lengthAdjust="spacing" textLength="92" x="436" y="385.792">sprite : Sprite</text><ellipse cx="427" cy="398.7422" fill="none" rx="3" ry="3" style="stroke:#038048;stroke-width:1.0;"/><text fill="#000000" font-family="sans-serif" font-size="14" lengthAdjust="spacing" textLength="133" x="436" y="402.0889">Label : string &#171;get&#187;</text><ellipse cx="427" cy="415.0391" fill="none" rx="3" ry="3" style="stroke:#038048;stroke-width:1.0;"/><text fill="#000000" font-family="sans-serif" font-size="14" lengthAdjust="spacing" textLength="109" x="436" y="418.3857">Price : int &#171;get&#187;</text><ellipse cx="427" cy="431.3359" fill="none" rx="3" ry="3" style="stroke:#038048;stroke-width:1.0;"/><text fill="#000000" font-family="sans-serif" font-size="14" lengthAdjust="spacing" textLength="138" x="436" y="434.6826">Sprite : Sprite &#171;get&#187;</text><line style="stroke:#181818;stroke-width:0.5;" x1="417" x2="629" y1="441.9844" y2="441.9844"/></g><!--class RadialSelector--><g id="elem_RadialSelector"><rect fill="#F1F1F1" height="48" id="RadialSelector" rx="2.5" ry="2.5" style="stroke:#181818;stroke-width:0.5;" width="130" x="154" y="7"/><ellipse cx="169" cy="23" fill="#ADD1B2" rx="11" ry="11" style="stroke:#181818;stroke-width:1.0;"/><path d="M171.9688,28.6406 Q171.3906,28.9375 170.75,29.0781 Q170.1094,29.2344 169.4063,29.2344 Q166.9063,29.2344 165.5781,27.5938 Q164.2656,25.9375 164.2656,22.8125 Q164.2656,19.6875 165.5781,18.0313 Q166.9063,16.375 169.4063,16.375 Q170.1094,16.375 170.75,16.5313 Q171.4063,16.6875 171.9688,16.9844 L171.9688,19.7031 Q171.3438,19.125 170.75,18.8594 Q170.1563,18.5781 169.5313,18.5781 Q168.1875,18.5781 167.5,19.6563 Q166.8125,20.7188 166.8125,22.8125 Q166.8125,24.9063 167.5,25.9844 Q168.1875,27.0469 169.5313,27.0469 Q170.1563,27.0469 170.75,26.7813 Q171.3438,26.5 171.9688,25.9219 L171.9688,28.6406 Z " fill="#000000"/><text fill="#000000" font-family="sans-serif" font-size="14" lengthAdjust="spacing" textLength="98" x="183" y="27.8467">RadialSelector</text><line style="stroke:#181818;stroke-width:0.5;" x1="155" x2="283" y1="39" y2="39"/><line style="stroke:#181818;stroke-width:0.5;" x1="155" x2="283" y1="47" y2="47"/></g><!--class IChoice--><g id="elem_IChoice"><rect fill="#F1F1F1" height="48" id="IChoice" rx="2.5" ry="2.5" style="stroke:#181818;stroke-width:0.5;" width="83" x="468.5" y="151.5"/><ellipse cx="483.5" cy="167.5" fill="#ADD1B2" rx="11" ry="11" style="stroke:#181818;stroke-width:1.0;"/><path d="M486.4688,173.1406 Q485.8906,173.4375 485.25,173.5781 Q484.6094,173.7344 483.9063,173.7344 Q481.4063,173.7344 480.0781,172.0938 Q478.7656,170.4375 478.7656,167.3125 Q478.7656,164.1875 480.0781,162.5313 Q481.4063,160.875 483.9063,160.875 Q484.6094,160.875 485.25,161.0313 Q485.9063,161.1875 486.4688,161.4844 L486.4688,164.2031 Q485.8438,163.625 485.25,163.3594 Q484.6563,163.0781 484.0313,163.0781 Q482.6875,163.0781 482,164.1563 Q481.3125,165.2188 481.3125,167.3125 Q481.3125,169.4063 482,170.4844 Q482.6875,171.5469 484.0313,171.5469 Q484.6563,171.5469 485.25,171.2813 Q485.8438,171 486.4688,170.4219 L486.4688,173.1406 Z " fill="#000000"/><text fill="#000000" font-family="sans-serif" font-size="14" lengthAdjust="spacing" textLength="51" x="497.5" y="172.3467">IChoice</text><line style="stroke:#181818;stroke-width:0.5;" x1="469.5" x2="550.5" y1="183.5" y2="183.5"/><line style="stroke:#181818;stroke-width:0.5;" x1="469.5" x2="550.5" y1="191.5" y2="191.5"/></g><!--reverse link RadialSelector to UpgradeSelector--><g id="link_RadialSelector_UpgradeSelector"><path codeLine="24" d="M219,75.61 C219,87.95 219,101.59 219,114.71 " fill="none" id="RadialSelector-backto-UpgradeSelector" style="stroke:#181818;stroke-width:1.0;"/><polygon fill="none" points="212,75.21,219,55.21,226,75.21,212,75.21" style="stroke:#181818;stroke-width:1.0;"/></g><!--link UpgradeSelector to SellChoice--><g id="link_UpgradeSelector_SellChoice"><path codeLine="25" d="M309.44,236.25 C337.88,255.21 369.34,276.35 398,296 C408.05,302.89 418.51,310.14 428.92,317.4 " fill="none" id="UpgradeSelector-to-SellChoice" style="stroke:#181818;stroke-width:1.0;stroke-dasharray:7.0,7.0;"/><polygon fill="#181818" points="433.06,320.28,427.963,311.8526,428.9578,317.4213,423.3891,318.4161,433.06,320.28" style="stroke:#181818;stroke-width:1.0;"/></g><!--link UpgradeSelector to UpgradeChoice--><g id="link_UpgradeSelector_UpgradeChoice"><path codeLine="26" d="M211.8,236.24 C209.76,253.2 207.48,272.09 205.26,290.54 " fill="none" id="UpgradeSelector-to-UpgradeChoice" style="stroke:#181818;stroke-width:1.0;stroke-dasharray:7.0,7.0;"/><polygon fill="#181818" points="204.63,295.73,209.6825,287.2759,205.2308,290.7662,201.7404,286.3146,204.63,295.73" style="stroke:#181818;stroke-width:1.0;"/></g><!--reverse link IChoice to UpgradeChoice--><g id="link_IChoice_UpgradeChoice"><path codeLine="27" d="M469.14,212.57 C459.48,220.58 449.06,228.81 439,236 C410.29,256.51 378.67,277.03 347.94,295.98 " fill="none" id="IChoice-backto-UpgradeChoice" style="stroke:#181818;stroke-width:1.0;"/><polygon fill="none" points="464.7,207.15,484.47,199.54,473.76,217.82,464.7,207.15" style="stroke:#181818;stroke-width:1.0;"/></g><!--reverse link IChoice to SellChoice--><g id="link_IChoice_SellChoice"><path codeLine="28" d="M512.73,220.01 C514.55,249.12 516.98,287.92 519.02,320.47 " fill="none" id="IChoice-backto-SellChoice" style="stroke:#181818;stroke-width:1.0;"/><polygon fill="none" points="505.73,220.3,511.47,199.9,519.7,219.42,505.73,220.3" style="stroke:#181818;stroke-width:1.0;"/></g><!--SRC=[hL91JiCm4Bpd5LQv5A7q0L48XnmG4hGLeG_OsDjWSEtASKiawDynZXCd8IT4JbxFx7XdCrH0NPFTiTB0i421r2XDqlH5VQ3EbJJ09Uei8vyHiLzCQXGYVrMS8ab8qHSUFRL2FM4th1tdoeghCshD6LhPZMonN73wZcn9NPKyjBVNLkAiE7ETD_OviyR6UD6bj6StvrRZ7iha7WwuAT-iXRk-yHBHeKC_M6UcF1cZv2EKA3p1zjL6SrcHMxBmTulVx2TeHanRTwm3DCLHS-Fsumv- -lLuN0k7WJt5QGVXDAtGP9a7jxhTAPTcWapUcwBufus5Vpkthf7x7sfdlvxr_i_6Bj4pC0uY1FOhZgSfZgQfNgsoOMBdu75UVGf7wdDG4Fq6]--></g></svg>