<?xml version="1.0" encoding="us-ascii" standalone="no"?><svg xmlns="http://www.w3.org/2000/svg" xmlns:xlink="http://www.w3.org/1999/xlink" contentStyleType="text/css" height="202px" preserveAspectRatio="none" style="width:154px;height:202px;background:#FFFFFF;" version="1.1" viewBox="0 0 154 202" width="154px" zoomAndPan="magnify"><defs/><g><!--class View--><g id="elem_View"><rect codeLine="1" fill="#F1F1F1" height="80.5938" id="View" rx="2.5" ry="2.5" style="stroke:#181818;stroke-width:0.5;" width="115" x="19.5" y="115"/><ellipse cx="57.45" cy="131" fill="#ADD1B2" rx="11" ry="11" style="stroke:#181818;stroke-width:1.0;"/><path d="M60.4188,136.6406 Q59.8406,136.9375 59.2,137.0781 Q58.5594,137.2344 57.8563,137.2344 Q55.3563,137.2344 54.0281,135.5938 Q52.7156,133.9375 52.7156,130.8125 Q52.7156,127.6875 54.0281,126.0313 Q55.3563,124.375 57.8563,124.375 Q58.5594,124.375 59.2,124.5313 Q59.8563,124.6875 60.4188,124.9844 L60.4188,127.7031 Q59.7938,127.125 59.2,126.8594 Q58.6063,126.5781 57.9813,126.5781 Q56.6375,126.5781 55.95,127.6563 Q55.2625,128.7188 55.2625,130.8125 Q55.2625,132.9063 55.95,133.9844 Q56.6375,135.0469 57.9813,135.0469 Q58.6063,135.0469 59.2,134.7813 Q59.7938,134.5 60.4188,133.9219 L60.4188,136.6406 Z " fill="#000000"/><text fill="#000000" font-family="sans-serif" font-size="14" lengthAdjust="spacing" textLength="32" x="76.55" y="135.8467">View</text><line style="stroke:#181818;stroke-width:0.5;" x1="20.5" x2="133.5" y1="147" y2="147"/><line style="stroke:#181818;stroke-width:0.5;" x1="20.5" x2="133.5" y1="155" y2="155"/><ellipse cx="30.5" cy="168.6484" fill="#84BE84" rx="3" ry="3" style="stroke:#038048;stroke-width:1.0;"/><text fill="#000000" font-family="sans-serif" font-size="14" lengthAdjust="spacing" textLength="89" x="39.5" y="171.9951">Show() : void</text><ellipse cx="30.5" cy="184.9453" fill="#84BE84" rx="3" ry="3" style="stroke:#038048;stroke-width:1.0;"/><text fill="#000000" font-family="sans-serif" font-size="14" lengthAdjust="spacing" textLength="82" x="39.5" y="188.292">Hide() : void</text></g><!--class MonoBehaviour--><g id="elem_MonoBehaviour"><rect fill="#F1F1F1" height="48" id="MonoBehaviour" rx="2.5" ry="2.5" style="stroke:#181818;stroke-width:0.5;" width="140" x="7" y="7"/><ellipse cx="22" cy="23" fill="#ADD1B2" rx="11" ry="11" style="stroke:#181818;stroke-width:1.0;"/><path d="M24.9688,28.6406 Q24.3906,28.9375 23.75,29.0781 Q23.1094,29.2344 22.4063,29.2344 Q19.9063,29.2344 18.5781,27.5938 Q17.2656,25.9375 17.2656,22.8125 Q17.2656,19.6875 18.5781,18.0313 Q19.9063,16.375 22.4063,16.375 Q23.1094,16.375 23.75,16.5313 Q24.4063,16.6875 24.9688,16.9844 L24.9688,19.7031 Q24.3438,19.125 23.75,18.8594 Q23.1563,18.5781 22.5313,18.5781 Q21.1875,18.5781 20.5,19.6563 Q19.8125,20.7188 19.8125,22.8125 Q19.8125,24.9063 20.5,25.9844 Q21.1875,27.0469 22.5313,27.0469 Q23.1563,27.0469 23.75,26.7813 Q24.3438,26.5 24.9688,25.9219 L24.9688,28.6406 Z " fill="#000000"/><text fill="#000000" font-family="sans-serif" font-size="14" lengthAdjust="spacing" textLength="108" x="36" y="27.8467">MonoBehaviour</text><line style="stroke:#181818;stroke-width:0.5;" x1="8" x2="146" y1="39" y2="39"/><line style="stroke:#181818;stroke-width:0.5;" x1="8" x2="146" y1="47" y2="47"/></g><!--reverse link MonoBehaviour to View--><g id="link_MonoBehaviour_View"><path codeLine="5" d="M77,75.14 C77,88 77,102.04 77,114.69 " fill="none" id="MonoBehaviour-backto-View" style="stroke:#181818;stroke-width:1.0;"/><polygon fill="none" points="70,75.04,77,55.04,84,75.04,70,75.04" style="stroke:#181818;stroke-width:1.0;"/></g><!--SRC=[Iyv9B2vM2CjCBLUevb800cs5u8pySWrD1Ik5ilpC5AYOHsPAAaAibiitFo_VAJKZiImplxH8mQP6LnTi1W00]--></g></svg>