<?xml version="1.0" encoding="us-ascii" standalone="no"?><svg xmlns="http://www.w3.org/2000/svg" xmlns:xlink="http://www.w3.org/1999/xlink" contentStyleType="text/css" height="447px" preserveAspectRatio="none" style="width:467px;height:447px;background:#FFFFFF;" version="1.1" viewBox="0 0 467 447" width="467px" zoomAndPan="magnify"><defs/><g><!--class GameState--><g id="elem_GameState"><rect codeLine="1" fill="#F1F1F1" height="96.8906" id="GameState" rx="2.5" ry="2.5" style="stroke:#181818;stroke-width:0.5;" width="109" x="351" y="121"/><ellipse cx="366" cy="137" fill="#EB937F" rx="11" ry="11" style="stroke:#181818;stroke-width:1.0;"/><path d="M370.1094,143 L362.3906,143 L362.3906,130.6094 L370.1094,130.6094 L370.1094,132.7656 L364.8438,132.7656 L364.8438,135.4375 L369.6094,135.4375 L369.6094,137.5938 L364.8438,137.5938 L364.8438,140.8438 L370.1094,140.8438 L370.1094,143 Z " fill="#000000"/><text fill="#000000" font-family="sans-serif" font-size="14" lengthAdjust="spacing" textLength="77" x="380" y="141.8467">GameState</text><line style="stroke:#181818;stroke-width:0.5;" x1="352" x2="459" y1="153" y2="153"/><text fill="#000000" font-family="sans-serif" font-size="14" lengthAdjust="spacing" textLength="66" x="357" y="169.9951">Pregame,</text><text fill="#000000" font-family="sans-serif" font-size="14" lengthAdjust="spacing" textLength="62" x="357" y="186.292">Running,</text><text fill="#000000" font-family="sans-serif" font-size="14" lengthAdjust="spacing" textLength="31" x="357" y="202.5889">End,</text><line style="stroke:#181818;stroke-width:0.5;" x1="352" x2="459" y1="209.8906" y2="209.8906"/></g><!--class GameStateManager--><g id="elem_GameStateManager"><rect codeLine="6" fill="#F1F1F1" height="325.0469" id="GameStateManager" rx="2.5" ry="2.5" style="stroke:#181818;stroke-width:0.5;" width="291" x="7" y="7"/><ellipse cx="22.45" cy="23" fill="#ADD1B2" rx="11" ry="11" style="stroke:#181818;stroke-width:1.0;"/><path d="M25.4188,28.6406 Q24.8406,28.9375 24.2,29.0781 Q23.5594,29.2344 22.8563,29.2344 Q20.3563,29.2344 19.0281,27.5938 Q17.7156,25.9375 17.7156,22.8125 Q17.7156,19.6875 19.0281,18.0313 Q20.3563,16.375 22.8563,16.375 Q23.5594,16.375 24.2,16.5313 Q24.8563,16.6875 25.4188,16.9844 L25.4188,19.7031 Q24.7938,19.125 24.2,18.8594 Q23.6063,18.5781 22.9813,18.5781 Q21.6375,18.5781 20.95,19.6563 Q20.2625,20.7188 20.2625,22.8125 Q20.2625,24.9063 20.95,25.9844 Q21.6375,27.0469 22.9813,27.0469 Q23.6063,27.0469 24.2,26.7813 Q24.7938,26.5 25.4188,25.9219 L25.4188,28.6406 Z " fill="#000000"/><text fill="#000000" font-family="sans-serif" font-size="14" lengthAdjust="spacing" textLength="258" x="36.55" y="27.8467">GameStateManager : MonoBehaviour</text><line style="stroke:#181818;stroke-width:0.5;" x1="8" x2="297" y1="39" y2="39"/><ellipse cx="18" cy="52.6484" fill="none" rx="3" ry="3" style="stroke:#038048;stroke-width:1.0;"/><text fill="#000000" font-family="sans-serif" font-size="14" lengthAdjust="spacing" text-decoration="underline" textLength="209" x="27" y="55.9951">Instance : GameStateManager</text><ellipse cx="18" cy="68.9453" fill="none" rx="3" ry="3" style="stroke:#038048;stroke-width:1.0;"/><text fill="#000000" font-family="sans-serif" font-size="14" lengthAdjust="spacing" textLength="149" x="27" y="72.292">OnGameStart : Action</text><ellipse cx="18" cy="85.2422" fill="none" rx="3" ry="3" style="stroke:#038048;stroke-width:1.0;"/><text fill="#000000" font-family="sans-serif" font-size="14" lengthAdjust="spacing" textLength="144" x="27" y="88.5889">OnGameEnd : Action</text><ellipse cx="18" cy="101.5391" fill="none" rx="3" ry="3" style="stroke:#038048;stroke-width:1.0;"/><text fill="#000000" font-family="sans-serif" font-size="14" lengthAdjust="spacing" textLength="158" x="27" y="104.8857">OnResetGame : Action</text><rect fill="none" height="6" style="stroke:#C82930;stroke-width:1.0;" width="6" x="15" y="114.8359"/><text fill="#000000" font-family="sans-serif" font-size="14" lengthAdjust="spacing" textLength="130" x="27" y="121.1826">inGameView : View</text><rect fill="none" height="6" style="stroke:#C82930;stroke-width:1.0;" width="6" x="15" y="131.1328"/><text fill="#000000" font-family="sans-serif" font-size="14" lengthAdjust="spacing" textLength="143" x="27" y="137.4795">gameEndView : View</text><rect fill="none" height="6" style="stroke:#C82930;stroke-width:1.0;" width="6" x="15" y="147.4297"/><text fill="#000000" font-family="sans-serif" font-size="14" lengthAdjust="spacing" textLength="178" x="27" y="153.7764">endGameText : TMP_Text</text><rect fill="none" height="6" style="stroke:#C82930;stroke-width:1.0;" width="6" x="15" y="163.7266"/><text fill="#000000" font-family="sans-serif" font-size="14" lengthAdjust="spacing" textLength="265" x="27" y="170.0732">gameOverText : string = "Game Over!"</text><rect fill="none" height="6" style="stroke:#C82930;stroke-width:1.0;" width="6" x="15" y="180.0234"/><text fill="#000000" font-family="sans-serif" font-size="14" lengthAdjust="spacing" textLength="237" x="27" y="186.3701">gameWinText : string = "You Win!"</text><rect fill="none" height="6" style="stroke:#C82930;stroke-width:1.0;" width="6" x="15" y="196.3203"/><text fill="#000000" font-family="sans-serif" font-size="14" lengthAdjust="spacing" textLength="132" x="27" y="202.667">_state : GameState</text><ellipse cx="18" cy="215.6172" fill="none" rx="3" ry="3" style="stroke:#038048;stroke-width:1.0;"/><text fill="#000000" font-family="sans-serif" font-size="14" lengthAdjust="spacing" textLength="161" x="27" y="218.9639">IsPregame : bool &#171;get&#187;</text><ellipse cx="18" cy="231.9141" fill="none" rx="3" ry="3" style="stroke:#038048;stroke-width:1.0;"/><text fill="#000000" font-family="sans-serif" font-size="14" lengthAdjust="spacing" textLength="157" x="27" y="235.2607">IsRunning : bool &#171;get&#187;</text><ellipse cx="18" cy="248.2109" fill="none" rx="3" ry="3" style="stroke:#038048;stroke-width:1.0;"/><text fill="#000000" font-family="sans-serif" font-size="14" lengthAdjust="spacing" textLength="144" x="27" y="251.5576">IsEnded : bool &#171;get&#187;</text><line style="stroke:#181818;stroke-width:0.5;" x1="8" x2="297" y1="258.8594" y2="258.8594"/><ellipse cx="18" cy="272.5078" fill="#84BE84" rx="3" ry="3" style="stroke:#038048;stroke-width:1.0;"/><text fill="#000000" font-family="sans-serif" font-size="14" lengthAdjust="spacing" textLength="124" x="27" y="275.8545">StartGame() : void</text><ellipse cx="18" cy="288.8047" fill="#84BE84" rx="3" ry="3" style="stroke:#038048;stroke-width:1.0;"/><text fill="#000000" font-family="sans-serif" font-size="14" lengthAdjust="spacing" textLength="124" x="27" y="292.1514">GameOver() : void</text><ellipse cx="18" cy="305.1016" fill="#84BE84" rx="3" ry="3" style="stroke:#038048;stroke-width:1.0;"/><text fill="#000000" font-family="sans-serif" font-size="14" lengthAdjust="spacing" textLength="117" x="27" y="308.4482">GameWin() : void</text><ellipse cx="18" cy="321.3984" fill="#84BE84" rx="3" ry="3" style="stroke:#038048;stroke-width:1.0;"/><text fill="#000000" font-family="sans-serif" font-size="14" lengthAdjust="spacing" textLength="142" x="27" y="324.7451">RestartGame() : void</text></g><!--class View--><g id="elem_View"><rect fill="#F1F1F1" height="48" id="View" rx="2.5" ry="2.5" style="stroke:#181818;stroke-width:0.5;" width="64" x="120.5" y="392"/><ellipse cx="135.5" cy="408" fill="#ADD1B2" rx="11" ry="11" style="stroke:#181818;stroke-width:1.0;"/><path d="M138.4688,413.6406 Q137.8906,413.9375 137.25,414.0781 Q136.6094,414.2344 135.9063,414.2344 Q133.4063,414.2344 132.0781,412.5938 Q130.7656,410.9375 130.7656,407.8125 Q130.7656,404.6875 132.0781,403.0313 Q133.4063,401.375 135.9063,401.375 Q136.6094,401.375 137.25,401.5313 Q137.9063,401.6875 138.4688,401.9844 L138.4688,404.7031 Q137.8438,404.125 137.25,403.8594 Q136.6563,403.5781 136.0313,403.5781 Q134.6875,403.5781 134,404.6563 Q133.3125,405.7188 133.3125,407.8125 Q133.3125,409.9063 134,410.9844 Q134.6875,412.0469 136.0313,412.0469 Q136.6563,412.0469 137.25,411.7813 Q137.8438,411.5 138.4688,410.9219 L138.4688,413.6406 Z " fill="#000000"/><text fill="#000000" font-family="sans-serif" font-size="14" lengthAdjust="spacing" textLength="32" x="149.5" y="412.8467">View</text><line style="stroke:#181818;stroke-width:0.5;" x1="121.5" x2="183.5" y1="424" y2="424"/><line style="stroke:#181818;stroke-width:0.5;" x1="121.5" x2="183.5" y1="432" y2="432"/></g><!--link GameStateManager to GameStateManager--><g id="link_GameStateManager_GameStateManager"><path codeLine="25" d="M298.03,127.99 C318.94,134.64 333,148.48 333,169.5 C333,188.88 321.05,202.15 302.81,209.32 " fill="none" id="GameStateManager-to-GameStateManager" style="stroke:#181818;stroke-width:1.0;"/><polygon fill="#181818" points="298.03,211.01,307.8493,211.7726,302.7426,209.3392,305.176,204.2325,298.03,211.01" style="stroke:#181818;stroke-width:1.0;"/><text fill="#000000" font-family="sans-serif" font-size="13" lengthAdjust="spacing" textLength="54" x="306.1131" y="234.0634">Instance</text></g><!--link GameStateManager to View--><g id="link_GameStateManager_View"><path codeLine="26" d="M140.36,332.22 C141.02,352.95 142.22,371.97 143.96,386.55 " fill="none" id="GameStateManager-to-View" style="stroke:#181818;stroke-width:1.0;"/><polygon fill="#181818" points="144.63,391.71,147.4661,382.2783,144.001,386.7497,139.5296,383.2847,144.63,391.71" style="stroke:#181818;stroke-width:1.0;"/><text fill="#000000" font-family="sans-serif" font-size="13" lengthAdjust="spacing" textLength="79" x="54.0836" y="381.0443">inGameView</text></g><!--link GameStateManager to View--><g id="link_GameStateManager_View"><path codeLine="27" d="M165.35,332.22 C164.65,352.95 163.38,371.97 161.54,386.55 " fill="none" id="GameStateManager-to-View-1" style="stroke:#181818;stroke-width:1.0;"/><polygon fill="#181818" points="160.84,391.71,166.0118,383.3283,161.5111,386.7552,158.0842,382.2546,160.84,391.71" style="stroke:#181818;stroke-width:1.0;"/><text fill="#000000" font-family="sans-serif" font-size="13" lengthAdjust="spacing" textLength="90" x="173.8416" y="381.0443">gameEndView</text></g><!--link GameStateManager to GameState--><g id="link_GameStateManager_GameState"><path codeLine="28" d="M298.27,169.5 C313.95,169.5 329.63,169.5 345.31,169.5 " fill="none" id="GameStateManager-to-GameState" style="stroke:#181818;stroke-width:1.0;"/><polygon fill="#181818" points="350.63,169.5,341.63,165.5,345.63,169.5,341.63,173.5,350.63,169.5" style="stroke:#181818;stroke-width:1.0;"/><text fill="#000000" font-family="sans-serif" font-size="13" lengthAdjust="spacing" textLength="40" x="305.8379" y="165.6647">_state</text></g><!--SRC=[TPB1QiCm38RlUGhDfuqrBp2wmWQZz11QkhAnK_4IaHbQ6Mmd6vIy- -JOoz8wpSMslb-MfJz8pH6MyeYlJZg4KmRyRGpM79hrXsr3fAWEXnUgPbcNbGTfBOWXhv0aQpJm08Kc_OnVibMwCGAaXKGKQjp3oN9KbHsiY7TK8gTVYgDqJH4OnwAdqYbDPuZVbO8jMdIUdgCSL9_pfl2RYLzYl0utfG2fyXax_F7rTyLcxxUZh7MB9bBh38yB7iDum9CRCPA-AqgK7xe1ZW-wlUtT6CqZDhMoqHjcdreVO3wlqIqM0uvkNSFS7LRJi9-khtTxnu9Mgog2PUnlAiwFlWpprDERkYpv3V9y0UBFUf4wFvtmRvq81atBHavUrR4ip7bK_1S0]--></g></svg>