<?xml version="1.0" encoding="us-ascii" standalone="no"?><svg xmlns="http://www.w3.org/2000/svg" xmlns:xlink="http://www.w3.org/1999/xlink" contentStyleType="text/css" height="522px" preserveAspectRatio="none" style="width:490px;height:522px;background:#FFFFFF;" version="1.1" viewBox="0 0 490 522" width="490px" zoomAndPan="magnify"><defs/><g><!--class GameState--><g id="elem_GameState"><rect codeLine="1" fill="#F1F1F1" height="96.8906" id="GameState" rx="2.5" ry="2.5" style="stroke:#181818;stroke-width:0.5;" width="109" x="7" y="419"/><ellipse cx="22" cy="435" fill="#EB937F" rx="11" ry="11" style="stroke:#181818;stroke-width:1.0;"/><path d="M26.1094,441 L18.3906,441 L18.3906,428.6094 L26.1094,428.6094 L26.1094,430.7656 L20.8438,430.7656 L20.8438,433.4375 L25.6094,433.4375 L25.6094,435.5938 L20.8438,435.5938 L20.8438,438.8438 L26.1094,438.8438 L26.1094,441 Z " fill="#000000"/><text fill="#000000" font-family="sans-serif" font-size="14" lengthAdjust="spacing" textLength="77" x="36" y="439.8467">GameState</text><line style="stroke:#181818;stroke-width:0.5;" x1="8" x2="115" y1="451" y2="451"/><text fill="#000000" font-family="sans-serif" font-size="14" lengthAdjust="spacing" textLength="66" x="13" y="467.9951">Pregame,</text><text fill="#000000" font-family="sans-serif" font-size="14" lengthAdjust="spacing" textLength="62" x="13" y="484.292">Running,</text><text fill="#000000" font-family="sans-serif" font-size="14" lengthAdjust="spacing" textLength="31" x="13" y="500.5889">End,</text><line style="stroke:#181818;stroke-width:0.5;" x1="8" x2="115" y1="507.8906" y2="507.8906"/></g><!--class GameStateManager--><g id="elem_GameStateManager"><rect codeLine="6" fill="#F1F1F1" height="243.5625" id="GameStateManager" rx="2.5" ry="2.5" style="stroke:#181818;stroke-width:0.5;" width="291" x="43" y="115"/><ellipse cx="115.75" cy="131" fill="#ADD1B2" rx="11" ry="11" style="stroke:#181818;stroke-width:1.0;"/><path d="M118.7188,136.6406 Q118.1406,136.9375 117.5,137.0781 Q116.8594,137.2344 116.1563,137.2344 Q113.6563,137.2344 112.3281,135.5938 Q111.0156,133.9375 111.0156,130.8125 Q111.0156,127.6875 112.3281,126.0313 Q113.6563,124.375 116.1563,124.375 Q116.8594,124.375 117.5,124.5313 Q118.1563,124.6875 118.7188,124.9844 L118.7188,127.7031 Q118.0938,127.125 117.5,126.8594 Q116.9063,126.5781 116.2813,126.5781 Q114.9375,126.5781 114.25,127.6563 Q113.5625,128.7188 113.5625,130.8125 Q113.5625,132.9063 114.25,133.9844 Q114.9375,135.0469 116.2813,135.0469 Q116.9063,135.0469 117.5,134.7813 Q118.0938,134.5 118.7188,133.9219 L118.7188,136.6406 Z " fill="#000000"/><text fill="#000000" font-family="sans-serif" font-size="14" lengthAdjust="spacing" textLength="137" x="136.25" y="135.8467">GameStateManager</text><line style="stroke:#181818;stroke-width:0.5;" x1="44" x2="333" y1="147" y2="147"/><rect fill="none" height="6" style="stroke:#C82930;stroke-width:1.0;" width="6" x="51" y="157.6484"/><text fill="#000000" font-family="sans-serif" font-size="14" lengthAdjust="spacing" textLength="265" x="63" y="163.9951">gameOverText : string = "Game Over!"</text><rect fill="none" height="6" style="stroke:#C82930;stroke-width:1.0;" width="6" x="51" y="173.9453"/><text fill="#000000" font-family="sans-serif" font-size="14" lengthAdjust="spacing" textLength="237" x="63" y="180.292">gameWinText : string = "You Win!"</text><rect fill="none" height="6" style="stroke:#C82930;stroke-width:1.0;" width="6" x="51" y="190.2422"/><text fill="#000000" font-family="sans-serif" font-size="14" lengthAdjust="spacing" textLength="157" x="63" y="196.5889">_endGameText : string</text><ellipse cx="54" cy="209.5391" fill="none" rx="3" ry="3" style="stroke:#038048;stroke-width:1.0;"/><text fill="#000000" font-family="sans-serif" font-size="14" lengthAdjust="spacing" textLength="161" x="63" y="212.8857">IsPregame : bool &#171;get&#187;</text><ellipse cx="54" cy="225.8359" fill="none" rx="3" ry="3" style="stroke:#038048;stroke-width:1.0;"/><text fill="#000000" font-family="sans-serif" font-size="14" lengthAdjust="spacing" textLength="157" x="63" y="229.1826">IsRunning : bool &#171;get&#187;</text><ellipse cx="54" cy="242.1328" fill="none" rx="3" ry="3" style="stroke:#038048;stroke-width:1.0;"/><text fill="#000000" font-family="sans-serif" font-size="14" lengthAdjust="spacing" textLength="144" x="63" y="245.4795">IsEnded : bool &#171;get&#187;</text><line style="stroke:#181818;stroke-width:0.5;" x1="44" x2="333" y1="252.7813" y2="252.7813"/><rect fill="#F24D5C" height="6" style="stroke:#C82930;stroke-width:1.0;" width="6" x="51" y="263.4297"/><text fill="#000000" font-family="sans-serif" font-size="14" lengthAdjust="spacing" textLength="96" x="63" y="269.7764">Awake() : void</text><ellipse cx="54" cy="282.7266" fill="#84BE84" rx="3" ry="3" style="stroke:#038048;stroke-width:1.0;"/><text fill="#000000" font-family="sans-serif" font-size="14" lengthAdjust="spacing" textLength="124" x="63" y="286.0732">StartGame() : void</text><ellipse cx="54" cy="299.0234" fill="#84BE84" rx="3" ry="3" style="stroke:#038048;stroke-width:1.0;"/><text fill="#000000" font-family="sans-serif" font-size="14" lengthAdjust="spacing" textLength="124" x="63" y="302.3701">GameOver() : void</text><ellipse cx="54" cy="315.3203" fill="#84BE84" rx="3" ry="3" style="stroke:#038048;stroke-width:1.0;"/><text fill="#000000" font-family="sans-serif" font-size="14" lengthAdjust="spacing" textLength="117" x="63" y="318.667">GameWin() : void</text><rect fill="#F24D5C" height="6" style="stroke:#C82930;stroke-width:1.0;" width="6" x="51" y="328.6172"/><text fill="#000000" font-family="sans-serif" font-size="14" lengthAdjust="spacing" textLength="119" x="63" y="334.9639">GameEnd() : void</text><ellipse cx="54" cy="347.9141" fill="#84BE84" rx="3" ry="3" style="stroke:#038048;stroke-width:1.0;"/><text fill="#000000" font-family="sans-serif" font-size="14" lengthAdjust="spacing" textLength="142" x="63" y="351.2607">RestartGame() : void</text></g><!--class MonoBehaviour--><g id="elem_MonoBehaviour"><rect fill="#F1F1F1" height="48" id="MonoBehaviour" rx="2.5" ry="2.5" style="stroke:#181818;stroke-width:0.5;" width="140" x="118.5" y="7"/><ellipse cx="133.5" cy="23" fill="#ADD1B2" rx="11" ry="11" style="stroke:#181818;stroke-width:1.0;"/><path d="M136.4688,28.6406 Q135.8906,28.9375 135.25,29.0781 Q134.6094,29.2344 133.9063,29.2344 Q131.4063,29.2344 130.0781,27.5938 Q128.7656,25.9375 128.7656,22.8125 Q128.7656,19.6875 130.0781,18.0313 Q131.4063,16.375 133.9063,16.375 Q134.6094,16.375 135.25,16.5313 Q135.9063,16.6875 136.4688,16.9844 L136.4688,19.7031 Q135.8438,19.125 135.25,18.8594 Q134.6563,18.5781 134.0313,18.5781 Q132.6875,18.5781 132,19.6563 Q131.3125,20.7188 131.3125,22.8125 Q131.3125,24.9063 132,25.9844 Q132.6875,27.0469 134.0313,27.0469 Q134.6563,27.0469 135.25,26.7813 Q135.8438,26.5 136.4688,25.9219 L136.4688,28.6406 Z " fill="#000000"/><text fill="#000000" font-family="sans-serif" font-size="14" lengthAdjust="spacing" textLength="108" x="147.5" y="27.8467">MonoBehaviour</text><line style="stroke:#181818;stroke-width:0.5;" x1="119.5" x2="257.5" y1="39" y2="39"/><line style="stroke:#181818;stroke-width:0.5;" x1="119.5" x2="257.5" y1="47" y2="47"/></g><!--class Action--><g id="elem_Action"><rect fill="#F1F1F1" height="48" id="Action" rx="2.5" ry="2.5" style="stroke:#181818;stroke-width:0.5;" width="75" x="151" y="443.5"/><ellipse cx="166" cy="459.5" fill="#ADD1B2" rx="11" ry="11" style="stroke:#181818;stroke-width:1.0;"/><path d="M168.9688,465.1406 Q168.3906,465.4375 167.75,465.5781 Q167.1094,465.7344 166.4063,465.7344 Q163.9063,465.7344 162.5781,464.0938 Q161.2656,462.4375 161.2656,459.3125 Q161.2656,456.1875 162.5781,454.5313 Q163.9063,452.875 166.4063,452.875 Q167.1094,452.875 167.75,453.0313 Q168.4063,453.1875 168.9688,453.4844 L168.9688,456.2031 Q168.3438,455.625 167.75,455.3594 Q167.1563,455.0781 166.5313,455.0781 Q165.1875,455.0781 164.5,456.1563 Q163.8125,457.2188 163.8125,459.3125 Q163.8125,461.4063 164.5,462.4844 Q165.1875,463.5469 166.5313,463.5469 Q167.1563,463.5469 167.75,463.2813 Q168.3438,463 168.9688,462.4219 L168.9688,465.1406 Z " fill="#000000"/><text fill="#000000" font-family="sans-serif" font-size="14" lengthAdjust="spacing" textLength="43" x="180" y="464.3467">Action</text><line style="stroke:#181818;stroke-width:0.5;" x1="152" x2="225" y1="475.5" y2="475.5"/><line style="stroke:#181818;stroke-width:0.5;" x1="152" x2="225" y1="483.5" y2="483.5"/></g><!--class View--><g id="elem_View"><rect fill="#F1F1F1" height="48" id="View" rx="2.5" ry="2.5" style="stroke:#181818;stroke-width:0.5;" width="64" x="261.5" y="443.5"/><ellipse cx="276.5" cy="459.5" fill="#ADD1B2" rx="11" ry="11" style="stroke:#181818;stroke-width:1.0;"/><path d="M279.4688,465.1406 Q278.8906,465.4375 278.25,465.5781 Q277.6094,465.7344 276.9063,465.7344 Q274.4063,465.7344 273.0781,464.0938 Q271.7656,462.4375 271.7656,459.3125 Q271.7656,456.1875 273.0781,454.5313 Q274.4063,452.875 276.9063,452.875 Q277.6094,452.875 278.25,453.0313 Q278.9063,453.1875 279.4688,453.4844 L279.4688,456.2031 Q278.8438,455.625 278.25,455.3594 Q277.6563,455.0781 277.0313,455.0781 Q275.6875,455.0781 275,456.1563 Q274.3125,457.2188 274.3125,459.3125 Q274.3125,461.4063 275,462.4844 Q275.6875,463.5469 277.0313,463.5469 Q277.6563,463.5469 278.25,463.2813 Q278.8438,463 279.4688,462.4219 L279.4688,465.1406 Z " fill="#000000"/><text fill="#000000" font-family="sans-serif" font-size="14" lengthAdjust="spacing" textLength="32" x="290.5" y="464.3467">View</text><line style="stroke:#181818;stroke-width:0.5;" x1="262.5" x2="324.5" y1="475.5" y2="475.5"/><line style="stroke:#181818;stroke-width:0.5;" x1="262.5" x2="324.5" y1="483.5" y2="483.5"/></g><!--class TMP_Text--><g id="elem_TMP_Text"><rect fill="#F1F1F1" height="48" id="TMP_Text" rx="2.5" ry="2.5" style="stroke:#181818;stroke-width:0.5;" width="99" x="361" y="443.5"/><ellipse cx="376" cy="459.5" fill="#ADD1B2" rx="11" ry="11" style="stroke:#181818;stroke-width:1.0;"/><path d="M378.9688,465.1406 Q378.3906,465.4375 377.75,465.5781 Q377.1094,465.7344 376.4063,465.7344 Q373.9063,465.7344 372.5781,464.0938 Q371.2656,462.4375 371.2656,459.3125 Q371.2656,456.1875 372.5781,454.5313 Q373.9063,452.875 376.4063,452.875 Q377.1094,452.875 377.75,453.0313 Q378.4063,453.1875 378.9688,453.4844 L378.9688,456.2031 Q378.3438,455.625 377.75,455.3594 Q377.1563,455.0781 376.5313,455.0781 Q375.1875,455.0781 374.5,456.1563 Q373.8125,457.2188 373.8125,459.3125 Q373.8125,461.4063 374.5,462.4844 Q375.1875,463.5469 376.5313,463.5469 Q377.1563,463.5469 377.75,463.2813 Q378.3438,463 378.9688,462.4219 L378.9688,465.1406 Z " fill="#000000"/><text fill="#000000" font-family="sans-serif" font-size="14" lengthAdjust="spacing" textLength="67" x="390" y="464.3467">TMP_Text</text><line style="stroke:#181818;stroke-width:0.5;" x1="362" x2="459" y1="475.5" y2="475.5"/><line style="stroke:#181818;stroke-width:0.5;" x1="362" x2="459" y1="483.5" y2="483.5"/></g><!--reverse link MonoBehaviour to GameStateManager--><g id="link_MonoBehaviour_GameStateManager"><path codeLine="20" d="M188.5,75.02 C188.5,86.94 188.5,100.49 188.5,114.55 " fill="none" id="MonoBehaviour-backto-GameStateManager" style="stroke:#181818;stroke-width:1.0;"/><polygon fill="none" points="181.5,75,188.5,55,195.5,75,181.5,75" style="stroke:#181818;stroke-width:1.0;"/></g><!--link GameStateManager to GameStateManager--><g id="link_GameStateManager_GameStateManager"><path codeLine="21" d="M334.03,202.24 C354.94,207.81 369,219.4 369,237 C369,253.09 357.25,264.15 339.27,270.19 " fill="none" id="GameStateManager-to-GameStateManager" style="stroke:#181818;stroke-width:1.0;"/><polygon fill="#181818" points="334.03,271.76,343.8015,272.9918,338.8172,270.3167,341.4923,265.3323,334.03,271.76" style="stroke:#181818;stroke-width:1.0;"/><text fill="#000000" font-family="sans-serif" font-size="13" lengthAdjust="spacing" textLength="54" x="341.8478" y="270.075">Instance</text></g><!--link GameStateManager to Action--><g id="link_GameStateManager_Action"><path codeLine="22" d="M162.29,359.28 C162.67,389.01 165.42,418.11 170.55,438.48 " fill="none" id="GameStateManager-to-Action" style="stroke:#181818;stroke-width:1.0;"/><polygon fill="#181818" points="171.91,443.46,173.4059,433.7254,170.5968,438.6355,165.6867,435.8265,171.91,443.46" style="stroke:#181818;stroke-width:1.0;"/><text fill="#000000" font-family="sans-serif" font-size="13" lengthAdjust="spacing" textLength="89" x="178.9527" y="432.4">OnGameStart</text></g><!--link GameStateManager to Action--><g id="link_GameStateManager_Action"><path codeLine="23" d="M188.5,359.28 C188.5,388.89 188.5,417.87 188.5,438.22 " fill="none" id="GameStateManager-to-Action-1" style="stroke:#181818;stroke-width:1.0;"/><polygon fill="#181818" points="188.5,443.46,192.5,434.46,188.5,438.46,184.5,434.46,188.5,443.46" style="stroke:#181818;stroke-width:1.0;"/><text fill="#000000" font-family="sans-serif" font-size="13" lengthAdjust="spacing" textLength="81" x="122.676" y="432.4889">OnGameEnd</text></g><!--link GameStateManager to Action--><g id="link_GameStateManager_Action"><path codeLine="24" d="M214.71,359.28 C214.33,389.01 211.58,418.11 206.45,438.48 " fill="none" id="GameStateManager-to-Action-2" style="stroke:#181818;stroke-width:1.0;"/><polygon fill="#181818" points="205.09,443.46,211.3133,435.8265,206.4032,438.6355,203.5941,433.7254,205.09,443.46" style="stroke:#181818;stroke-width:1.0;"/><text fill="#000000" font-family="sans-serif" font-size="13" lengthAdjust="spacing" textLength="93" x="221.2166" y="432.4">OnResetGame</text></g><!--link GameStateManager to View--><g id="link_GameStateManager_View"><path codeLine="25" d="M231.5,359.28 C245.46,389.27 260.31,418.61 272.21,438.99 " fill="none" id="GameStateManager-to-View" style="stroke:#181818;stroke-width:1.0;"/><polygon fill="#181818" points="274.86,443.46,273.7219,433.6771,272.3149,439.1562,266.8358,437.7493,274.86,443.46" style="stroke:#181818;stroke-width:1.0;"/><text fill="#000000" font-family="sans-serif" font-size="13" lengthAdjust="spacing" textLength="79" x="280.0635" y="432.4">inGameView</text></g><!--link GameStateManager to View--><g id="link_GameStateManager_View"><path codeLine="26" d="M257.71,359.28 C271.18,389.01 283.13,418.11 289.85,438.48 " fill="none" id="GameStateManager-to-View-1" style="stroke:#181818;stroke-width:1.0;"/><polygon fill="#181818" points="291.45,443.46,292.5317,433.6707,289.9334,438.6956,284.9086,436.0973,291.45,443.46" style="stroke:#181818;stroke-width:1.0;"/><text fill="#000000" font-family="sans-serif" font-size="13" lengthAdjust="spacing" textLength="90" x="326.2882" y="432.348">gameEndView</text></g><!--link GameStateManager to TMP_Text--><g id="link_GameStateManager_TMP_Text"><path codeLine="27" d="M306.33,359.28 C335.83,389.64 364.69,419.35 384.52,439.76 " fill="none" id="GameStateManager-to-TMP_Text" style="stroke:#181818;stroke-width:1.0;"/><polygon fill="#181818" points="388.12,443.46,384.7148,434.2185,384.6348,439.8748,378.9785,439.7948,388.12,443.46" style="stroke:#181818;stroke-width:1.0;"/><text fill="#000000" font-family="sans-serif" font-size="13" lengthAdjust="spacing" textLength="90" x="393.9164" y="432.4618">endGameText</text></g><!--link GameStateManager to GameState--><g id="link_GameStateManager_GameState"><path codeLine="28" d="M121.1,359.28 C110.35,378.61 99.76,397.67 90.55,414.24 " fill="none" id="GameStateManager-to-GameState" style="stroke:#181818;stroke-width:1.0;"/><polygon fill="#181818" points="87.99,418.84,95.8574,412.9152,90.4182,414.4692,88.8642,409.03,87.99,418.84" style="stroke:#181818;stroke-width:1.0;"/><text fill="#000000" font-family="sans-serif" font-size="13" lengthAdjust="spacing" textLength="40" x="48.9027" y="408.0264">_state</text></g><!--SRC=[ZPBHIiCm58Rl-nJ7N2akBo2rC476Bih678fN9RQ76jnE84qxGVVkddHXTkjgxKLf_lFzv_HFWbHlOQQs-EIKG_YAW9-bnPAbIRjOrKIQoiFYaOf9j8_oZQggNrkgI9LeWrk2DoyQj6lyT707bRFS0Ev1U0VuofNee2-QUkIhgO7r8vSX5Tvz0eRQTAS-yFg6vSReeXLlOLw552o_6RE1E2xH9Scn778DbJaf5fUBdDaw_pFdCsSXzoMTmvpAifLvp3czmge_O1-bXim3lgj6czf2_2rbxm2Yteb8cO2O4pUa7CL_3GiAkdK2fhdJXluaESGenwcmpJH2whRZiyQT0FyUmCh3s56kSsq4hDDbvhy6sApoKcUNVW00]--></g></svg>