<?xml version="1.0" encoding="us-ascii" standalone="no"?><svg xmlns="http://www.w3.org/2000/svg" xmlns:xlink="http://www.w3.org/1999/xlink" contentStyleType="text/css" height="506px" preserveAspectRatio="none" style="width:366px;height:506px;background:#FFFFFF;" version="1.1" viewBox="0 0 366 506" width="366px" zoomAndPan="magnify"><defs/><g><!--class PlayerStatsManager--><g id="elem_PlayerStatsManager"><rect codeLine="1" fill="#F1F1F1" height="276.1563" id="PlayerStatsManager" rx="2.5" ry="2.5" style="stroke:#181818;stroke-width:0.5;" width="291" x="7" y="115"/><ellipse cx="80.25" cy="131" fill="#ADD1B2" rx="11" ry="11" style="stroke:#181818;stroke-width:1.0;"/><path d="M83.2188,136.6406 Q82.6406,136.9375 82,137.0781 Q81.3594,137.2344 80.6563,137.2344 Q78.1563,137.2344 76.8281,135.5938 Q75.5156,133.9375 75.5156,130.8125 Q75.5156,127.6875 76.8281,126.0313 Q78.1563,124.375 80.6563,124.375 Q81.3594,124.375 82,124.5313 Q82.6563,124.6875 83.2188,124.9844 L83.2188,127.7031 Q82.5938,127.125 82,126.8594 Q81.4063,126.5781 80.7813,126.5781 Q79.4375,126.5781 78.75,127.6563 Q78.0625,128.7188 78.0625,130.8125 Q78.0625,132.9063 78.75,133.9844 Q79.4375,135.0469 80.7813,135.0469 Q81.4063,135.0469 82,134.7813 Q82.5938,134.5 83.2188,133.9219 L83.2188,136.6406 Z " fill="#000000"/><text fill="#000000" font-family="sans-serif" font-size="14" lengthAdjust="spacing" textLength="136" x="100.75" y="135.8467">PlayerStatsManager</text><line style="stroke:#181818;stroke-width:0.5;" x1="8" x2="297" y1="147" y2="147"/><rect fill="none" height="6" style="stroke:#C82930;stroke-width:1.0;" width="6" x="15" y="157.6484"/><text fill="#000000" font-family="sans-serif" font-size="14" lengthAdjust="spacing" textLength="143" x="27" y="163.9951">startHealth : int = 20</text><rect fill="none" height="6" style="stroke:#C82930;stroke-width:1.0;" width="6" x="15" y="173.9453"/><text fill="#000000" font-family="sans-serif" font-size="14" lengthAdjust="spacing" textLength="154" x="27" y="180.292">startMoney : int = 200</text><rect fill="none" height="6" style="stroke:#C82930;stroke-width:1.0;" width="6" x="15" y="190.2422"/><text fill="#000000" font-family="sans-serif" font-size="14" lengthAdjust="spacing" textLength="172" x="27" y="196.5889">sellMultiplier : float = 0.5f</text><rect fill="none" height="6" style="stroke:#C82930;stroke-width:1.0;" width="6" x="15" y="206.5391"/><text fill="#000000" font-family="sans-serif" font-size="14" lengthAdjust="spacing" textLength="123" x="27" y="212.8857">_statsText : string</text><rect fill="none" height="6" style="stroke:#C82930;stroke-width:1.0;" width="6" x="15" y="222.8359"/><text fill="#000000" font-family="sans-serif" font-size="14" lengthAdjust="spacing" textLength="131" x="27" y="229.1826">_currentHealth : int</text><rect fill="none" height="6" style="stroke:#C82930;stroke-width:1.0;" width="6" x="15" y="239.1328"/><text fill="#000000" font-family="sans-serif" font-size="14" lengthAdjust="spacing" textLength="133" x="27" y="245.4795">_currentMoney : int</text><line style="stroke:#181818;stroke-width:0.5;" x1="8" x2="297" y1="252.7813" y2="252.7813"/><rect fill="#F24D5C" height="6" style="stroke:#C82930;stroke-width:1.0;" width="6" x="15" y="263.4297"/><text fill="#000000" font-family="sans-serif" font-size="14" lengthAdjust="spacing" textLength="96" x="27" y="269.7764">Awake() : void</text><rect fill="#F24D5C" height="6" style="stroke:#C82930;stroke-width:1.0;" width="6" x="15" y="279.7266"/><text fill="#000000" font-family="sans-serif" font-size="14" lengthAdjust="spacing" textLength="124" x="27" y="286.0732">StartGame() : void</text><rect fill="#F24D5C" height="6" style="stroke:#C82930;stroke-width:1.0;" width="6" x="15" y="296.0234"/><text fill="#000000" font-family="sans-serif" font-size="14" lengthAdjust="spacing" textLength="131" x="27" y="302.3701">UpdateText() : void</text><ellipse cx="18" cy="315.3203" fill="#84BE84" rx="3" ry="3" style="stroke:#038048;stroke-width:1.0;"/><text fill="#000000" font-family="sans-serif" font-size="14" lengthAdjust="spacing" textLength="221" x="27" y="318.667">TakeDamage(damage:int) : void</text><ellipse cx="18" cy="331.6172" fill="#84BE84" rx="3" ry="3" style="stroke:#038048;stroke-width:1.0;"/><text fill="#000000" font-family="sans-serif" font-size="14" lengthAdjust="spacing" textLength="131" x="27" y="334.9639">Sell(price:int) : void</text><ellipse cx="18" cy="347.9141" fill="#84BE84" rx="3" ry="3" style="stroke:#038048;stroke-width:1.0;"/><text fill="#000000" font-family="sans-serif" font-size="14" lengthAdjust="spacing" textLength="199" x="27" y="351.2607">AddMoney(amount:int) : void</text><ellipse cx="18" cy="364.2109" fill="#84BE84" rx="3" ry="3" style="stroke:#038048;stroke-width:1.0;"/><text fill="#000000" font-family="sans-serif" font-size="14" lengthAdjust="spacing" textLength="133" x="27" y="367.5576">Buy(price:int) : void</text><ellipse cx="18" cy="380.5078" fill="#84BE84" rx="3" ry="3" style="stroke:#038048;stroke-width:1.0;"/><text fill="#000000" font-family="sans-serif" font-size="14" lengthAdjust="spacing" textLength="265" x="27" y="383.8545">HaveEnoughMoneyFor(price:int) : bool</text></g><!--class MonoBehaviour--><g id="elem_MonoBehaviour"><rect fill="#F1F1F1" height="48" id="MonoBehaviour" rx="2.5" ry="2.5" style="stroke:#181818;stroke-width:0.5;" width="140" x="82.5" y="7"/><ellipse cx="97.5" cy="23" fill="#ADD1B2" rx="11" ry="11" style="stroke:#181818;stroke-width:1.0;"/><path d="M100.4688,28.6406 Q99.8906,28.9375 99.25,29.0781 Q98.6094,29.2344 97.9063,29.2344 Q95.4063,29.2344 94.0781,27.5938 Q92.7656,25.9375 92.7656,22.8125 Q92.7656,19.6875 94.0781,18.0313 Q95.4063,16.375 97.9063,16.375 Q98.6094,16.375 99.25,16.5313 Q99.9063,16.6875 100.4688,16.9844 L100.4688,19.7031 Q99.8438,19.125 99.25,18.8594 Q98.6563,18.5781 98.0313,18.5781 Q96.6875,18.5781 96,19.6563 Q95.3125,20.7188 95.3125,22.8125 Q95.3125,24.9063 96,25.9844 Q96.6875,27.0469 98.0313,27.0469 Q98.6563,27.0469 99.25,26.7813 Q99.8438,26.5 100.4688,25.9219 L100.4688,28.6406 Z " fill="#000000"/><text fill="#000000" font-family="sans-serif" font-size="14" lengthAdjust="spacing" textLength="108" x="111.5" y="27.8467">MonoBehaviour</text><line style="stroke:#181818;stroke-width:0.5;" x1="83.5" x2="221.5" y1="39" y2="39"/><line style="stroke:#181818;stroke-width:0.5;" x1="83.5" x2="221.5" y1="47" y2="47"/></g><!--class TMP_Text--><g id="elem_TMP_Text"><rect fill="#F1F1F1" height="48" id="TMP_Text" rx="2.5" ry="2.5" style="stroke:#181818;stroke-width:0.5;" width="99" x="103" y="451"/><ellipse cx="118" cy="467" fill="#ADD1B2" rx="11" ry="11" style="stroke:#181818;stroke-width:1.0;"/><path d="M120.9688,472.6406 Q120.3906,472.9375 119.75,473.0781 Q119.1094,473.2344 118.4063,473.2344 Q115.9063,473.2344 114.5781,471.5938 Q113.2656,469.9375 113.2656,466.8125 Q113.2656,463.6875 114.5781,462.0313 Q115.9063,460.375 118.4063,460.375 Q119.1094,460.375 119.75,460.5313 Q120.4063,460.6875 120.9688,460.9844 L120.9688,463.7031 Q120.3438,463.125 119.75,462.8594 Q119.1563,462.5781 118.5313,462.5781 Q117.1875,462.5781 116.5,463.6563 Q115.8125,464.7188 115.8125,466.8125 Q115.8125,468.9063 116.5,469.9844 Q117.1875,471.0469 118.5313,471.0469 Q119.1563,471.0469 119.75,470.7813 Q120.3438,470.5 120.9688,469.9219 L120.9688,472.6406 Z " fill="#000000"/><text fill="#000000" font-family="sans-serif" font-size="14" lengthAdjust="spacing" textLength="67" x="132" y="471.8467">TMP_Text</text><line style="stroke:#181818;stroke-width:0.5;" x1="104" x2="201" y1="483" y2="483"/><line style="stroke:#181818;stroke-width:0.5;" x1="104" x2="201" y1="491" y2="491"/></g><!--reverse link MonoBehaviour to PlayerStatsManager--><g id="link_MonoBehaviour_PlayerStatsManager"><path codeLine="17" d="M152.5,75.58 C152.5,87.4 152.5,100.86 152.5,114.95 " fill="none" id="MonoBehaviour-backto-PlayerStatsManager" style="stroke:#181818;stroke-width:1.0;"/><polygon fill="none" points="145.5,75.13,152.5,55.13,159.5,75.13,145.5,75.13" style="stroke:#181818;stroke-width:1.0;"/></g><!--link PlayerStatsManager to PlayerStatsManager--><g id="link_PlayerStatsManager_PlayerStatsManager"><path codeLine="18" d="M298.03,215.54 C318.94,221.54 333,234.03 333,253 C333,270.49 321.05,282.47 302.81,288.93 " fill="none" id="PlayerStatsManager-to-PlayerStatsManager" style="stroke:#181818;stroke-width:1.0;"/><polygon fill="#181818" points="298.03,290.46,307.8222,291.515,302.7903,288.9304,305.3749,283.8985,298.03,290.46" style="stroke:#181818;stroke-width:1.0;"/><text fill="#000000" font-family="sans-serif" font-size="13" lengthAdjust="spacing" textLength="54" x="305.8478" y="288.8839">Instance</text></g><!--link PlayerStatsManager to TMP_Text--><g id="link_PlayerStatsManager_TMP_Text"><path codeLine="19" d="M152.5,391.14 C152.5,411.62 152.5,430.77 152.5,445.48 " fill="none" id="PlayerStatsManager-to-TMP_Text" style="stroke:#181818;stroke-width:1.0;"/><polygon fill="#181818" points="152.5,450.7,156.5,441.7,152.5,445.7,148.5,441.7,152.5,450.7" style="stroke:#181818;stroke-width:1.0;"/><text fill="#000000" font-family="sans-serif" font-size="13" lengthAdjust="spacing" textLength="59" x="86.3094" y="440.0318">statsText</text></g><!--SRC=[bP5DIyGm48Rl_HL3JnMfB8ANei8kVgo7maBhUHdRsJQO9YKVrQB-TvDIbtQj1tD9cEUTUISp1KUjOSUn9vKPD3f5WHKf-0Z0dHYqGMMsXDpKa00J1cxWSZM5gHJKJzWH4kUfvOQrdBc22HouH2zPNLmTHirUUy-StetZsYWcgXzIMAL8pAnFqCHu9EitVANepCKwoSencFac7x7v1PxR4WrvypavXzoLkSF63I8gXojn7YUQp7qlQXKhbk2wB8Vk8coa5MP1iR7zdzbRxEXUI5lLGv47gURI5obvy1KuA3TKOyUaLN3z6SSBYmmMTXl7jn0-2JTxKL3udwJZkaB8qztUlxu1]--></g></svg>