<?xml version="1.0" encoding="us-ascii" standalone="no"?><svg xmlns="http://www.w3.org/2000/svg" xmlns:xlink="http://www.w3.org/1999/xlink" contentStyleType="text/css" height="366px" preserveAspectRatio="none" style="width:655px;height:366px;background:#FFFFFF;" version="1.1" viewBox="0 0 655 366" width="655px" zoomAndPan="magnify"><defs/><g><!--class WaveManager--><g id="elem_WaveManager"><rect codeLine="1" fill="#F1F1F1" height="243.5625" id="WaveManager" rx="2.5" ry="2.5" style="stroke:#181818;stroke-width:0.5;" width="580" x="7" y="7"/><ellipse cx="183.75" cy="23" fill="#ADD1B2" rx="11" ry="11" style="stroke:#181818;stroke-width:1.0;"/><path d="M186.7188,28.6406 Q186.1406,28.9375 185.5,29.0781 Q184.8594,29.2344 184.1563,29.2344 Q181.6563,29.2344 180.3281,27.5938 Q179.0156,25.9375 179.0156,22.8125 Q179.0156,19.6875 180.3281,18.0313 Q181.6563,16.375 184.1563,16.375 Q184.8594,16.375 185.5,16.5313 Q186.1563,16.6875 186.7188,16.9844 L186.7188,19.7031 Q186.0938,19.125 185.5,18.8594 Q184.9063,18.5781 184.2813,18.5781 Q182.9375,18.5781 182.25,19.6563 Q181.5625,20.7188 181.5625,22.8125 Q181.5625,24.9063 182.25,25.9844 Q182.9375,27.0469 184.2813,27.0469 Q184.9063,27.0469 185.5,26.7813 Q186.0938,26.5 186.7188,25.9219 L186.7188,28.6406 Z " fill="#000000"/><text fill="#000000" font-family="sans-serif" font-size="14" lengthAdjust="spacing" textLength="218" x="204.25" y="27.8467">WaveManager : MonoBehaviour</text><line style="stroke:#181818;stroke-width:0.5;" x1="8" x2="586" y1="39" y2="39"/><ellipse cx="18" cy="52.6484" fill="none" rx="3" ry="3" style="stroke:#038048;stroke-width:1.0;"/><text fill="#000000" font-family="sans-serif" font-size="14" lengthAdjust="spacing" text-decoration="underline" textLength="169" x="27" y="55.9951">Instance : WaveManager</text><ellipse cx="18" cy="68.9453" fill="none" rx="3" ry="3" style="stroke:#038048;stroke-width:1.0;"/><text fill="#000000" font-family="sans-serif" font-size="14" lengthAdjust="spacing" textLength="145" x="27" y="72.292">OnWaveStart : Action</text><ellipse cx="18" cy="85.2422" fill="none" rx="3" ry="3" style="stroke:#038048;stroke-width:1.0;"/><text fill="#000000" font-family="sans-serif" font-size="14" lengthAdjust="spacing" textLength="140" x="27" y="88.5889">OnWaveEnd : Action</text><ellipse cx="18" cy="101.5391" fill="none" rx="3" ry="3" style="stroke:#038048;stroke-width:1.0;"/><text fill="#000000" font-family="sans-serif" font-size="14" lengthAdjust="spacing" textLength="194" x="27" y="104.8857">IsWaveRunning : bool &#171;get&#187;</text><rect fill="none" height="6" style="stroke:#C82930;stroke-width:1.0;" width="6" x="15" y="114.8359"/><text fill="#000000" font-family="sans-serif" font-size="14" lengthAdjust="spacing" textLength="554" x="27" y="121.1826">strPrepareToBeAttackedByWave : string = "Prepare to be attacked by wave {0}"</text><rect fill="none" height="6" style="stroke:#C82930;stroke-width:1.0;" width="6" x="15" y="131.1328"/><text fill="#000000" font-family="sans-serif" font-size="14" lengthAdjust="spacing" textLength="381" x="27" y="137.4795">strTimeTillNextWave : string = "Time till next wave: {0}"</text><rect fill="none" height="6" style="stroke:#C82930;stroke-width:1.0;" width="6" x="15" y="147.4297"/><text fill="#000000" font-family="sans-serif" font-size="14" lengthAdjust="spacing" textLength="316" x="27" y="153.7764">strCurrentWave : string = "Current wave: {0}"</text><rect fill="none" height="6" style="stroke:#C82930;stroke-width:1.0;" width="6" x="15" y="163.7266"/><text fill="#000000" font-family="sans-serif" font-size="14" lengthAdjust="spacing" textLength="103" x="27" y="170.0732">waves : Wave[]</text><rect fill="none" height="6" style="stroke:#C82930;stroke-width:1.0;" width="6" x="15" y="180.0234"/><text fill="#000000" font-family="sans-serif" font-size="14" lengthAdjust="spacing" textLength="145" x="27" y="186.3701">waveText : TMP_Text</text><rect fill="none" height="6" style="stroke:#C82930;stroke-width:1.0;" width="6" x="15" y="196.3203"/><text fill="#000000" font-family="sans-serif" font-size="14" lengthAdjust="spacing" textLength="225" x="27" y="202.667">waveCountdownText : TMP_Text</text><line style="stroke:#181818;stroke-width:0.5;" x1="8" x2="586" y1="209.9688" y2="209.9688"/><rect fill="#F24D5C" height="6" style="stroke:#C82930;stroke-width:1.0;" width="6" x="15" y="220.6172"/><text fill="#000000" font-family="sans-serif" font-size="14" lengthAdjust="spacing" text-decoration="underline" textLength="297" x="27" y="226.9639">WaitForAllEnemiesDefeated() : IEnumerator</text><ellipse cx="18" cy="239.9141" fill="#84BE84" rx="3" ry="3" style="stroke:#038048;stroke-width:1.0;"/><text fill="#000000" font-family="sans-serif" font-size="14" lengthAdjust="spacing" text-decoration="underline" textLength="165" x="27" y="243.2607">GetEnemies() : Enemy[]</text></g><!--class Wave--><g id="elem_Wave"><rect fill="#F1F1F1" height="48" id="Wave" rx="2.5" ry="2.5" style="stroke:#181818;stroke-width:0.5;" width="69" x="208.5" y="311"/><ellipse cx="223.5" cy="327" fill="#ADD1B2" rx="11" ry="11" style="stroke:#181818;stroke-width:1.0;"/><path d="M226.4688,332.6406 Q225.8906,332.9375 225.25,333.0781 Q224.6094,333.2344 223.9063,333.2344 Q221.4063,333.2344 220.0781,331.5938 Q218.7656,329.9375 218.7656,326.8125 Q218.7656,323.6875 220.0781,322.0313 Q221.4063,320.375 223.9063,320.375 Q224.6094,320.375 225.25,320.5313 Q225.9063,320.6875 226.4688,320.9844 L226.4688,323.7031 Q225.8438,323.125 225.25,322.8594 Q224.6563,322.5781 224.0313,322.5781 Q222.6875,322.5781 222,323.6563 Q221.3125,324.7188 221.3125,326.8125 Q221.3125,328.9063 222,329.9844 Q222.6875,331.0469 224.0313,331.0469 Q224.6563,331.0469 225.25,330.7813 Q225.8438,330.5 226.4688,329.9219 L226.4688,332.6406 Z " fill="#000000"/><text fill="#000000" font-family="sans-serif" font-size="14" lengthAdjust="spacing" textLength="37" x="237.5" y="331.8467">Wave</text><line style="stroke:#181818;stroke-width:0.5;" x1="209.5" x2="276.5" y1="343" y2="343"/><line style="stroke:#181818;stroke-width:0.5;" x1="209.5" x2="276.5" y1="351" y2="351"/></g><!--class Enemy--><g id="elem_Enemy"><rect fill="#F1F1F1" height="48" id="Enemy" rx="2.5" ry="2.5" style="stroke:#181818;stroke-width:0.5;" width="79" x="312.5" y="311"/><ellipse cx="327.5" cy="327" fill="#ADD1B2" rx="11" ry="11" style="stroke:#181818;stroke-width:1.0;"/><path d="M330.4688,332.6406 Q329.8906,332.9375 329.25,333.0781 Q328.6094,333.2344 327.9063,333.2344 Q325.4063,333.2344 324.0781,331.5938 Q322.7656,329.9375 322.7656,326.8125 Q322.7656,323.6875 324.0781,322.0313 Q325.4063,320.375 327.9063,320.375 Q328.6094,320.375 329.25,320.5313 Q329.9063,320.6875 330.4688,320.9844 L330.4688,323.7031 Q329.8438,323.125 329.25,322.8594 Q328.6563,322.5781 328.0313,322.5781 Q326.6875,322.5781 326,323.6563 Q325.3125,324.7188 325.3125,326.8125 Q325.3125,328.9063 326,329.9844 Q326.6875,331.0469 328.0313,331.0469 Q328.6563,331.0469 329.25,330.7813 Q329.8438,330.5 330.4688,329.9219 L330.4688,332.6406 Z " fill="#000000"/><text fill="#000000" font-family="sans-serif" font-size="14" lengthAdjust="spacing" textLength="47" x="341.5" y="331.8467">Enemy</text><line style="stroke:#181818;stroke-width:0.5;" x1="313.5" x2="390.5" y1="343" y2="343"/><line style="stroke:#181818;stroke-width:0.5;" x1="313.5" x2="390.5" y1="351" y2="351"/></g><!--link WaveManager to WaveManager--><g id="link_WaveManager_WaveManager"><path codeLine="15" d="M587.22,100.26 C608.77,106.7 622,116.28 622,129 C622,140.73 610.76,149.79 592.12,156.17 " fill="none" id="WaveManager-to-WaveManager" style="stroke:#181818;stroke-width:1.0;"/><polygon fill="#181818" points="587.22,157.74,597.0122,158.795,591.9803,156.2104,594.5649,151.1785,587.22,157.74" style="stroke:#181818;stroke-width:1.0;"/><text fill="#000000" font-family="sans-serif" font-size="13" lengthAdjust="spacing" textLength="54" x="594.6548" y="155.3114">Instance</text></g><!--link WaveManager to Wave--><g id="link_WaveManager_Wave"><path codeLine="16" d="M264.96,251.03 C259.54,271.53 254.39,290.97 250.45,305.87 " fill="none" id="WaveManager-to-Wave" style="stroke:#181818;stroke-width:1.0;"/><polygon fill="#181818" points="249.16,310.75,255.3143,303.0607,250.4297,305.9139,247.5765,301.0293,249.16,310.75" style="stroke:#181818;stroke-width:1.0;"/><text fill="#000000" font-family="sans-serif" font-size="13" lengthAdjust="spacing" textLength="39" x="206.9084" y="300.094">waves</text></g><!--link WaveManager to Enemy--><g id="link_WaveManager_Enemy"><path codeLine="17" d="M329.63,251.03 C335.16,271.53 340.4,290.97 344.42,305.87 " fill="none" id="WaveManager-to-Enemy" style="stroke:#181818;stroke-width:1.0;"/><polygon fill="#181818" points="345.73,310.75,347.2259,301.0154,344.4168,305.9255,339.5067,303.1165,345.73,310.75" style="stroke:#181818;stroke-width:1.0;"/><text fill="#000000" font-family="sans-serif" font-size="13" lengthAdjust="spacing" textLength="88" x="271.8769" y="299.9093">GetEnemies()</text></g><!--SRC=[RPB1Ji9048RlFCLaJnhJn3D14a0q752YJJWOOuPsn8rbrknEmQRfkxjRgfJMdYRp_T_EjjCaG-T0hN5FIsJSaeKXB0sRANtWNflSAa07RLuEm3zNK3f1qKa52_OL9-JDLgv9FNBeFGjQyNoIY3PyXkQSTi721V2KCslUUhWn9eFHQ4io7jUH29pObQKlj1Jxgqv4CFcaT5e4qHiU1_K6L9C2CR0Xm2O8cm8E8LfUL-fqPAnt5EiiUw1lwPqK88Ydm1xN-h3Zpt9hYVjgq-yxeU6Qx_Rosch6OSGGukNgBPGjCZCvIseE_7_aRojhr79dx2JBvamxJUwMtWc5qejBRotcdE_8eXZRNUSzIMFKoL0N_cxLeFqJHD4OrE_YrTdUUx7w9O-PFcnFKyTXFm00]--></g></svg>