<?xml version="1.0" encoding="us-ascii" standalone="no"?><svg xmlns="http://www.w3.org/2000/svg" xmlns:xlink="http://www.w3.org/1999/xlink" contentStyleType="text/css" height="457px" preserveAspectRatio="none" style="width:660px;height:457px;background:#FFFFFF;" version="1.1" viewBox="0 0 660 457" width="660px" zoomAndPan="magnify"><defs/><g><!--class WaveManager--><g id="elem_WaveManager"><rect codeLine="1" fill="#F1F1F1" height="227.2656" id="WaveManager" rx="2.5" ry="2.5" style="stroke:#181818;stroke-width:0.5;" width="585" x="7" y="115"/><ellipse cx="246.75" cy="131" fill="#ADD1B2" rx="11" ry="11" style="stroke:#181818;stroke-width:1.0;"/><path d="M249.7188,136.6406 Q249.1406,136.9375 248.5,137.0781 Q247.8594,137.2344 247.1563,137.2344 Q244.6563,137.2344 243.3281,135.5938 Q242.0156,133.9375 242.0156,130.8125 Q242.0156,127.6875 243.3281,126.0313 Q244.6563,124.375 247.1563,124.375 Q247.8594,124.375 248.5,124.5313 Q249.1563,124.6875 249.7188,124.9844 L249.7188,127.7031 Q249.0938,127.125 248.5,126.8594 Q247.9063,126.5781 247.2813,126.5781 Q245.9375,126.5781 245.25,127.6563 Q244.5625,128.7188 244.5625,130.8125 Q244.5625,132.9063 245.25,133.9844 Q245.9375,135.0469 247.2813,135.0469 Q247.9063,135.0469 248.5,134.7813 Q249.0938,134.5 249.7188,133.9219 L249.7188,136.6406 Z " fill="#000000"/><text fill="#000000" font-family="sans-serif" font-size="14" lengthAdjust="spacing" textLength="97" x="267.25" y="135.8467">WaveManager</text><line style="stroke:#181818;stroke-width:0.5;" x1="8" x2="591" y1="147" y2="147"/><ellipse cx="18" cy="160.6484" fill="none" rx="3" ry="3" style="stroke:#038048;stroke-width:1.0;"/><text fill="#000000" font-family="sans-serif" font-size="14" lengthAdjust="spacing" textLength="194" x="27" y="163.9951">IsWaveRunning : bool &#171;get&#187;</text><rect fill="none" height="6" style="stroke:#C82930;stroke-width:1.0;" width="6" x="15" y="173.9453"/><text fill="#000000" font-family="sans-serif" font-size="14" lengthAdjust="spacing" textLength="559" x="27" y="180.292">strPrepareToBeAttackedByWave : string = "Prepare to be attacked by wave {0}!"</text><rect fill="none" height="6" style="stroke:#C82930;stroke-width:1.0;" width="6" x="15" y="190.2422"/><text fill="#000000" font-family="sans-serif" font-size="14" lengthAdjust="spacing" textLength="381" x="27" y="196.5889">strTimeTillNextWave : string = "Time till next wave: {0}"</text><rect fill="none" height="6" style="stroke:#C82930;stroke-width:1.0;" width="6" x="15" y="206.5391"/><text fill="#000000" font-family="sans-serif" font-size="14" lengthAdjust="spacing" textLength="316" x="27" y="212.8857">strCurrentWave : string = "Current wave: {0}"</text><line style="stroke:#181818;stroke-width:0.5;" x1="8" x2="591" y1="220.1875" y2="220.1875"/><rect fill="#F24D5C" height="6" style="stroke:#C82930;stroke-width:1.0;" width="6" x="15" y="230.8359"/><text fill="#000000" font-family="sans-serif" font-size="14" lengthAdjust="spacing" textLength="96" x="27" y="237.1826">Awake() : void</text><rect fill="#F24D5C" height="6" style="stroke:#C82930;stroke-width:1.0;" width="6" x="15" y="247.1328"/><text fill="#000000" font-family="sans-serif" font-size="14" lengthAdjust="spacing" textLength="83" x="27" y="253.4795">Start() : void</text><rect fill="#F24D5C" height="6" style="stroke:#C82930;stroke-width:1.0;" width="6" x="15" y="263.4297"/><text fill="#000000" font-family="sans-serif" font-size="14" lengthAdjust="spacing" textLength="128" x="27" y="269.7764">StartWaves() : void</text><rect fill="#F24D5C" height="6" style="stroke:#C82930;stroke-width:1.0;" width="6" x="15" y="279.7266"/><text fill="#000000" font-family="sans-serif" font-size="14" lengthAdjust="spacing" textLength="198" x="27" y="286.0732">SpawnWaves() : IEnumerator</text><rect fill="#F24D5C" height="6" style="stroke:#C82930;stroke-width:1.0;" width="6" x="15" y="296.0234"/><text fill="#000000" font-family="sans-serif" font-size="14" lengthAdjust="spacing" text-decoration="underline" textLength="297" x="27" y="302.3701">WaitForAllEnemiesDefeated() : IEnumerator</text><rect fill="#F24D5C" height="6" style="stroke:#C82930;stroke-width:1.0;" width="6" x="15" y="312.3203"/><text fill="#000000" font-family="sans-serif" font-size="14" lengthAdjust="spacing" textLength="137" x="27" y="318.667">ResetWaves() : void</text><ellipse cx="18" cy="331.6172" fill="#84BE84" rx="3" ry="3" style="stroke:#038048;stroke-width:1.0;"/><text fill="#000000" font-family="sans-serif" font-size="14" lengthAdjust="spacing" text-decoration="underline" textLength="165" x="27" y="334.9639">GetEnemies() : Enemy[]</text></g><!--class MonoBehaviour--><g id="elem_MonoBehaviour"><rect fill="#F1F1F1" height="48" id="MonoBehaviour" rx="2.5" ry="2.5" style="stroke:#181818;stroke-width:0.5;" width="140" x="229.5" y="7"/><ellipse cx="244.5" cy="23" fill="#ADD1B2" rx="11" ry="11" style="stroke:#181818;stroke-width:1.0;"/><path d="M247.4688,28.6406 Q246.8906,28.9375 246.25,29.0781 Q245.6094,29.2344 244.9063,29.2344 Q242.4063,29.2344 241.0781,27.5938 Q239.7656,25.9375 239.7656,22.8125 Q239.7656,19.6875 241.0781,18.0313 Q242.4063,16.375 244.9063,16.375 Q245.6094,16.375 246.25,16.5313 Q246.9063,16.6875 247.4688,16.9844 L247.4688,19.7031 Q246.8438,19.125 246.25,18.8594 Q245.6563,18.5781 245.0313,18.5781 Q243.6875,18.5781 243,19.6563 Q242.3125,20.7188 242.3125,22.8125 Q242.3125,24.9063 243,25.9844 Q243.6875,27.0469 245.0313,27.0469 Q245.6563,27.0469 246.25,26.7813 Q246.8438,26.5 247.4688,25.9219 L247.4688,28.6406 Z " fill="#000000"/><text fill="#000000" font-family="sans-serif" font-size="14" lengthAdjust="spacing" textLength="108" x="258.5" y="27.8467">MonoBehaviour</text><line style="stroke:#181818;stroke-width:0.5;" x1="230.5" x2="368.5" y1="39" y2="39"/><line style="stroke:#181818;stroke-width:0.5;" x1="230.5" x2="368.5" y1="47" y2="47"/></g><!--class Action--><g id="elem_Action"><rect fill="#F1F1F1" height="48" id="Action" rx="2.5" ry="2.5" style="stroke:#181818;stroke-width:0.5;" width="75" x="187" y="402"/><ellipse cx="202" cy="418" fill="#ADD1B2" rx="11" ry="11" style="stroke:#181818;stroke-width:1.0;"/><path d="M204.9688,423.6406 Q204.3906,423.9375 203.75,424.0781 Q203.1094,424.2344 202.4063,424.2344 Q199.9063,424.2344 198.5781,422.5938 Q197.2656,420.9375 197.2656,417.8125 Q197.2656,414.6875 198.5781,413.0313 Q199.9063,411.375 202.4063,411.375 Q203.1094,411.375 203.75,411.5313 Q204.4063,411.6875 204.9688,411.9844 L204.9688,414.7031 Q204.3438,414.125 203.75,413.8594 Q203.1563,413.5781 202.5313,413.5781 Q201.1875,413.5781 200.5,414.6563 Q199.8125,415.7188 199.8125,417.8125 Q199.8125,419.9063 200.5,420.9844 Q201.1875,422.0469 202.5313,422.0469 Q203.1563,422.0469 203.75,421.7813 Q204.3438,421.5 204.9688,420.9219 L204.9688,423.6406 Z " fill="#000000"/><text fill="#000000" font-family="sans-serif" font-size="14" lengthAdjust="spacing" textLength="43" x="216" y="422.8467">Action</text><line style="stroke:#181818;stroke-width:0.5;" x1="188" x2="261" y1="434" y2="434"/><line style="stroke:#181818;stroke-width:0.5;" x1="188" x2="261" y1="442" y2="442"/></g><!--class TextMeshProUGUI--><g id="elem_TextMeshProUGUI"><rect fill="#F1F1F1" height="48" id="TextMeshProUGUI" rx="2.5" ry="2.5" style="stroke:#181818;stroke-width:0.5;" width="157" x="297" y="402"/><ellipse cx="312" cy="418" fill="#ADD1B2" rx="11" ry="11" style="stroke:#181818;stroke-width:1.0;"/><path d="M314.9688,423.6406 Q314.3906,423.9375 313.75,424.0781 Q313.1094,424.2344 312.4063,424.2344 Q309.9063,424.2344 308.5781,422.5938 Q307.2656,420.9375 307.2656,417.8125 Q307.2656,414.6875 308.5781,413.0313 Q309.9063,411.375 312.4063,411.375 Q313.1094,411.375 313.75,411.5313 Q314.4063,411.6875 314.9688,411.9844 L314.9688,414.7031 Q314.3438,414.125 313.75,413.8594 Q313.1563,413.5781 312.5313,413.5781 Q311.1875,413.5781 310.5,414.6563 Q309.8125,415.7188 309.8125,417.8125 Q309.8125,419.9063 310.5,420.9844 Q311.1875,422.0469 312.5313,422.0469 Q313.1563,422.0469 313.75,421.7813 Q314.3438,421.5 314.9688,420.9219 L314.9688,423.6406 Z " fill="#000000"/><text fill="#000000" font-family="sans-serif" font-size="14" lengthAdjust="spacing" textLength="125" x="326" y="422.8467">TextMeshProUGUI</text><line style="stroke:#181818;stroke-width:0.5;" x1="298" x2="453" y1="434" y2="434"/><line style="stroke:#181818;stroke-width:0.5;" x1="298" x2="453" y1="442" y2="442"/></g><!--reverse link MonoBehaviour to WaveManager--><g id="link_MonoBehaviour_WaveManager"><path codeLine="14" d="M299.5,75.38 C299.5,87.38 299.5,100.97 299.5,114.98 " fill="none" id="MonoBehaviour-backto-WaveManager" style="stroke:#181818;stroke-width:1.0;"/><polygon fill="none" points="292.5,75.19,299.5,55.19,306.5,75.19,292.5,75.19" style="stroke:#181818;stroke-width:1.0;"/></g><!--link WaveManager to WaveManager--><g id="link_WaveManager_WaveManager"><path codeLine="15" d="M592.21,201.23 C613.78,207.35 627,216.44 627,228.5 C627,239.62 615.76,248.21 597.11,254.28 " fill="none" id="WaveManager-to-WaveManager" style="stroke:#181818;stroke-width:1.0;"/><polygon fill="#181818" points="592.21,255.77,601.9849,256.9751,596.9932,254.3136,599.6547,249.322,592.21,255.77" style="stroke:#181818;stroke-width:1.0;"/><text fill="#000000" font-family="sans-serif" font-size="13" lengthAdjust="spacing" textLength="54" x="599.7032" y="253.2987">Instance</text></g><!--link WaveManager to Action--><g id="link_WaveManager_Action"><path codeLine="16" d="M243.69,342.09 C236.21,362.53 229.84,382.08 225.97,397.06 " fill="none" id="WaveManager-to-Action" style="stroke:#181818;stroke-width:1.0;"/><polygon fill="#181818" points="224.76,401.96,230.8019,394.1821,225.9592,397.1059,223.0354,392.2633,224.76,401.96" style="stroke:#181818;stroke-width:1.0;"/><text fill="#000000" font-family="sans-serif" font-size="13" lengthAdjust="spacing" textLength="84" x="130.0641" y="390.9618">OnWaveStart</text></g><!--link WaveManager to Action--><g id="link_WaveManager_Action"><path codeLine="17" d="M269.67,342.09 C261.37,362.71 252.6,382.42 244.81,397.45 " fill="none" id="WaveManager-to-Action-1" style="stroke:#181818;stroke-width:1.0;"/><polygon fill="#181818" points="242.43,401.96,250.1671,395.8659,244.7629,397.5376,243.0912,392.1334,242.43,401.96" style="stroke:#181818;stroke-width:1.0;"/><text fill="#000000" font-family="sans-serif" font-size="13" lengthAdjust="spacing" textLength="76" x="256.6359" y="390.9">OnWaveEnd</text></g><!--link WaveManager to TextMeshProUGUI--><g id="link_WaveManager_TextMeshProUGUI"><path codeLine="18" d="M330.65,342.09 C339.03,362.71 347.84,382.42 355.59,397.45 " fill="none" id="WaveManager-to-TextMeshProUGUI" style="stroke:#181818;stroke-width:1.0;"/><polygon fill="#181818" points="357.96,401.96,357.2988,392.1334,355.6271,397.5376,350.2229,395.8659,357.96,401.96" style="stroke:#181818;stroke-width:1.0;"/><text fill="#000000" font-family="sans-serif" font-size="13" lengthAdjust="spacing" textLength="59" x="361.0248" y="390.9618">waveText</text></g><!--link WaveManager to TextMeshProUGUI--><g id="link_WaveManager_TextMeshProUGUI"><path codeLine="19" d="M356.63,342.09 C364.19,362.53 370.6,382.08 374.43,397.06 " fill="none" id="WaveManager-to-TextMeshProUGUI-1" style="stroke:#181818;stroke-width:1.0;"/><polygon fill="#181818" points="375.63,401.96,377.3546,392.2633,374.4308,397.1059,369.5881,394.1821,375.63,401.96" style="stroke:#181818;stroke-width:1.0;"/><text fill="#000000" font-family="sans-serif" font-size="13" lengthAdjust="spacing" textLength="130" x="392.3196" y="390.9618">waveCountdownText</text></g><!--SRC=[VPB1Qi9048RlUOff2gL50csX5sk5QAtaO2isqaFfOKsckXXdPNTYAjPtTpU4AfWqXn3c__ulP2T99eo13x71aI0nHmqx3-pLWiYuwIGdaZI7DioKog3JcIDtkoKIW64zrhWM6cFLmv1P94jCUrjNj0qRk-eJ-1K5h62682eGPbie7BgxlRgyktzulF2FubYkC9PPzee_VEPp8R1DWMnSIjf_bXD9FzSQwRnVpHkAOI6MU7rZ6nibqshupa9pxT3PpLco5WKTasX0-GgrOAKhO6TOi4pszkmbloWTPjc0S2NHFECt2iQqeJX1WtNlR1sLG-JALIBkUVlvvUszaIAxg8NOI9LhwFm6mUdglTFV80Ywu4TabPIW_p_sLdvfUHW-X0bBHKtGWD9cnAqZjWlrmTr7Q1PZhQR3QLIFzbLEdAg2QZi7]--></g></svg>