<?xml version="1.0" encoding="us-ascii" standalone="no"?><svg xmlns="http://www.w3.org/2000/svg" xmlns:xlink="http://www.w3.org/1999/xlink" contentStyleType="text/css" height="222px" preserveAspectRatio="none" style="width:190px;height:222px;background:#FFFFFF;" version="1.1" viewBox="0 0 190 222" width="190px" zoomAndPan="magnify"><defs/><g><!--class Isolator`1--><g id="elem_Isolator`1"><rect codeLine="1" fill="#F1F1F1" height="96.8906" id="Isolator`1" rx="2.5" ry="2.5" style="stroke:#181818;stroke-width:0.5;" width="170" x="9" y="10"/><ellipse cx="51.45" cy="26" fill="#A9DCDF" rx="11" ry="11" style="stroke:#181818;stroke-width:1.0;"/><path d="M51.5594,21.3438 L50.4031,26.4219 L52.7313,26.4219 L51.5594,21.3438 Z M50.075,19.1094 L53.0594,19.1094 L56.4188,31.5 L53.9656,31.5 L53.2,28.4375 L49.9188,28.4375 L49.1688,31.5 L46.7313,31.5 L50.075,19.1094 Z " fill="#000000"/><text fill="#000000" font-family="sans-serif" font-size="14" font-style="italic" lengthAdjust="spacing" textLength="66" x="71.55" y="30.8467">Isolator`1</text><rect fill="#FFFFFF" height="15.9688" style="stroke:#181818;stroke-width:1.0;stroke-dasharray:2.0,2.0;" width="9" x="173" y="7"/><text fill="#000000" font-family="sans-serif" font-size="12" font-style="italic" lengthAdjust="spacing" textLength="7" x="174" y="19.1387">T</text><line style="stroke:#181818;stroke-width:0.5;" x1="10" x2="178" y1="42" y2="42"/><polygon fill="none" points="20,50.6484,24,54.6484,20,58.6484,16,54.6484" style="stroke:#B38D22;stroke-width:1.0;"/><text fill="#000000" font-family="sans-serif" font-size="14" font-style="italic" lengthAdjust="spacing" textLength="144" x="29" y="58.9951">Enabled : bool &#171;get&#187;</text><line style="stroke:#181818;stroke-width:0.5;" x1="10" x2="178" y1="66.2969" y2="66.2969"/><rect fill="#F24D5C" height="6" style="stroke:#C82930;stroke-width:1.0;" width="6" x="17" y="76.9453"/><text fill="#000000" font-family="sans-serif" font-size="14" lengthAdjust="spacing" text-decoration="underline" textLength="60" x="29" y="83.292">Isolator()</text><rect fill="#F24D5C" height="6" style="stroke:#C82930;stroke-width:1.0;" width="6" x="17" y="93.2422"/><text fill="#000000" font-family="sans-serif" font-size="14" lengthAdjust="spacing" textLength="118" x="29" y="99.5889">OnEnable() : void</text></g><!--class Object--><g id="elem_Object"><rect fill="#F1F1F1" height="48" id="Object" rx="2.5" ry="2.5" style="stroke:#181818;stroke-width:0.5;" width="77" x="55.5" y="167"/><ellipse cx="70.5" cy="183" fill="#ADD1B2" rx="11" ry="11" style="stroke:#181818;stroke-width:1.0;"/><path d="M73.4688,188.6406 Q72.8906,188.9375 72.25,189.0781 Q71.6094,189.2344 70.9063,189.2344 Q68.4063,189.2344 67.0781,187.5938 Q65.7656,185.9375 65.7656,182.8125 Q65.7656,179.6875 67.0781,178.0313 Q68.4063,176.375 70.9063,176.375 Q71.6094,176.375 72.25,176.5313 Q72.9063,176.6875 73.4688,176.9844 L73.4688,179.7031 Q72.8438,179.125 72.25,178.8594 Q71.6563,178.5781 71.0313,178.5781 Q69.6875,178.5781 69,179.6563 Q68.3125,180.7188 68.3125,182.8125 Q68.3125,184.9063 69,185.9844 Q69.6875,187.0469 71.0313,187.0469 Q71.6563,187.0469 72.25,186.7813 Q72.8438,186.5 73.4688,185.9219 L73.4688,188.6406 Z " fill="#000000"/><text fill="#000000" font-family="sans-serif" font-size="14" lengthAdjust="spacing" textLength="45" x="84.5" y="187.8467">Object</text><line style="stroke:#181818;stroke-width:0.5;" x1="56.5" x2="131.5" y1="199" y2="199"/><line style="stroke:#181818;stroke-width:0.5;" x1="56.5" x2="131.5" y1="207" y2="207"/></g><!--link Isolator`1 to Object--><g id="link_Isolator`1_Object"><path codeLine="6" d="M94,107.35 C94,125.52 94,145.63 94,161.47 " fill="none" id="Isolator`1-to-Object" style="stroke:#181818;stroke-width:1.0;"/><polygon fill="#181818" points="94,166.66,98,157.66,94,161.66,90,157.66,94,166.66" style="stroke:#181818;stroke-width:1.0;"/><text fill="#000000" font-family="sans-serif" font-size="13" lengthAdjust="spacing" textLength="30" x="60.3438" y="155.9821">_last</text></g><!--SRC=[JOwn3i8m44FtV8KLbdR8m8gYR0nCNTZXaaQeAEf9lHDBb7ydAY3XrNwsAOfkb1Ifa0ZiHRYGydO_MdyDg0PT1rJwvXhEAyMIPvmGcGkyVsGDOSzLKT8bDJZyUePnTnoczGCEOoTVlCoccVyrE1TWR_s5MapncPE-0G00]--></g></svg>