<?xml version="1.0" encoding="us-ascii" standalone="no"?><svg xmlns="http://www.w3.org/2000/svg" xmlns:xlink="http://www.w3.org/1999/xlink" contentStyleType="text/css" height="189px" preserveAspectRatio="none" style="width:264px;height:189px;background:#FFFFFF;" version="1.1" viewBox="0 0 264 189" width="264px" zoomAndPan="magnify"><defs/><g><!--class ViewIsolator--><g id="elem_ViewIsolator"><rect codeLine="1" fill="#F1F1F1" height="64.2969" id="ViewIsolator" rx="2.5" ry="2.5" style="stroke:#181818;stroke-width:0.5;" width="248" x="9" y="118"/><ellipse cx="87.75" cy="134" fill="#ADD1B2" rx="11" ry="11" style="stroke:#181818;stroke-width:1.0;"/><path d="M90.7188,139.6406 Q90.1406,139.9375 89.5,140.0781 Q88.8594,140.2344 88.1563,140.2344 Q85.6563,140.2344 84.3281,138.5938 Q83.0156,136.9375 83.0156,133.8125 Q83.0156,130.6875 84.3281,129.0313 Q85.6563,127.375 88.1563,127.375 Q88.8594,127.375 89.5,127.5313 Q90.1563,127.6875 90.7188,127.9844 L90.7188,130.7031 Q90.0938,130.125 89.5,129.8594 Q88.9063,129.5781 88.2813,129.5781 Q86.9375,129.5781 86.25,130.6563 Q85.5625,131.7188 85.5625,133.8125 Q85.5625,135.9063 86.25,136.9844 Q86.9375,138.0469 88.2813,138.0469 Q88.9063,138.0469 89.5,137.7813 Q90.0938,137.5 90.7188,136.9219 L90.7188,139.6406 Z " fill="#000000"/><text fill="#000000" font-family="sans-serif" font-size="14" lengthAdjust="spacing" textLength="82" x="108.25" y="138.8467">ViewIsolator</text><line style="stroke:#181818;stroke-width:0.5;" x1="10" x2="256" y1="150" y2="150"/><polygon fill="none" points="20,158.6484,24,162.6484,20,166.6484,16,162.6484" style="stroke:#B38D22;stroke-width:1.0;"/><text fill="#000000" font-family="sans-serif" font-size="14" lengthAdjust="spacing" textLength="222" x="29" y="166.9951">&#171;override&#187; Enabled : bool &#171;get&#187;</text><line style="stroke:#181818;stroke-width:0.5;" x1="10" x2="256" y1="174.2969" y2="174.2969"/></g><!--class Isolator`1--><g id="elem_Isolator`1"><rect codeLine="4" fill="#F1F1F1" height="48" id="Isolator`1" rx="2.5" ry="2.5" style="stroke:#181818;stroke-width:0.5;" width="109" x="78.5" y="10"/><ellipse cx="93.5" cy="26" fill="#ADD1B2" rx="11" ry="11" style="stroke:#181818;stroke-width:1.0;"/><path d="M96.4688,31.6406 Q95.8906,31.9375 95.25,32.0781 Q94.6094,32.2344 93.9063,32.2344 Q91.4063,32.2344 90.0781,30.5938 Q88.7656,28.9375 88.7656,25.8125 Q88.7656,22.6875 90.0781,21.0313 Q91.4063,19.375 93.9063,19.375 Q94.6094,19.375 95.25,19.5313 Q95.9063,19.6875 96.4688,19.9844 L96.4688,22.7031 Q95.8438,22.125 95.25,21.8594 Q94.6563,21.5781 94.0313,21.5781 Q92.6875,21.5781 92,22.6563 Q91.3125,23.7188 91.3125,25.8125 Q91.3125,27.9063 92,28.9844 Q92.6875,30.0469 94.0313,30.0469 Q94.6563,30.0469 95.25,29.7813 Q95.8438,29.5 96.4688,28.9219 L96.4688,31.6406 Z " fill="#000000"/><text fill="#000000" font-family="sans-serif" font-size="14" lengthAdjust="spacing" textLength="66" x="107.5" y="30.8467">Isolator`1</text><rect fill="#FFFFFF" height="15.9688" style="stroke:#181818;stroke-width:1.0;stroke-dasharray:2.0,2.0;" width="9" x="181.5" y="7"/><text fill="#000000" font-family="sans-serif" font-size="12" font-style="italic" lengthAdjust="spacing" textLength="7" x="182.5" y="19.1387">T</text><line style="stroke:#181818;stroke-width:0.5;" x1="79.5" x2="186.5" y1="42" y2="42"/><line style="stroke:#181818;stroke-width:0.5;" x1="79.5" x2="186.5" y1="50" y2="50"/></g><!--reverse link Isolator`1 to ViewIsolator--><g id="link_Isolator`1_ViewIsolator"><path codeLine="6" d="M133,78.09 C133,91.28 133,105.52 133,117.75 " fill="none" id="Isolator`1-backto-ViewIsolator" style="stroke:#181818;stroke-width:1.0;"/><polygon fill="none" points="126,78.07,133,58.07,140,78.07,126,78.07" style="stroke:#181818;stroke-width:1.0;"/><text fill="#000000" font-family="sans-serif" font-size="13" lengthAdjust="spacing" textLength="51" x="75.4656" y="78.2437">&lt;View&gt;</text></g><!--SRC=[Iyv9B2vM2CjCBVSipiz9BCalKgZcKW02PGKRc_oorAAYp9HKEpi5rxp4f9pK50KhXQJy_1oWN7fgYPqTLorNCjW09PZk14Cbcn0xe1crNCXY2aes83lib1HiQdHrKUm30000]--></g></svg>