<?xml version="1.0" encoding="us-ascii" standalone="no"?><svg xmlns="http://www.w3.org/2000/svg" xmlns:xlink="http://www.w3.org/1999/xlink" contentStyleType="text/css" height="202px" preserveAspectRatio="none" style="width:276px;height:202px;background:#FFFFFF;" version="1.1" viewBox="0 0 276 202" width="276px" zoomAndPan="magnify"><defs/><g><!--class NodeSetup--><g id="elem_NodeSetup"><rect codeLine="1" fill="#F1F1F1" height="80.5938" id="NodeSetup" rx="2.5" ry="2.5" style="stroke:#181818;stroke-width:0.5;" width="262" x="7" y="115"/><ellipse cx="94.75" cy="131" fill="#ADD1B2" rx="11" ry="11" style="stroke:#181818;stroke-width:1.0;"/><path d="M97.7188,136.6406 Q97.1406,136.9375 96.5,137.0781 Q95.8594,137.2344 95.1563,137.2344 Q92.6563,137.2344 91.3281,135.5938 Q90.0156,133.9375 90.0156,130.8125 Q90.0156,127.6875 91.3281,126.0313 Q92.6563,124.375 95.1563,124.375 Q95.8594,124.375 96.5,124.5313 Q97.1563,124.6875 97.7188,124.9844 L97.7188,127.7031 Q97.0938,127.125 96.5,126.8594 Q95.9063,126.5781 95.2813,126.5781 Q93.9375,126.5781 93.25,127.6563 Q92.5625,128.7188 92.5625,130.8125 Q92.5625,132.9063 93.25,133.9844 Q93.9375,135.0469 95.2813,135.0469 Q95.9063,135.0469 96.5,134.7813 Q97.0938,134.5 97.7188,133.9219 L97.7188,136.6406 Z " fill="#000000"/><text fill="#000000" font-family="sans-serif" font-size="14" lengthAdjust="spacing" textLength="78" x="115.25" y="135.8467">NodeSetup</text><line style="stroke:#181818;stroke-width:0.5;" x1="8" x2="268" y1="147" y2="147"/><line style="stroke:#181818;stroke-width:0.5;" x1="8" x2="268" y1="155" y2="155"/><rect fill="#F24D5C" height="6" style="stroke:#C82930;stroke-width:1.0;" width="6" x="15" y="165.6484"/><text fill="#000000" font-family="sans-serif" font-size="14" lengthAdjust="spacing" text-decoration="underline" textLength="236" x="27" y="171.9951">IsAboutEqual(a:float, b:float) : bool</text><rect fill="#F24D5C" height="6" style="stroke:#C82930;stroke-width:1.0;" width="6" x="15" y="181.9453"/><text fill="#000000" font-family="sans-serif" font-size="14" lengthAdjust="spacing" textLength="96" x="27" y="188.292">Awake() : void</text></g><!--class MonoBehaviour--><g id="elem_MonoBehaviour"><rect fill="#F1F1F1" height="48" id="MonoBehaviour" rx="2.5" ry="2.5" style="stroke:#181818;stroke-width:0.5;" width="140" x="68" y="7"/><ellipse cx="83" cy="23" fill="#ADD1B2" rx="11" ry="11" style="stroke:#181818;stroke-width:1.0;"/><path d="M85.9688,28.6406 Q85.3906,28.9375 84.75,29.0781 Q84.1094,29.2344 83.4063,29.2344 Q80.9063,29.2344 79.5781,27.5938 Q78.2656,25.9375 78.2656,22.8125 Q78.2656,19.6875 79.5781,18.0313 Q80.9063,16.375 83.4063,16.375 Q84.1094,16.375 84.75,16.5313 Q85.4063,16.6875 85.9688,16.9844 L85.9688,19.7031 Q85.3438,19.125 84.75,18.8594 Q84.1563,18.5781 83.5313,18.5781 Q82.1875,18.5781 81.5,19.6563 Q80.8125,20.7188 80.8125,22.8125 Q80.8125,24.9063 81.5,25.9844 Q82.1875,27.0469 83.5313,27.0469 Q84.1563,27.0469 84.75,26.7813 Q85.3438,26.5 85.9688,25.9219 L85.9688,28.6406 Z " fill="#000000"/><text fill="#000000" font-family="sans-serif" font-size="14" lengthAdjust="spacing" textLength="108" x="97" y="27.8467">MonoBehaviour</text><line style="stroke:#181818;stroke-width:0.5;" x1="69" x2="207" y1="39" y2="39"/><line style="stroke:#181818;stroke-width:0.5;" x1="69" x2="207" y1="47" y2="47"/></g><!--reverse link MonoBehaviour to NodeSetup--><g id="link_MonoBehaviour_NodeSetup"><path codeLine="5" d="M138,75.14 C138,88 138,102.04 138,114.69 " fill="none" id="MonoBehaviour-backto-NodeSetup" style="stroke:#181818;stroke-width:1.0;"/><polygon fill="none" points="131,75.04,138,55.04,145,75.04,131,75.04" style="stroke:#181818;stroke-width:1.0;"/></g><!--SRC=[Iyv9B2vMyCjFIGrEBIajKAZcKW02NONgufB4aipaMWNFOiUa_D8IryBIn1oDHAkqdFp44Xs590X3Ky5A8Ia_FmUgoR4yCJjL0oHObf-PmbNBvPkVb- -Kcf5ObfbVMgHWKwEhYx0A0000]--></g></svg>