<?xml version="1.0" encoding="us-ascii" standalone="no"?><svg xmlns="http://www.w3.org/2000/svg" xmlns:xlink="http://www.w3.org/1999/xlink" contentStyleType="text/css" height="94px" preserveAspectRatio="none" style="width:303px;height:94px;background:#FFFFFF;" version="1.1" viewBox="0 0 303 94" width="303px" zoomAndPan="magnify"><defs/><g><!--class Node--><g id="elem_Node"><rect codeLine="1" fill="#F1F1F1" height="80.5938" id="Node" rx="2.5" ry="2.5" style="stroke:#181818;stroke-width:0.5;" width="212" x="7" y="7"/><ellipse cx="31.9" cy="23" fill="#ADD1B2" rx="11" ry="11" style="stroke:#181818;stroke-width:1.0;"/><path d="M34.8688,28.6406 Q34.2906,28.9375 33.65,29.0781 Q33.0094,29.2344 32.3063,29.2344 Q29.8063,29.2344 28.4781,27.5938 Q27.1656,25.9375 27.1656,22.8125 Q27.1656,19.6875 28.4781,18.0313 Q29.8063,16.375 32.3063,16.375 Q33.0094,16.375 33.65,16.5313 Q34.3063,16.6875 34.8688,16.9844 L34.8688,19.7031 Q34.2438,19.125 33.65,18.8594 Q33.0563,18.5781 32.4313,18.5781 Q31.0875,18.5781 30.4,19.6563 Q29.7125,20.7188 29.7125,22.8125 Q29.7125,24.9063 30.4,25.9844 Q31.0875,27.0469 32.4313,27.0469 Q33.0563,27.0469 33.65,26.7813 Q34.2438,26.5 34.8688,25.9219 L34.8688,28.6406 Z " fill="#000000"/><text fill="#000000" font-family="sans-serif" font-size="14" lengthAdjust="spacing" textLength="158" x="48.1" y="27.8467">Node : MonoBehaviour</text><line style="stroke:#181818;stroke-width:0.5;" x1="8" x2="218" y1="39" y2="39"/><ellipse cx="18" cy="52.6484" fill="none" rx="3" ry="3" style="stroke:#038048;stroke-width:1.0;"/><text fill="#000000" font-family="sans-serif" font-size="14" lengthAdjust="spacing" textLength="172" x="27" y="55.9951">nextNodes : List&lt;Node&gt;</text><ellipse cx="18" cy="68.9453" fill="none" rx="3" ry="3" style="stroke:#038048;stroke-width:1.0;"/><text fill="#000000" font-family="sans-serif" font-size="14" lengthAdjust="spacing" textLength="186" x="27" y="72.292">amountOfTimesVisited : int</text><line style="stroke:#181818;stroke-width:0.5;" x1="8" x2="218" y1="79.5938" y2="79.5938"/></g><!--link Node to Node--><g id="link_Node_Node"><path codeLine="5" d="M219.07,33.19 C239.51,34.88 254,39.65 254,47.5 C254,54.68 241.9,59.28 224.2,61.3 " fill="none" id="Node-to-Node" style="stroke:#181818;stroke-width:1.0;"/><polygon fill="#181818" points="219.07,61.81,228.4163,64.9159,224.0463,61.3238,227.6384,56.9538,219.07,61.81" style="stroke:#181818;stroke-width:1.0;"/><text fill="#000000" font-family="sans-serif" font-size="13" lengthAdjust="spacing" textLength="69" x="227.1967" y="59.2862">nextNodes</text></g><!--SRC=[Iyv9B2vMKFBBJqbLi5BmpS_BTqhDI2pBp2yjKb98B5O0IrHpAG21ja9UQaK9IA0OgDGdixZ41iInWqecvkQNvfNufuLavgOMXsKMPvQafW3LPUQLSDLoWOtHrRLJK8AReGGs6m00]--></g></svg>