<?xml version="1.0" encoding="us-ascii" standalone="no"?><svg xmlns="http://www.w3.org/2000/svg" xmlns:xlink="http://www.w3.org/1999/xlink" contentStyleType="text/css" height="343px" preserveAspectRatio="none" style="width:652px;height:343px;background:#FFFFFF;" version="1.1" viewBox="0 0 652 343" width="652px" zoomAndPan="magnify"><defs/><g><!--class Node--><g id="elem_Node"><rect codeLine="1" fill="#F1F1F1" height="113.1875" id="Node" rx="2.5" ry="2.5" style="stroke:#181818;stroke-width:0.5;" width="387" x="7" y="115"/><ellipse cx="177.75" cy="131" fill="#ADD1B2" rx="11" ry="11" style="stroke:#181818;stroke-width:1.0;"/><path d="M180.7188,136.6406 Q180.1406,136.9375 179.5,137.0781 Q178.8594,137.2344 178.1563,137.2344 Q175.6563,137.2344 174.3281,135.5938 Q173.0156,133.9375 173.0156,130.8125 Q173.0156,127.6875 174.3281,126.0313 Q175.6563,124.375 178.1563,124.375 Q178.8594,124.375 179.5,124.5313 Q180.1563,124.6875 180.7188,124.9844 L180.7188,127.7031 Q180.0938,127.125 179.5,126.8594 Q178.9063,126.5781 178.2813,126.5781 Q176.9375,126.5781 176.25,127.6563 Q175.5625,128.7188 175.5625,130.8125 Q175.5625,132.9063 176.25,133.9844 Q176.9375,135.0469 178.2813,135.0469 Q178.9063,135.0469 179.5,134.7813 Q180.0938,134.5 180.7188,133.9219 L180.7188,136.6406 Z " fill="#000000"/><text fill="#000000" font-family="sans-serif" font-size="14" lengthAdjust="spacing" textLength="37" x="198.25" y="135.8467">Node</text><line style="stroke:#181818;stroke-width:0.5;" x1="8" x2="393" y1="147" y2="147"/><ellipse cx="18" cy="160.6484" fill="none" rx="3" ry="3" style="stroke:#038048;stroke-width:1.0;"/><text fill="#000000" font-family="sans-serif" font-size="14" lengthAdjust="spacing" textLength="186" x="27" y="163.9951">amountOfTimesVisited : int</text><line style="stroke:#181818;stroke-width:0.5;" x1="8" x2="393" y1="171.2969" y2="171.2969"/><rect fill="#F24D5C" height="6" style="stroke:#C82930;stroke-width:1.0;" width="6" x="15" y="181.9453"/><text fill="#000000" font-family="sans-serif" font-size="14" lengthAdjust="spacing" textLength="96" x="27" y="188.292">Awake() : void</text><rect fill="#F24D5C" height="6" style="stroke:#C82930;stroke-width:1.0;" width="6" x="15" y="198.2422"/><text fill="#000000" font-family="sans-serif" font-size="14" lengthAdjust="spacing" textLength="101" x="27" y="204.5889">Update() : void</text><rect fill="#F24D5C" height="6" style="stroke:#C82930;stroke-width:1.0;" width="6" x="15" y="214.5391"/><text fill="#000000" font-family="sans-serif" font-size="14" lengthAdjust="spacing" textLength="361" x="27" y="220.8857">DrawArrow(startPos:Vector3, endPos:Vector3) : void</text></g><!--class List`1--><g id="elem_List`1"><rect codeLine="7" fill="#F1F1F1" height="48" id="List`1" rx="2.5" ry="2.5" style="stroke:#181818;stroke-width:0.5;" width="82" x="429.5" y="147.5"/><ellipse cx="444.5" cy="163.5" fill="#ADD1B2" rx="11" ry="11" style="stroke:#181818;stroke-width:1.0;"/><path d="M447.4688,169.1406 Q446.8906,169.4375 446.25,169.5781 Q445.6094,169.7344 444.9063,169.7344 Q442.4063,169.7344 441.0781,168.0938 Q439.7656,166.4375 439.7656,163.3125 Q439.7656,160.1875 441.0781,158.5313 Q442.4063,156.875 444.9063,156.875 Q445.6094,156.875 446.25,157.0313 Q446.9063,157.1875 447.4688,157.4844 L447.4688,160.2031 Q446.8438,159.625 446.25,159.3594 Q445.6563,159.0781 445.0313,159.0781 Q443.6875,159.0781 443,160.1563 Q442.3125,161.2188 442.3125,163.3125 Q442.3125,165.4063 443,166.4844 Q443.6875,167.5469 445.0313,167.5469 Q445.6563,167.5469 446.25,167.2813 Q446.8438,167 447.4688,166.4219 L447.4688,169.1406 Z " fill="#000000"/><text fill="#000000" font-family="sans-serif" font-size="14" lengthAdjust="spacing" textLength="39" x="458.5" y="168.3467">List`1</text><rect fill="#FFFFFF" height="15.9688" style="stroke:#181818;stroke-width:1.0;stroke-dasharray:2.0,2.0;" width="9" x="505.5" y="144.5"/><text fill="#000000" font-family="sans-serif" font-size="12" font-style="italic" lengthAdjust="spacing" textLength="7" x="506.5" y="156.6387">T</text><line style="stroke:#181818;stroke-width:0.5;" x1="430.5" x2="510.5" y1="179.5" y2="179.5"/><line style="stroke:#181818;stroke-width:0.5;" x1="430.5" x2="510.5" y1="187.5" y2="187.5"/></g><!--class MonoBehaviour--><g id="elem_MonoBehaviour"><rect fill="#F1F1F1" height="48" id="MonoBehaviour" rx="2.5" ry="2.5" style="stroke:#181818;stroke-width:0.5;" width="140" x="130.5" y="7"/><ellipse cx="145.5" cy="23" fill="#ADD1B2" rx="11" ry="11" style="stroke:#181818;stroke-width:1.0;"/><path d="M148.4688,28.6406 Q147.8906,28.9375 147.25,29.0781 Q146.6094,29.2344 145.9063,29.2344 Q143.4063,29.2344 142.0781,27.5938 Q140.7656,25.9375 140.7656,22.8125 Q140.7656,19.6875 142.0781,18.0313 Q143.4063,16.375 145.9063,16.375 Q146.6094,16.375 147.25,16.5313 Q147.9063,16.6875 148.4688,16.9844 L148.4688,19.7031 Q147.8438,19.125 147.25,18.8594 Q146.6563,18.5781 146.0313,18.5781 Q144.6875,18.5781 144,19.6563 Q143.3125,20.7188 143.3125,22.8125 Q143.3125,24.9063 144,25.9844 Q144.6875,27.0469 146.0313,27.0469 Q146.6563,27.0469 147.25,26.7813 Q147.8438,26.5 148.4688,25.9219 L148.4688,28.6406 Z " fill="#000000"/><text fill="#000000" font-family="sans-serif" font-size="14" lengthAdjust="spacing" textLength="108" x="159.5" y="27.8467">MonoBehaviour</text><line style="stroke:#181818;stroke-width:0.5;" x1="131.5" x2="269.5" y1="39" y2="39"/><line style="stroke:#181818;stroke-width:0.5;" x1="131.5" x2="269.5" y1="47" y2="47"/></g><!--class Color--><g id="elem_Color"><rect fill="#F1F1F1" height="48" id="Color" rx="2.5" ry="2.5" style="stroke:#181818;stroke-width:0.5;" width="68" x="166.5" y="288"/><ellipse cx="181.5" cy="304" fill="#ADD1B2" rx="11" ry="11" style="stroke:#181818;stroke-width:1.0;"/><path d="M184.4688,309.6406 Q183.8906,309.9375 183.25,310.0781 Q182.6094,310.2344 181.9063,310.2344 Q179.4063,310.2344 178.0781,308.5938 Q176.7656,306.9375 176.7656,303.8125 Q176.7656,300.6875 178.0781,299.0313 Q179.4063,297.375 181.9063,297.375 Q182.6094,297.375 183.25,297.5313 Q183.9063,297.6875 184.4688,297.9844 L184.4688,300.7031 Q183.8438,300.125 183.25,299.8594 Q182.6563,299.5781 182.0313,299.5781 Q180.6875,299.5781 180,300.6563 Q179.3125,301.7188 179.3125,303.8125 Q179.3125,305.9063 180,306.9844 Q180.6875,308.0469 182.0313,308.0469 Q182.6563,308.0469 183.25,307.7813 Q183.8438,307.5 184.4688,306.9219 L184.4688,309.6406 Z " fill="#000000"/><text fill="#000000" font-family="sans-serif" font-size="14" lengthAdjust="spacing" textLength="36" x="195.5" y="308.8467">Color</text><line style="stroke:#181818;stroke-width:0.5;" x1="167.5" x2="233.5" y1="320" y2="320"/><line style="stroke:#181818;stroke-width:0.5;" x1="167.5" x2="233.5" y1="328" y2="328"/></g><!--reverse link MonoBehaviour to Node--><g id="link_MonoBehaviour_Node"><path codeLine="9" d="M200.5,75.3 C200.5,87.85 200.5,101.74 200.5,114.94 " fill="none" id="MonoBehaviour-backto-Node" style="stroke:#181818;stroke-width:1.0;"/><polygon fill="none" points="193.5,75.18,200.5,55.18,207.5,75.18,193.5,75.18" style="stroke:#181818;stroke-width:1.0;"/></g><!--link Node to List`1--><g id="link_Node_List`1"><path codeLine="10" d="M407.25,171.5 C410.24,171.5 413.22,171.5 416.2,171.5 " fill="none" id="Node-List`1" style="stroke:#181818;stroke-width:1.0;"/><polygon fill="none" points="394.04,171.5,400.04,175.5,406.04,171.5,400.04,167.5,394.04,171.5" style="stroke:#181818;stroke-width:1.0;"/><polygon fill="#181818" points="429.28,171.5,420.28,167.5,424.28,171.5,420.28,175.5,429.28,171.5" style="stroke:#181818;stroke-width:1.0;"/><line style="stroke:#181818;stroke-width:1.0;" x1="424.28" x2="416.28" y1="171.5" y2="171.5"/><text fill="#000000" font-family="sans-serif" font-size="13" lengthAdjust="spacing" textLength="125" x="520.784" y="136.6024">nextNodes&lt;Node&gt;</text></g><!--link Node to Color--><g id="link_Node_Color"><path codeLine="11" d="M200.5,228.04 C200.5,246.83 200.5,267.03 200.5,282.8 " fill="none" id="Node-to-Color" style="stroke:#181818;stroke-width:1.0;"/><polygon fill="#181818" points="200.5,287.96,204.5,278.96,200.5,282.96,196.5,278.96,200.5,287.96" style="stroke:#181818;stroke-width:1.0;"/><text fill="#000000" font-family="sans-serif" font-size="13" lengthAdjust="spacing" textLength="73" x="118.1469" y="276.9618">_ownColour</text></g><!--SRC=[POxD2i8m48JlVOebfuhc8DvAALGz-dUelMfe8WRRh2JRLj2-kqsL8hY7NMQO7RwY5Cx13gM2Pm3zJ45KM1lQNp9TAPThfqb9Y40R6W8SqbRSL3ZflGQr_9h7knJqvwwjQ5DhiGqT2Ki7T56k2aAxc84oyaUFZrrG34niensTvopEaXwj2xPeSAckej5OMuXVd0_OmS2EF05cr8EySh7V2HihFXdkCoTipGhBleA1l_OD]--></g></svg>