<?xml version="1.0" encoding="us-ascii" standalone="no"?><svg xmlns="http://www.w3.org/2000/svg" xmlns:xlink="http://www.w3.org/1999/xlink" contentStyleType="text/css" height="170px" preserveAspectRatio="none" style="width:154px;height:170px;background:#FFFFFF;" version="1.1" viewBox="0 0 154 170" width="154px" zoomAndPan="magnify"><defs/><g><!--class NodeDrawer--><g id="elem_NodeDrawer"><rect codeLine="1" fill="#F1F1F1" height="48" id="NodeDrawer" rx="2.5" ry="2.5" style="stroke:#181818;stroke-width:0.5;" width="118" x="18" y="115"/><ellipse cx="33" cy="131" fill="#ADD1B2" rx="11" ry="11" style="stroke:#181818;stroke-width:1.0;"/><path d="M35.9688,136.6406 Q35.3906,136.9375 34.75,137.0781 Q34.1094,137.2344 33.4063,137.2344 Q30.9063,137.2344 29.5781,135.5938 Q28.2656,133.9375 28.2656,130.8125 Q28.2656,127.6875 29.5781,126.0313 Q30.9063,124.375 33.4063,124.375 Q34.1094,124.375 34.75,124.5313 Q35.4063,124.6875 35.9688,124.9844 L35.9688,127.7031 Q35.3438,127.125 34.75,126.8594 Q34.1563,126.5781 33.5313,126.5781 Q32.1875,126.5781 31.5,127.6563 Q30.8125,128.7188 30.8125,130.8125 Q30.8125,132.9063 31.5,133.9844 Q32.1875,135.0469 33.5313,135.0469 Q34.1563,135.0469 34.75,134.7813 Q35.3438,134.5 35.9688,133.9219 L35.9688,136.6406 Z " fill="#000000"/><text fill="#000000" font-family="sans-serif" font-size="14" lengthAdjust="spacing" textLength="86" x="47" y="135.8467">NodeDrawer</text><line style="stroke:#181818;stroke-width:0.5;" x1="19" x2="135" y1="147" y2="147"/><line style="stroke:#181818;stroke-width:0.5;" x1="19" x2="135" y1="155" y2="155"/></g><!--class MonoBehaviour--><g id="elem_MonoBehaviour"><rect fill="#F1F1F1" height="48" id="MonoBehaviour" rx="2.5" ry="2.5" style="stroke:#181818;stroke-width:0.5;" width="140" x="7" y="7"/><ellipse cx="22" cy="23" fill="#ADD1B2" rx="11" ry="11" style="stroke:#181818;stroke-width:1.0;"/><path d="M24.9688,28.6406 Q24.3906,28.9375 23.75,29.0781 Q23.1094,29.2344 22.4063,29.2344 Q19.9063,29.2344 18.5781,27.5938 Q17.2656,25.9375 17.2656,22.8125 Q17.2656,19.6875 18.5781,18.0313 Q19.9063,16.375 22.4063,16.375 Q23.1094,16.375 23.75,16.5313 Q24.4063,16.6875 24.9688,16.9844 L24.9688,19.7031 Q24.3438,19.125 23.75,18.8594 Q23.1563,18.5781 22.5313,18.5781 Q21.1875,18.5781 20.5,19.6563 Q19.8125,20.7188 19.8125,22.8125 Q19.8125,24.9063 20.5,25.9844 Q21.1875,27.0469 22.5313,27.0469 Q23.1563,27.0469 23.75,26.7813 Q24.3438,26.5 24.9688,25.9219 L24.9688,28.6406 Z " fill="#000000"/><text fill="#000000" font-family="sans-serif" font-size="14" lengthAdjust="spacing" textLength="108" x="36" y="27.8467">MonoBehaviour</text><line style="stroke:#181818;stroke-width:0.5;" x1="8" x2="146" y1="39" y2="39"/><line style="stroke:#181818;stroke-width:0.5;" x1="8" x2="146" y1="47" y2="47"/></g><!--reverse link MonoBehaviour to NodeDrawer--><g id="link_MonoBehaviour_NodeDrawer"><path codeLine="3" d="M77,75.02 C77,88.58 77,103.04 77,114.68 " fill="none" id="MonoBehaviour-backto-NodeDrawer" style="stroke:#181818;stroke-width:1.0;"/><polygon fill="none" points="70,75,77,55,84,75,70,75" style="stroke:#181818;stroke-width:1.0;"/></g><!--SRC=[Iyv9B2vMyCjFINKfIYnFBLAevghbyitFotTApKWioymlBLAmgT7LHL810000]--></g></svg>